{"glyphs":{"0":{"ha":606,"x_min":22,"x_max":578,"o":"m 308 799 q 364 783 338 794 q 410 764 385 778 q 457 739 438 751 q 482 719 476 726 q 524 657 511 675 q 542 624 536 639 q 552 585 547 608 q 569 508 557 563 q 577 440 576 478 q 572 360 578 401 q 543 205 569 278 q 464 83 517 132 q 399 23 435 47 q 321 -8 364 -1 q 215 -2 264 -17 q 127 45 165 13 q 65 126 89 78 q 33 232 40 174 q 31 408 22 324 q 63 563 39 492 q 99 699 72 638 q 178 788 125 760 q 217 800 196 796 q 258 804 238 804 q 308 799 286 813 m 328 65 q 364 140 351 99 q 383 222 376 181 q 388 290 386 257 q 390 358 389 324 q 383 409 388 383 q 378 460 379 435 q 370 560 375 514 q 353 651 365 607 q 329 700 344 675 q 317 715 328 703 q 291 735 306 726 q 261 742 276 743 q 235 719 246 740 l 231 711 q 218 666 222 690 q 211 617 214 642 q 207 568 208 592 q 204 524 206 544 q 200 482 201 503 q 197 439 199 461 q 206 312 199 375 q 224 186 213 249 q 229 165 224 182 q 242 128 235 149 q 260 85 250 107 q 282 47 271 64 q 328 65 313 43 m 542 399 q 476 383 508 392 q 419 367 444 375 l 419 346 l 542 390 l 542 399 m 171 485 l 171 496 l 133 492 l 82 481 l 82 460 l 171 485 m 506 208 l 513 228 l 411 201 q 410 192 410 197 l 408 189 l 506 208 m 419 532 q 475 544 450 539 q 525 551 500 549 q 522 564 524 558 q 518 576 521 569 q 466 554 492 565 q 419 532 440 543 m 478 474 q 508 481 493 478 q 539 488 524 485 l 535 511 l 433 463 l 478 474 m 414 665 q 440 670 426 668 q 469 675 454 672 q 451 697 461 688 q 416 678 435 686 q 379 660 397 669 l 379 656 l 414 665 m 447 271 q 525 279 485 272 q 531 306 528 289 q 492 290 513 299 q 447 271 471 281 m 168 301 q 131 295 149 299 q 94 288 113 292 q 97 269 94 281 q 133 280 115 275 q 167 292 150 285 q 167 297 167 294 q 168 301 168 299 m 421 639 q 401 633 410 636 q 386 628 393 631 q 393 608 392 618 l 467 647 l 421 639 m 519 456 q 476 442 504 451 q 418 425 447 432 q 419 417 418 421 q 419 408 419 413 q 457 427 439 418 q 494 444 475 436 l 519 456 m 168 357 q 128 351 149 354 q 88 343 107 347 q 89 329 88 335 q 128 342 108 336 q 168 356 149 349 l 168 357 m 418 293 q 474 312 443 303 q 535 331 504 321 q 535 333 535 332 q 536 335 536 333 q 476 318 504 326 q 418 304 447 310 l 418 293 m 113 204 q 138 210 125 207 q 165 218 151 214 l 165 229 l 110 215 q 113 204 110 213 m 192 669 q 163 660 176 665 q 135 650 149 654 l 131 642 l 189 654 q 192 669 189 661 m 174 557 q 129 547 151 551 q 86 539 107 543 l 86 529 q 129 541 107 535 q 174 554 151 547 l 174 557 m 82 413 q 83 405 82 408 q 83 397 83 401 l 147 419 q 127 419 136 419 q 107 417 118 418 l 82 413 m 107 600 q 146 614 126 607 q 185 628 165 621 l 115 617 l 107 600 m 476 514 q 445 508 461 511 q 414 500 429 504 q 415 485 414 490 q 445 499 431 492 q 476 514 460 507 m 481 171 q 442 166 461 168 q 404 161 422 164 q 403 150 404 154 q 481 171 443 158 m 233 772 l 233 774 q 195 758 214 767 q 157 742 176 750 q 148 731 153 736 q 140 721 143 726 l 151 724 q 217 767 181 753 l 233 772 m 71 261 l 67 282 q 53 279 61 282 q 53 268 53 274 q 56 256 54 263 l 71 261 m 165 261 q 134 250 150 254 q 103 240 118 246 l 103 236 l 165 254 l 165 261 m 364 715 q 388 722 376 718 q 413 731 400 726 q 404 738 410 732 l 364 717 l 364 715 m 460 608 l 503 618 l 497 629 l 460 608 m 146 122 l 151 115 l 172 121 q 172 126 172 124 q 171 131 171 128 l 146 122 m 167 160 l 167 164 l 129 156 q 132 149 132 150 l 167 160 m 50 336 l 50 318 l 61 322 q 60 339 61 333 l 50 336 m 406 71 l 425 83 q 410 81 418 82 q 393 78 401 81 q 392 76 392 76 q 392 74 393 75 l 406 71 m 460 582 q 433 573 446 578 q 404 563 419 568 q 405 560 406 561 q 406 557 404 560 l 460 582 m 86 199 q 83 208 83 204 l 67 203 q 69 193 67 199 l 86 199 m 399 111 l 399 106 l 460 121 l 399 111 m 168 390 l 168 397 l 119 381 l 168 390 m 543 426 l 543 433 q 523 426 532 431 q 506 419 514 422 l 504 418 l 543 426 m 453 243 l 414 239 l 414 231 l 453 243 m 107 140 l 104 149 l 88 144 l 92 136 l 107 140 m 165 189 l 165 194 q 142 187 154 190 q 119 181 131 183 l 119 179 l 165 189 m 107 110 l 113 101 l 125 106 l 121 114 l 107 110 m 138 447 q 153 448 146 447 q 169 450 161 449 l 169 456 l 138 447 m 206 142 q 201 140 203 140 q 199 139 200 140 q 200 129 199 133 l 208 132 q 206 142 206 138 m 199 36 q 194 35 197 35 l 213 26 l 218 29 q 208 32 213 31 q 199 36 204 33 m 78 233 q 69 230 74 231 q 60 228 64 229 q 61 225 60 226 l 78 229 l 78 233 m 168 56 q 165 58 165 57 q 163 61 164 60 l 154 58 l 160 54 l 168 56 m 56 406 l 54 406 l 51 388 l 56 389 l 56 406 m 179 590 l 179 593 l 151 585 l 179 590 m 294 764 l 300 760 q 307 761 303 761 l 307 764 l 294 764 m 372 690 l 372 688 l 396 699 l 372 690 m 144 79 q 143 82 143 81 l 132 78 q 133 77 133 78 q 135 76 133 76 l 144 79 m 226 82 l 222 81 l 231 72 l 226 82 m 353 746 q 353 744 353 744 q 354 743 354 744 l 365 750 l 353 746 m 193 193 l 192 203 q 190 201 190 203 q 191 197 190 199 q 192 193 192 196 l 193 193 m 172 89 l 179 92 l 179 93 l 171 90 l 172 89 z "},"1":{"ha":436,"x_min":28,"x_max":410,"o":"m 311 496 q 313 390 314 443 q 310 282 311 336 q 310 229 313 249 l 310 171 q 310 169 310 169 q 311 168 311 169 l 311 143 q 344 77 317 94 q 400 63 371 60 q 409 51 408 58 q 403 38 410 44 q 347 27 386 32 q 262 19 307 22 q 175 13 217 15 q 115 11 133 11 q 104 17 108 11 q 99 28 97 21 q 111 39 100 36 q 123 41 114 39 q 142 48 132 43 q 163 61 153 53 q 176 83 172 69 q 169 208 174 147 q 160 331 164 268 q 149 397 154 364 q 143 464 144 431 q 142 573 140 518 q 144 682 144 628 q 79 659 108 668 q 40 653 50 650 q 34 658 35 656 q 31 665 33 660 q 33 674 32 667 q 31 683 33 681 q 28 694 28 690 q 33 703 28 699 q 81 723 49 711 q 151 746 114 735 q 224 766 189 757 q 282 779 260 775 l 278 778 q 294 765 294 779 q 290 749 300 758 l 283 744 q 288 704 288 724 q 292 664 289 685 q 303 581 297 622 q 311 496 310 539 m 288 388 q 231 380 258 383 q 181 374 203 376 l 181 353 q 233 365 207 360 q 288 378 260 371 l 288 388 m 286 329 q 236 322 261 326 q 188 314 211 318 l 192 294 l 286 321 l 286 329 m 283 525 q 231 517 257 521 q 178 508 204 514 l 178 488 q 231 504 203 496 q 283 522 258 513 l 283 525 m 274 78 q 274 90 274 85 q 275 103 274 96 q 256 98 265 100 q 240 93 247 96 l 206 79 l 206 67 l 238 74 l 274 78 m 197 615 q 232 626 215 621 q 267 639 249 632 q 265 649 265 642 q 233 643 249 646 q 201 638 217 640 l 197 615 m 196 256 q 197 240 196 246 l 283 269 l 283 271 l 199 257 l 196 256 m 267 492 q 210 471 238 482 l 286 479 l 286 494 q 275 493 282 493 l 275 494 q 272 493 274 494 q 267 492 271 492 m 271 450 q 224 445 247 447 q 178 440 201 443 l 178 424 l 271 450 m 208 110 q 242 122 225 117 q 276 132 260 126 q 277 134 276 133 q 278 136 278 135 l 204 124 q 205 116 204 119 q 206 108 206 113 q 208 110 206 108 m 201 178 q 241 191 221 185 q 281 204 261 197 l 281 208 l 201 188 l 201 178 m 197 703 q 199 695 199 699 q 200 688 200 692 l 258 710 l 258 711 l 197 703 m 288 424 q 247 413 268 418 q 207 403 226 407 l 288 411 l 288 424 m 199 215 q 240 226 219 221 q 282 236 261 232 l 282 244 l 199 217 l 199 215 m 186 568 q 185 563 186 565 q 185 558 185 561 q 219 571 201 565 q 254 582 236 576 l 186 568 m 246 544 q 260 547 251 544 q 282 553 269 550 q 281 555 282 554 q 281 558 281 556 l 218 539 l 246 544 m 279 167 l 279 175 l 238 161 l 279 167 m 178 686 q 176 696 176 689 l 171 693 l 171 676 l 178 679 l 178 686 m 176 632 l 171 632 q 170 619 171 625 q 169 607 169 614 l 171 607 l 176 632 m 206 39 l 225 40 l 242 46 l 206 39 z "},"2":{"ha":522,"x_min":28,"x_max":499,"o":"m 167 553 q 144 523 165 533 q 97 513 122 513 q 51 526 72 514 q 29 561 31 538 q 40 610 28 590 q 51 644 46 631 q 63 668 57 657 q 78 692 69 679 q 103 725 88 706 q 188 777 135 765 q 296 778 242 789 q 394 739 350 768 q 454 667 439 710 q 458 536 476 604 q 406 406 439 468 l 393 365 q 347 255 374 317 q 289 149 319 193 q 280 126 285 140 q 269 96 275 113 q 258 63 264 79 q 246 35 251 47 l 383 39 q 419 60 410 44 q 428 94 428 75 q 426 135 429 114 q 426 176 424 157 q 440 190 428 188 q 461 193 451 193 q 478 183 474 199 q 478 179 478 181 q 478 175 479 178 q 490 103 482 139 q 496 29 499 67 q 493 25 493 26 q 479 14 490 15 q 268 2 376 3 q 54 3 160 1 q 40 22 36 6 q 65 60 50 33 q 97 123 81 88 q 132 198 114 158 q 168 275 150 238 q 202 344 186 313 q 231 392 218 375 l 240 410 q 265 458 253 433 q 290 506 278 483 q 311 546 301 528 q 325 575 321 564 q 338 622 333 596 q 338 674 342 649 q 320 717 333 699 q 282 740 307 736 q 271 743 278 742 q 260 742 264 744 q 244 733 256 739 q 219 708 233 726 q 191 653 206 689 q 167 556 176 617 l 167 553 m 261 389 q 260 388 261 389 l 372 396 l 383 418 l 261 389 m 436 549 q 439 563 436 554 l 338 538 l 332 526 l 436 549 m 435 638 l 365 626 q 365 617 365 622 q 364 608 364 613 l 439 625 l 435 638 m 406 461 l 414 479 l 293 454 l 406 461 m 339 343 q 283 330 317 336 q 225 318 249 324 q 224 317 225 317 q 224 315 224 317 l 328 325 q 339 343 336 336 m 114 690 q 147 687 131 688 q 181 685 164 686 l 192 707 q 158 702 175 704 q 124 697 140 700 l 114 690 m 304 283 l 211 271 l 292 268 l 304 283 m 440 600 l 440 601 l 358 590 l 354 576 l 440 600 m 175 188 q 215 192 194 190 q 254 194 235 193 l 257 208 q 217 199 236 204 q 175 189 197 194 l 175 188 m 186 64 q 122 51 151 56 q 121 48 122 49 q 119 46 119 47 q 151 49 135 47 q 182 50 167 50 l 186 64 m 276 425 l 271 415 l 383 439 l 276 425 m 310 485 q 342 494 324 489 q 376 505 360 500 q 408 515 393 510 q 429 522 422 519 q 409 517 422 521 q 379 510 396 514 q 345 501 363 506 q 315 494 328 497 l 310 485 m 79 564 q 109 563 94 563 q 139 563 124 563 q 140 568 140 565 q 139 574 139 571 l 79 564 m 308 364 q 276 360 292 361 q 244 358 260 360 l 239 347 l 308 364 m 235 232 q 212 231 224 232 q 189 232 200 231 l 185 218 l 235 232 m 164 157 q 161 149 164 154 l 224 163 l 164 157 m 221 71 l 213 47 l 218 47 l 214 38 q 216 38 215 38 q 218 39 217 39 l 226 63 q 229 74 226 65 l 221 71 m 449 64 q 458 65 453 64 q 468 65 463 65 l 465 79 l 450 74 q 449 69 450 71 q 449 64 449 67 m 138 625 q 148 626 143 625 q 158 626 153 626 q 161 636 158 631 q 143 633 151 633 q 126 631 135 632 l 138 625 m 389 711 l 363 693 l 399 703 l 389 711 m 140 89 l 138 83 l 200 96 l 201 97 l 140 89 m 171 121 q 195 124 182 122 q 221 128 208 125 q 226 136 224 133 q 199 128 213 132 q 171 121 185 124 m 293 215 q 288 215 290 214 q 283 214 286 215 l 281 196 l 283 196 l 293 215 m 365 656 l 414 668 l 365 660 l 365 656 m 367 728 l 365 728 q 364 729 364 728 l 347 722 q 350 715 350 717 l 367 728 m 453 103 l 461 108 q 460 115 461 113 l 453 114 l 453 103 m 101 660 q 101 658 101 658 q 100 654 100 657 l 124 658 l 101 660 m 136 154 l 132 143 l 136 143 l 140 154 l 136 154 m 451 143 l 454 144 q 453 151 454 147 q 453 158 453 154 l 451 158 l 451 143 m 111 86 l 107 78 l 110 78 l 115 86 l 111 86 m 433 36 q 451 35 443 36 q 468 36 460 35 l 433 36 m 143 171 l 154 194 l 158 206 l 143 171 z "},"3":{"ha":564,"x_min":26,"x_max":539,"o":"m 51 147 q 58 198 43 174 q 101 236 74 222 q 159 249 128 250 q 211 224 190 249 q 233 196 225 211 q 238 171 239 181 q 257 87 244 126 q 306 35 269 47 q 337 37 324 29 q 357 57 350 44 q 367 84 364 69 q 371 110 371 99 q 370 150 371 126 q 367 201 369 174 q 361 256 365 228 q 349 311 357 285 q 344 324 346 318 q 336 336 342 329 q 286 363 315 360 q 229 365 257 367 q 181 352 204 358 q 140 342 158 346 q 108 335 121 338 q 89 335 94 332 q 83 351 82 344 q 89 381 88 367 q 83 414 90 394 q 97 425 88 424 q 149 421 124 425 q 197 414 174 417 q 239 413 219 411 q 274 426 258 414 q 296 476 286 442 q 301 552 301 510 q 297 634 301 594 q 283 704 293 674 q 257 743 272 735 l 239 743 q 219 719 226 735 q 208 684 213 703 q 203 644 204 665 q 204 606 203 624 q 204 575 211 589 q 158 535 188 543 q 99 533 128 526 q 49 556 69 539 q 29 594 28 574 q 30 599 29 597 q 31 604 31 601 q 48 681 26 649 q 93 733 69 714 q 190 781 136 769 q 297 781 244 792 q 396 738 350 769 q 468 657 442 706 q 490 583 486 621 q 483 512 493 546 q 449 449 472 478 q 392 404 426 421 q 432 390 413 397 q 467 372 451 383 q 510 313 493 353 q 533 228 526 274 q 532 142 539 183 q 504 79 525 100 q 476 50 485 60 q 458 35 467 40 q 438 24 450 29 q 399 10 425 19 q 369 1 386 3 q 333 -1 353 0 q 300 -4 318 -3 q 261 -7 282 -6 q 149 24 201 -10 q 89 75 110 44 q 51 147 60 104 m 392 638 q 360 623 376 629 q 328 610 343 617 l 328 601 q 367 609 347 604 q 407 619 388 614 l 399 642 l 392 638 m 96 185 q 88 157 82 169 q 175 203 126 175 l 96 185 m 385 250 q 416 256 400 253 q 447 264 432 260 l 442 286 l 385 257 l 385 250 m 71 600 q 68 583 68 594 q 115 597 92 590 q 161 610 138 603 l 154 614 l 71 600 m 326 501 q 366 513 346 508 q 406 524 386 518 l 408 532 l 336 518 l 326 515 l 326 501 m 356 451 l 372 469 l 322 460 q 317 439 319 446 l 356 451 m 114 367 q 155 379 133 374 q 199 389 176 385 q 174 390 186 389 q 150 393 161 392 l 114 372 l 114 367 m 136 154 q 170 161 153 157 q 207 168 188 165 q 207 186 210 176 q 176 172 192 179 q 144 158 160 165 l 136 154 m 497 275 q 492 292 494 283 q 485 307 489 300 l 468 300 q 478 271 472 290 l 497 275 m 146 58 q 160 53 153 56 q 176 47 168 50 l 200 64 l 196 69 l 146 58 m 100 110 q 111 90 104 100 q 138 102 125 96 q 167 115 151 108 q 132 109 149 111 q 100 110 115 107 m 322 653 l 325 639 q 358 652 342 646 q 386 665 374 658 l 386 667 q 362 661 374 664 q 339 657 350 658 l 322 653 m 369 324 q 395 328 382 326 q 421 333 408 331 l 411 349 l 369 325 l 369 324 m 376 297 l 381 281 q 393 286 388 283 q 396 289 399 289 q 414 299 406 293 q 431 308 422 304 l 376 297 m 329 579 l 329 568 l 408 596 l 379 590 l 329 579 m 136 699 q 160 699 147 699 q 186 701 174 700 l 190 718 l 136 699 m 444 108 q 421 105 433 106 q 396 103 408 104 l 396 89 l 440 101 l 444 108 m 449 631 q 433 658 443 644 l 426 656 l 435 626 l 449 631 m 507 214 q 506 222 507 218 q 506 232 506 226 l 486 222 l 486 210 l 507 214 m 113 669 l 108 658 l 164 678 l 160 678 l 113 669 m 453 78 q 431 50 443 63 l 442 57 q 474 83 464 71 l 453 78 m 446 338 q 463 340 457 340 q 439 357 453 350 l 431 360 l 429 358 q 438 349 433 353 q 446 338 442 344 m 479 146 q 492 148 486 147 q 504 149 497 149 q 505 151 504 150 q 506 153 506 151 q 507 163 506 160 l 482 156 l 479 146 m 354 368 l 358 357 l 388 371 l 383 375 l 354 368 m 83 664 q 68 661 79 664 l 60 643 q 68 646 64 644 q 78 650 72 647 l 81 650 l 83 664 m 313 711 q 313 706 313 708 q 314 701 314 704 l 342 715 q 338 718 340 715 l 313 711 m 367 424 q 408 447 388 432 l 383 439 l 367 424 m 464 571 l 464 581 l 438 571 l 438 567 l 464 571 m 456 203 q 455 207 456 206 q 454 210 454 208 l 410 193 l 456 203 m 181 588 l 133 575 l 175 579 l 181 586 l 181 588 m 443 483 l 411 478 l 407 469 l 443 483 m 160 642 l 179 644 l 179 651 l 150 642 q 156 640 154 642 l 160 642 m 339 683 l 368 689 l 363 696 l 339 683 m 433 538 l 431 531 l 446 536 l 464 542 l 464 543 l 433 538 m 389 222 q 390 219 389 219 q 390 215 390 218 l 417 226 l 389 222 m 454 143 q 455 146 454 144 q 456 149 456 147 q 437 144 446 146 q 419 139 428 142 l 454 143 m 407 64 q 397 61 401 63 q 389 58 393 60 l 385 49 l 407 64 m 419 165 q 407 163 413 164 q 394 163 401 163 l 394 158 l 419 165 m 219 114 l 208 107 l 219 108 l 219 114 m 478 114 q 469 113 475 113 l 469 110 l 481 114 l 478 114 m 446 508 q 456 510 451 508 l 456 511 l 446 508 m 221 36 q 218 39 221 36 q 215 36 218 39 l 221 36 z "},"4":{"ha":578,"x_min":25,"x_max":551,"o":"m 278 108 q 276 117 275 114 q 281 124 278 121 q 279 186 281 156 q 275 247 278 217 q 185 242 231 244 q 92 239 139 239 q 53 236 71 236 q 31 243 35 236 q 28 259 25 251 q 39 265 32 267 q 42 267 39 265 q 55 278 49 267 q 67 303 61 290 q 90 368 75 333 q 122 435 104 403 q 155 497 139 468 q 181 549 171 526 q 197 583 188 565 q 213 621 206 601 q 217 629 213 625 l 222 644 q 231 701 229 668 q 232 754 233 733 q 228 767 228 760 q 236 776 229 774 q 250 778 240 781 q 356 790 303 781 q 463 799 410 799 q 476 788 474 796 q 469 774 478 781 q 452 768 461 768 q 436 763 443 768 q 416 725 419 749 q 410 682 413 701 q 422 523 414 601 q 432 365 429 444 q 432 330 432 347 q 429 294 432 313 l 472 299 q 513 351 508 311 l 513 360 q 526 372 515 372 q 540 360 538 372 q 539 306 540 331 q 539 260 538 281 q 547 239 544 251 q 551 210 549 226 q 542 198 549 201 q 526 201 535 194 q 516 226 519 213 q 510 254 513 239 q 481 263 500 264 q 428 260 461 263 l 426 260 q 421 210 424 235 q 417 163 418 186 l 422 135 l 422 107 q 424 81 422 96 q 431 54 425 67 q 448 36 436 42 q 479 40 460 31 l 479 39 l 488 43 q 499 25 506 39 q 497 18 499 21 q 471 8 493 13 q 417 0 449 3 q 399 -1 408 -8 q 324 -6 363 -4 q 260 -10 286 -8 q 218 -12 240 -18 q 208 1 207 -10 q 221 15 208 13 q 224 15 222 15 q 226 14 225 14 q 233 17 229 17 l 243 17 l 271 39 q 277 51 275 46 q 282 64 279 57 l 282 94 l 278 108 m 263 667 l 238 618 l 233 607 l 232 607 l 226 590 l 206 542 l 206 536 l 197 519 q 165 432 181 475 q 131 346 150 389 q 109 307 122 326 q 90 267 96 288 l 107 267 q 166 277 136 271 q 219 286 196 283 q 272 290 244 290 q 271 302 271 297 q 271 314 271 307 q 269 441 267 378 q 268 567 272 504 l 263 667 m 307 167 q 347 172 326 169 q 389 178 368 175 q 390 179 389 178 l 388 203 l 306 183 q 306 175 306 179 q 307 167 307 171 m 368 749 q 328 742 347 746 q 289 735 308 738 l 285 722 l 285 713 q 310 721 297 717 q 336 731 324 725 l 368 742 l 368 749 m 389 128 q 347 119 367 124 q 307 108 326 115 l 307 103 l 390 110 q 389 119 389 114 q 389 128 389 124 m 288 669 q 289 653 288 658 l 368 678 l 368 685 l 333 681 l 288 669 m 376 307 q 336 304 356 306 q 299 300 317 303 l 299 290 l 349 290 q 363 293 356 292 q 376 297 369 294 l 376 307 m 372 424 q 334 418 353 421 q 296 413 315 415 l 296 394 l 372 417 l 372 424 m 328 554 q 296 544 310 550 q 297 537 296 540 q 297 529 297 533 l 381 560 l 381 564 l 328 554 m 303 242 q 344 243 324 243 q 383 243 364 243 l 382 257 q 344 253 363 254 q 306 250 325 251 l 303 249 l 303 242 m 307 76 l 307 58 l 390 82 l 307 76 m 294 589 q 308 594 300 592 l 375 614 q 374 615 375 615 q 374 617 374 615 l 296 604 l 293 603 q 294 589 293 593 m 326 39 q 324 38 325 38 q 356 39 340 38 q 388 40 372 40 q 389 54 388 50 q 358 46 374 50 q 326 39 342 42 m 296 443 l 374 453 l 374 463 l 296 443 m 379 528 l 322 508 l 379 515 l 379 528 m 342 483 q 319 479 329 481 q 297 478 308 478 l 297 471 l 342 483 m 399 339 l 404 340 l 404 349 l 399 346 l 399 339 m 256 725 q 258 732 258 731 l 258 751 l 257 751 q 257 738 257 744 q 256 725 257 732 m 399 388 l 403 389 l 403 396 l 399 394 l 399 388 m 296 349 l 296 346 l 315 351 l 296 349 m 400 310 l 400 304 q 404 306 403 304 l 404 310 l 400 310 m 356 643 q 363 644 358 643 q 369 644 367 644 l 369 647 l 356 643 m 304 215 l 304 213 l 317 215 l 304 215 m 374 338 l 374 340 l 363 338 l 374 338 m 363 385 l 372 385 l 372 388 l 363 385 m 399 424 l 401 425 l 401 428 l 399 428 l 399 424 z "},"5":{"ha":568,"x_min":28,"x_max":542,"o":"m 136 351 q 122 358 121 349 q 128 379 124 368 l 125 421 q 114 478 121 450 q 104 538 107 506 q 100 616 101 576 q 99 696 99 656 q 76 729 92 717 q 33 753 61 742 q 28 767 28 758 q 38 781 29 776 q 58 785 47 785 q 81 785 69 786 q 101 785 93 785 q 177 793 139 794 q 254 794 215 792 l 308 799 l 317 799 q 449 807 383 804 q 460 794 460 804 q 467 715 467 756 q 476 633 467 674 q 476 627 476 629 q 472 621 475 625 q 447 614 464 613 q 426 625 432 615 q 418 649 419 635 q 417 677 417 663 q 415 703 417 692 q 408 738 413 718 q 389 767 404 757 q 374 775 383 772 q 349 773 361 774 q 322 772 336 772 q 308 767 315 769 q 294 761 301 764 q 273 743 282 757 q 258 708 264 729 q 248 663 251 688 q 243 615 244 639 q 242 613 242 614 q 242 576 242 594 q 244 540 243 558 q 249 415 250 479 q 362 417 307 425 q 471 372 417 408 q 524 307 507 347 q 541 223 540 267 q 528 135 542 179 q 489 61 514 92 q 426 17 464 33 q 351 -10 388 0 q 282 -7 324 -15 q 185 7 231 -6 q 119 46 140 19 q 106 76 110 60 q 99 111 101 93 q 92 135 94 122 q 92 160 89 149 q 88 188 86 174 q 97 215 89 203 q 116 238 104 228 q 143 251 128 247 q 165 252 154 254 q 188 249 176 250 q 190 247 188 249 q 239 240 217 250 q 265 206 261 229 q 265 182 268 193 l 265 140 q 270 113 267 129 q 278 80 274 97 q 290 47 283 63 q 306 22 297 31 q 360 35 335 26 q 388 128 383 71 q 377 242 392 186 q 329 340 363 297 q 244 389 296 382 q 215 381 228 386 q 189 370 201 376 q 164 358 176 364 q 136 351 151 353 m 129 715 q 167 726 149 721 q 204 739 185 732 l 204 751 l 126 743 l 126 728 q 129 718 129 722 l 129 715 m 149 465 q 151 444 151 451 l 222 464 l 222 475 l 193 472 l 149 465 m 143 490 q 221 499 182 493 q 219 518 221 511 q 187 508 207 514 q 143 493 167 501 l 143 490 m 417 182 q 417 171 417 176 q 418 160 418 165 l 471 181 q 472 193 472 185 q 452 189 461 190 q 433 186 443 188 l 417 182 m 411 215 l 414 204 l 472 215 q 472 226 472 221 q 471 235 471 231 l 411 215 m 396 274 q 426 280 411 276 q 456 288 440 283 l 447 303 l 393 283 l 396 274 m 138 100 q 185 115 156 104 q 239 133 215 125 q 238 146 238 138 q 188 125 217 129 l 138 100 m 143 193 q 173 207 158 200 q 203 222 188 214 q 164 218 183 225 q 142 197 144 211 q 142 195 142 196 q 143 193 143 194 m 410 79 l 444 92 l 449 99 l 453 107 l 415 103 q 414 97 414 101 l 410 79 m 196 38 q 224 28 208 32 l 257 47 q 256 51 256 49 l 196 38 m 143 81 l 151 71 l 240 103 l 143 81 m 133 669 l 133 654 l 207 679 l 133 669 m 436 779 q 424 778 429 778 q 414 778 419 778 q 440 724 432 760 l 436 779 m 132 597 l 132 588 l 172 599 l 203 608 l 132 597 m 231 206 q 199 190 218 199 q 163 175 181 182 q 163 174 163 174 q 164 172 164 174 l 233 199 q 231 206 231 204 m 135 557 l 215 569 q 215 574 215 572 q 214 578 214 575 l 135 557 m 411 347 l 401 353 q 385 347 393 350 q 368 339 376 343 q 371 333 371 336 l 411 347 m 404 249 q 405 244 404 246 q 406 242 406 243 l 465 263 l 465 264 l 404 249 m 507 249 q 499 246 501 246 q 500 233 500 239 q 500 221 500 228 q 511 222 508 221 q 510 235 511 229 q 507 249 508 242 m 506 146 q 504 136 504 143 l 510 158 l 493 153 q 492 149 493 150 q 492 146 492 147 l 506 146 m 357 358 l 375 368 q 373 369 374 368 q 371 371 372 371 l 369 371 l 350 367 l 357 358 m 247 79 q 246 86 247 83 l 222 74 l 247 79 m 179 536 q 158 532 168 533 q 139 529 149 531 l 139 522 q 158 530 149 526 q 179 536 168 533 m 242 753 l 249 756 l 249 757 q 231 756 243 756 l 231 749 l 242 753 m 513 199 q 500 197 508 197 q 499 193 500 194 q 499 190 499 192 l 513 194 l 513 199 m 493 111 q 481 110 485 111 l 478 104 l 493 110 l 493 111 m 117 197 q 114 181 114 192 l 119 183 q 117 197 117 188 m 476 315 l 486 296 l 489 296 l 476 315 m 465 75 l 460 65 l 472 78 l 465 75 m 190 706 l 204 707 l 204 710 l 190 706 m 224 431 l 224 433 l 210 429 l 224 431 m 121 131 q 122 125 121 126 l 128 128 q 121 131 124 128 m 83 757 q 83 759 83 758 q 82 761 82 760 l 75 761 l 83 757 m 208 644 l 208 646 l 192 642 l 208 644 m 156 392 l 156 389 q 161 392 158 389 l 156 392 m 129 160 l 132 161 q 128 160 129 161 l 129 160 m 446 640 q 444 643 446 640 l 444 640 l 446 640 m 399 51 q 401 53 399 51 q 399 51 400 53 z "},"6":{"ha":575,"x_min":28,"x_max":553,"o":"m 247 785 q 359 781 311 796 q 453 707 407 767 q 472 678 463 696 q 483 644 481 660 q 485 619 489 632 q 471 595 481 607 q 447 574 461 583 q 415 560 432 565 q 399 554 407 554 q 355 553 375 549 q 324 575 335 557 q 317 590 318 582 q 315 606 315 597 q 310 641 311 622 q 305 678 308 660 q 294 715 301 697 q 269 747 286 732 q 252 735 258 747 q 244 708 246 724 q 241 676 242 692 q 240 654 240 661 q 236 576 238 614 q 235 497 235 538 l 257 503 l 271 507 l 276 507 q 393 488 340 510 q 483 428 446 467 q 536 336 519 389 q 547 225 553 283 q 527 163 544 197 q 483 97 510 129 q 426 40 457 64 q 368 8 396 15 q 323 -6 346 3 q 276 -11 300 -15 q 215 5 243 -4 q 156 39 186 14 q 145 49 150 44 q 136 61 140 54 q 82 117 103 92 q 49 173 61 143 q 32 241 36 203 q 29 335 28 279 q 33 426 31 379 q 44 519 36 474 q 58 589 49 557 q 84 655 68 622 q 123 714 100 688 q 176 759 146 740 q 247 785 207 778 m 326 465 q 286 469 306 472 q 253 409 263 450 q 242 321 243 368 q 245 230 240 274 q 256 163 250 186 q 265 126 260 146 q 278 90 269 107 q 300 58 286 72 q 335 39 314 44 q 369 72 358 53 q 376 121 375 93 q 376 176 378 149 q 373 230 375 204 q 369 272 371 256 q 368 307 368 292 q 367 337 368 322 q 365 366 367 351 q 361 400 364 381 q 354 429 358 411 q 342 461 350 447 l 326 465 m 158 403 q 114 392 135 397 q 74 381 93 386 q 74 376 74 378 q 75 372 75 375 q 76 356 75 360 q 117 369 96 363 q 158 382 138 375 l 158 403 m 164 478 q 117 463 140 471 q 69 449 93 456 q 69 438 69 443 q 71 426 69 432 q 92 435 82 431 q 114 444 103 440 q 137 452 125 449 q 163 460 149 456 q 163 469 163 465 q 164 478 164 474 m 507 204 q 467 192 486 199 q 426 181 447 185 q 426 168 426 174 q 424 156 425 163 l 501 182 q 507 204 504 190 m 174 547 q 118 535 143 540 q 74 524 93 529 q 71 507 71 513 q 70 501 71 504 q 69 496 69 499 l 172 542 q 173 544 172 543 q 174 547 174 544 m 515 269 q 473 259 494 265 q 429 246 451 253 l 429 228 q 472 242 450 235 q 515 256 493 249 l 515 269 m 167 279 q 134 267 151 272 q 100 256 117 263 q 101 253 100 254 q 104 238 104 242 q 137 247 121 242 q 168 257 153 251 q 167 267 168 263 q 167 279 167 272 m 169 621 l 182 625 q 183 629 182 628 q 183 633 183 631 l 96 611 l 88 586 l 169 621 m 160 354 q 120 341 140 347 q 81 328 100 335 q 83 317 83 319 l 163 339 q 160 347 161 343 q 160 354 160 350 m 419 361 q 474 385 450 372 l 464 397 l 415 383 l 419 361 m 178 199 q 145 188 161 193 q 114 176 129 183 q 117 163 117 168 l 182 183 l 178 199 m 158 704 l 135 678 q 164 686 150 682 q 192 696 178 690 l 196 714 q 182 711 188 711 l 158 704 m 204 118 q 173 105 189 111 q 142 92 157 99 l 151 83 l 210 104 l 204 118 m 126 119 q 160 133 143 126 q 193 147 176 140 q 190 156 193 150 l 122 133 l 126 119 m 81 551 q 128 565 104 558 q 176 578 153 572 l 179 593 q 163 588 171 590 q 149 582 156 585 q 114 567 131 575 q 81 551 97 560 m 444 649 q 409 628 426 638 q 374 610 392 619 l 453 632 q 454 639 454 633 q 444 649 450 644 m 93 293 q 96 283 93 289 l 168 307 l 168 308 q 167 311 168 310 q 167 314 167 313 l 93 293 m 193 289 q 192 276 193 282 q 193 264 192 271 l 215 268 l 215 297 l 193 289 m 324 699 l 328 686 l 397 726 l 324 699 m 469 124 q 442 118 456 121 q 415 113 429 115 q 413 101 415 110 q 439 109 425 106 q 465 117 453 113 l 469 124 m 364 644 q 353 629 357 638 q 381 644 367 636 q 414 663 396 651 q 411 664 414 663 l 364 644 m 225 78 q 202 70 214 74 q 178 63 190 67 l 186 56 l 229 72 l 225 78 m 221 214 q 203 207 213 211 l 206 192 l 225 196 l 221 214 m 222 375 q 213 371 217 372 q 203 368 208 369 l 199 350 l 219 356 q 220 365 219 361 q 222 375 221 369 m 424 331 q 459 342 442 336 q 494 354 476 349 l 490 361 q 453 344 471 351 q 424 332 435 338 l 424 331 m 58 239 l 61 224 q 71 226 67 225 q 79 229 75 228 q 78 238 79 233 q 78 246 78 242 l 58 239 m 190 485 l 188 468 l 208 475 l 208 489 l 190 485 m 419 708 q 404 699 413 703 q 388 689 396 694 q 406 690 399 692 l 428 699 l 419 708 m 461 285 q 487 291 474 288 q 514 297 500 294 q 513 308 513 301 l 461 285 m 247 46 q 234 41 240 43 q 221 36 228 39 l 231 32 q 243 35 238 35 q 256 38 249 36 l 247 46 m 214 415 q 213 411 214 413 q 213 408 213 410 l 210 400 q 228 407 217 401 l 231 418 l 214 415 m 403 583 q 417 589 410 589 l 432 599 l 379 582 q 390 581 383 581 q 403 583 394 581 m 71 274 l 67 285 l 54 279 q 53 282 54 279 q 53 274 53 278 q 54 268 54 271 l 71 274 m 229 128 l 236 113 q 244 115 239 113 l 240 132 l 229 128 m 167 228 q 138 219 151 224 q 108 208 124 214 q 109 207 108 207 q 110 206 110 207 l 167 228 m 85 194 q 84 197 83 196 q 83 201 85 199 l 69 197 q 72 188 69 193 l 85 194 m 399 239 q 399 228 399 233 q 400 218 400 224 q 404 219 401 219 l 404 239 l 399 239 m 396 439 l 400 432 l 400 431 l 415 440 q 414 441 414 440 q 413 442 414 442 l 396 439 m 218 157 q 232 163 224 160 q 231 165 232 164 q 231 167 231 165 l 215 163 l 218 157 m 93 154 q 90 167 90 163 l 83 163 l 88 153 q 91 153 90 153 q 93 154 92 154 m 208 603 q 206 601 208 603 q 205 593 206 597 q 204 583 204 589 l 208 585 l 208 603 m 207 518 l 207 525 l 194 518 l 194 515 l 207 518 m 401 297 q 397 297 399 297 q 394 296 396 296 l 394 288 l 401 290 l 401 297 m 406 60 q 394 58 399 60 l 390 50 l 406 60 m 217 328 q 194 322 208 325 l 194 318 l 217 326 l 217 328 m 185 665 q 170 660 178 663 q 156 656 163 658 l 185 661 l 185 665 m 231 447 l 236 449 q 238 456 238 451 q 235 454 238 456 l 231 447 m 56 317 q 53 315 53 317 l 53 308 l 57 310 l 57 313 l 56 317 m 368 747 q 364 749 367 749 l 353 743 l 368 747 m 315 754 q 303 749 311 751 q 304 746 303 747 l 315 754 m 254 88 q 252 87 253 86 q 250 86 251 88 q 253 82 253 83 q 256 83 256 82 q 254 88 256 86 m 426 301 l 440 308 q 433 306 436 306 q 426 304 429 306 l 426 301 m 185 438 l 185 436 l 192 438 q 193 440 193 439 l 185 438 m 201 739 q 207 740 204 739 q 208 743 207 740 l 201 739 m 211 639 q 210 637 211 638 q 210 635 210 636 l 211 635 l 211 639 m 200 72 q 208 74 199 72 l 200 72 z "},"7":{"ha":469,"x_min":29,"x_max":442,"o":"m 29 753 q 44 765 32 768 q 47 767 44 765 q 103 767 75 767 q 158 769 131 768 q 163 771 160 771 l 172 771 q 240 777 207 774 q 307 785 274 781 q 359 793 329 788 q 429 799 389 799 q 442 783 442 796 l 442 779 q 436 768 442 774 q 408 746 421 758 q 386 718 394 733 q 374 647 383 683 q 363 585 365 610 q 335 408 356 493 q 300 231 314 322 q 290 167 293 193 q 285 122 288 142 q 292 55 279 72 q 339 40 306 38 q 352 29 351 39 q 340 15 353 19 q 204 3 271 6 q 65 -4 138 0 q 54 11 53 0 q 67 24 56 22 q 125 63 108 29 q 135 101 129 86 q 136 114 135 110 q 157 235 147 175 q 175 354 167 294 q 178 388 176 368 q 183 431 181 408 q 190 474 186 453 q 199 510 193 494 l 204 539 q 216 599 210 569 q 229 658 222 628 q 214 713 229 686 q 175 744 199 740 l 119 740 q 93 723 100 735 q 86 696 86 711 q 90 662 86 681 q 93 624 93 643 q 78 603 93 613 q 65 599 71 600 q 53 596 60 599 q 33 607 38 592 q 29 680 29 643 q 29 753 29 717 m 218 438 q 268 449 242 443 q 318 461 294 454 q 321 478 318 467 l 219 457 q 219 447 219 451 q 218 438 218 443 m 167 125 q 210 125 189 125 q 253 126 231 125 l 257 126 l 261 157 l 168 126 l 167 125 m 361 736 q 313 719 338 728 q 264 704 288 711 q 263 699 264 701 q 263 694 263 697 l 358 714 l 361 736 m 293 340 q 249 335 271 338 q 206 329 228 332 q 205 319 206 324 q 203 310 204 315 q 249 320 226 315 q 292 331 272 325 q 292 335 292 333 q 293 340 293 338 m 247 628 q 246 621 247 622 q 294 628 269 624 q 343 638 318 632 q 344 646 343 643 q 342 650 342 649 l 247 628 m 190 226 q 275 247 232 235 q 276 249 275 249 q 276 251 276 250 q 235 248 256 250 q 194 246 214 246 l 190 226 m 267 190 l 181 179 l 176 161 l 267 188 l 267 190 m 338 607 q 339 614 338 611 q 290 603 315 608 q 240 594 265 599 l 238 582 l 338 607 m 353 685 q 257 665 301 671 q 254 651 254 657 l 351 681 l 353 682 l 353 685 m 247 71 q 208 59 228 64 q 169 49 189 54 l 244 53 l 247 71 m 325 507 q 326 519 326 511 l 225 497 l 325 507 m 224 97 q 192 96 208 96 q 161 96 176 96 l 160 90 l 161 89 l 157 76 l 224 97 m 282 285 q 285 300 285 296 l 210 281 l 282 285 m 335 581 q 292 567 311 574 q 257 558 272 561 l 333 567 q 335 581 335 571 m 308 411 q 261 402 285 407 q 214 394 238 397 q 213 383 213 392 l 308 411 m 242 750 q 229 749 235 750 q 217 749 224 749 q 229 733 224 742 q 239 715 235 725 l 242 750 m 268 738 q 267 733 268 735 q 267 729 267 732 q 293 738 281 733 q 318 747 306 742 l 332 751 l 268 738 m 54 739 l 54 724 q 59 723 57 724 q 64 722 61 722 q 71 739 65 728 l 54 739 m 300 369 q 301 378 300 375 l 257 365 l 300 369 m 61 628 q 60 641 61 633 q 58 657 60 649 l 54 653 l 57 628 l 61 628 m 382 769 q 385 757 385 761 l 397 771 q 390 770 393 771 q 382 769 386 769 m 58 697 l 54 697 l 54 689 l 58 693 l 58 697 m 254 217 q 262 217 257 217 q 271 218 267 218 l 271 221 l 254 217 m 269 40 l 269 36 l 274 36 l 269 40 z "},"8":{"ha":513,"x_min":22,"x_max":489,"o":"m 101 721 q 162 765 122 751 q 243 781 201 778 q 297 774 268 782 q 354 753 326 767 q 406 723 382 740 q 444 686 429 706 q 468 613 468 657 q 453 525 468 569 q 411 441 438 481 q 357 381 385 401 q 428 329 401 361 q 463 257 454 297 q 486 174 485 222 q 469 97 489 125 q 410 39 449 68 q 330 3 374 14 q 242 -8 286 -7 q 159 -1 199 -8 q 92 19 119 7 q 49 53 64 32 q 30 101 35 75 q 28 157 25 128 q 40 214 32 186 q 56 265 46 239 q 81 312 67 290 q 111 349 94 333 q 147 369 128 364 q 100 390 119 379 q 37 460 51 418 q 29 550 22 503 q 58 642 36 597 q 101 721 79 688 m 244 392 q 266 394 256 393 q 288 394 276 394 q 313 453 306 417 q 322 527 321 489 q 317 600 322 565 q 306 657 311 635 q 299 686 301 675 q 291 705 296 697 q 280 719 286 713 q 264 738 274 726 q 236 739 250 742 q 228 688 231 717 q 224 643 226 658 q 222 516 219 582 q 244 392 224 450 m 274 353 q 251 351 267 351 q 240 336 244 346 q 231 316 235 326 q 226 295 228 306 q 222 279 224 285 q 214 232 218 263 q 208 167 210 201 q 208 101 206 133 q 218 47 210 68 q 227 38 222 42 q 238 32 232 35 l 240 29 q 244 30 243 29 q 246 31 244 31 q 256 35 251 32 q 263 42 260 39 q 298 93 285 61 q 315 160 311 125 q 316 229 319 194 q 303 290 313 264 q 292 320 300 299 q 274 353 285 342 m 335 151 q 334 140 335 144 q 333 128 333 135 l 426 156 q 429 163 426 157 l 335 151 m 97 575 q 123 580 110 578 q 149 585 136 582 l 149 611 q 124 603 136 607 q 99 593 111 599 q 97 584 97 589 q 97 575 97 579 m 338 201 q 387 217 360 208 q 439 232 414 225 l 439 240 q 438 242 438 240 q 388 228 413 235 q 338 215 363 221 l 338 201 m 403 496 q 374 490 388 493 q 344 485 360 488 l 342 461 l 397 483 q 403 496 400 488 m 65 196 l 65 181 l 147 211 l 147 218 l 65 196 m 390 271 q 364 261 378 265 q 335 251 350 257 q 335 247 335 249 q 336 243 336 246 q 376 253 356 247 q 415 264 396 258 q 404 274 413 268 q 390 271 390 271 m 121 667 q 116 658 118 663 q 113 649 114 653 l 154 657 q 160 683 157 674 l 121 667 m 81 124 q 90 111 86 115 q 119 122 106 117 q 149 135 133 128 l 149 142 l 81 124 m 194 594 l 194 628 l 178 621 q 176 606 176 614 q 175 590 175 597 l 194 594 m 436 190 q 439 204 439 199 l 353 183 l 436 190 m 417 556 l 417 558 l 350 549 l 350 538 l 417 556 m 331 286 q 331 281 331 283 q 332 275 332 278 l 382 292 l 375 297 l 331 286 m 193 697 q 188 681 190 690 q 183 663 186 672 l 197 665 q 199 683 199 675 q 203 701 200 692 l 193 697 m 367 78 q 375 85 369 79 q 349 81 361 82 q 322 78 336 79 l 322 76 l 318 68 l 365 76 l 367 78 m 340 640 q 365 647 351 643 q 390 654 378 650 l 386 661 q 362 653 374 657 q 339 643 350 649 q 340 640 339 642 m 119 454 q 121 451 119 451 l 167 460 q 164 471 164 465 l 119 454 m 414 592 q 413 596 414 594 q 413 600 413 597 l 349 576 l 349 575 l 414 592 m 403 115 q 408 124 406 118 l 329 103 l 329 101 l 403 115 m 58 483 q 61 474 60 478 q 65 464 63 469 q 73 468 69 467 q 81 471 76 469 l 76 486 q 71 485 74 486 q 65 485 68 485 l 58 483 m 138 64 q 165 74 153 68 q 163 81 163 79 l 126 72 l 138 64 m 128 522 l 153 526 l 153 536 l 99 519 l 99 518 l 128 522 m 106 296 q 139 303 122 299 q 172 313 156 308 q 175 318 175 318 q 141 309 158 314 q 107 299 124 304 q 106 296 107 297 m 104 492 l 107 482 q 132 490 119 486 q 157 500 144 494 l 104 492 m 189 532 q 189 534 186 533 q 194 535 192 535 l 194 550 l 176 544 q 178 531 176 535 l 189 532 m 150 560 l 150 563 l 96 553 l 96 546 l 150 560 m 346 611 l 346 603 q 375 616 361 610 q 404 628 389 622 l 403 629 l 346 611 m 151 638 l 106 626 q 104 619 104 624 l 151 633 l 151 638 m 82 61 l 94 47 l 108 53 l 93 65 l 82 61 m 349 511 q 378 518 360 514 q 413 525 397 522 q 414 532 413 529 l 349 513 l 349 511 m 185 479 l 189 464 l 200 465 q 199 474 200 469 q 199 483 199 479 l 185 479 m 168 399 q 190 389 176 393 q 193 390 192 389 q 196 390 194 390 q 189 404 190 399 l 168 399 m 146 175 l 146 182 l 94 161 l 146 175 m 61 535 q 68 538 63 535 q 67 542 68 540 q 67 547 67 544 l 54 544 l 54 532 q 61 535 56 532 m 436 122 q 450 125 442 122 l 453 135 q 447 133 450 133 q 440 132 443 133 l 436 122 m 419 661 q 424 662 422 661 q 429 663 426 663 l 418 676 q 413 674 415 674 l 419 661 m 324 693 q 338 698 331 696 q 354 703 346 700 l 350 708 l 324 694 l 324 693 m 83 261 l 79 253 l 111 265 l 83 261 m 311 719 l 328 728 q 324 731 325 731 l 307 726 l 308 725 l 311 719 m 367 336 q 375 331 369 333 q 386 333 378 331 l 378 339 l 367 336 m 67 569 q 67 576 67 572 q 68 582 68 579 q 60 579 63 579 q 59 574 60 576 q 58 568 58 571 q 67 569 61 569 m 332 672 q 333 669 332 671 l 369 683 l 369 685 l 332 672 m 410 85 q 417 86 413 85 q 424 88 421 88 l 429 94 l 415 92 l 414 90 l 410 85 m 189 257 l 192 267 l 182 263 q 181 254 181 260 l 189 257 m 444 613 l 438 610 q 438 604 438 607 q 439 599 439 601 l 444 600 l 444 613 m 322 319 q 324 315 322 317 l 339 319 l 332 324 l 322 319 m 175 433 l 138 425 q 140 422 140 422 l 154 426 l 175 433 m 175 183 q 181 185 178 183 q 181 190 181 188 q 182 194 182 192 q 178 194 179 194 q 175 193 176 193 l 175 183 m 329 417 l 325 407 l 340 417 l 329 417 m 151 247 q 152 249 151 249 q 153 251 153 250 l 124 239 l 151 247 m 176 226 q 176 224 176 225 q 175 221 175 222 q 180 222 178 221 q 185 224 182 224 l 185 229 l 176 226 m 172 731 q 177 731 175 731 q 182 732 179 732 l 188 739 l 172 731 m 179 642 l 196 647 l 179 644 l 179 642 m 68 608 l 71 610 l 74 618 l 72 618 l 68 608 m 181 43 q 174 40 176 43 l 182 42 q 181 43 181 42 m 107 418 l 104 418 l 111 414 l 107 418 m 178 147 l 179 147 l 179 150 q 178 149 178 150 l 178 147 m 204 319 q 206 321 206 319 q 208 325 208 324 l 204 319 m 454 165 l 454 164 l 457 165 l 454 165 m 214 406 q 213 410 213 407 l 211 410 l 214 406 m 410 307 q 411 306 410 307 l 411 307 l 410 307 z "},"9":{"ha":567,"x_min":26,"x_max":542,"o":"m 388 785 q 397 779 396 782 q 421 763 411 774 q 439 740 431 751 q 490 668 475 699 q 514 597 506 638 q 528 523 524 561 q 533 449 532 485 q 534 441 533 444 q 535 435 535 438 q 538 306 542 365 q 515 193 535 246 q 478 86 503 138 q 406 0 454 35 q 339 -26 381 -18 q 255 -25 297 -33 q 175 10 213 -17 q 119 85 138 36 q 105 119 114 96 q 97 161 96 143 q 101 210 90 189 q 133 244 113 232 q 139 248 136 247 q 144 251 142 249 l 150 253 l 151 253 q 189 260 172 260 l 194 260 q 219 254 210 260 l 222 254 q 248 243 233 251 q 267 224 263 235 l 269 214 q 280 160 278 192 q 284 99 282 128 q 292 51 286 71 q 313 32 297 31 q 328 56 322 32 q 339 112 335 79 q 346 180 343 144 q 353 239 349 215 l 365 344 q 316 317 349 329 q 261 306 283 306 q 177 323 217 310 q 106 360 138 336 q 53 418 74 383 q 29 499 33 453 q 29 552 26 519 q 39 604 32 585 q 142 747 79 697 q 300 801 206 797 l 328 801 q 345 799 339 801 q 357 793 351 796 q 372 790 364 792 q 386 785 379 788 l 388 785 m 281 761 q 265 728 272 749 q 251 687 257 707 q 242 650 246 667 q 239 629 239 633 q 230 532 233 582 q 233 435 226 482 q 254 388 240 411 q 292 353 268 364 q 310 358 299 349 q 333 382 321 367 q 347 410 342 396 q 356 439 351 425 q 373 531 369 494 q 372 594 376 567 q 359 647 368 622 q 338 703 350 671 q 322 735 332 717 q 297 761 313 753 l 281 761 m 410 494 q 410 486 410 490 q 413 476 411 482 l 504 503 q 503 507 504 506 q 503 511 503 508 l 418 497 l 410 494 m 411 190 q 448 192 431 192 q 485 196 465 193 l 490 207 l 494 217 l 494 218 l 481 215 l 413 197 q 412 194 413 196 q 411 190 411 193 m 157 583 q 167 586 158 583 l 167 597 l 106 583 q 99 563 100 569 l 157 583 m 164 544 l 164 563 l 93 538 q 92 535 93 536 q 92 532 92 533 l 164 544 m 169 438 q 169 444 169 440 q 168 450 168 447 l 110 438 l 118 422 l 169 438 m 507 474 l 417 449 l 417 446 l 507 458 l 507 474 m 168 78 q 208 92 188 85 q 249 106 229 99 l 249 108 q 204 101 226 106 q 160 90 182 96 l 168 78 m 506 299 q 465 298 486 297 q 421 297 443 299 q 420 289 421 293 q 419 281 419 285 l 506 297 l 506 299 m 507 347 l 421 325 l 421 321 l 507 335 l 507 347 m 185 156 q 212 163 199 160 q 238 171 225 167 l 243 181 q 208 174 225 178 q 174 165 190 169 q 185 156 176 161 m 426 579 l 489 586 l 485 601 l 418 582 l 418 578 l 426 579 m 181 392 q 160 386 169 389 q 139 381 150 383 q 149 372 146 375 q 158 365 153 368 l 186 376 q 184 383 185 379 q 181 392 183 388 m 171 624 q 174 638 171 629 l 121 621 l 117 611 l 171 624 m 419 424 q 420 417 419 421 q 421 408 421 413 q 429 411 424 408 q 458 421 444 415 q 486 432 471 426 l 419 424 m 210 39 l 226 31 q 267 46 249 40 q 264 53 264 51 l 239 47 l 210 39 m 165 478 q 165 483 165 481 q 164 488 164 485 l 97 467 l 97 464 l 165 478 m 442 125 q 447 131 444 128 q 451 139 449 135 l 400 126 q 399 121 400 122 l 442 125 m 90 506 q 92 494 90 499 q 127 507 110 501 q 164 518 144 513 l 90 506 m 500 251 q 461 244 483 249 q 417 235 439 239 q 416 232 417 233 q 415 228 415 231 l 500 250 l 500 251 m 174 229 q 167 211 169 224 q 199 228 189 219 q 201 231 201 231 q 188 231 194 232 q 174 229 181 231 m 68 554 l 75 578 l 60 575 q 56 550 56 563 l 68 554 m 181 667 q 182 669 182 668 q 183 674 182 671 l 150 668 q 140 654 144 663 l 181 667 m 464 653 l 460 663 l 419 649 l 419 644 l 464 653 m 206 553 q 206 564 206 558 q 207 576 206 569 l 194 572 q 193 561 193 567 q 193 550 193 556 l 206 553 m 421 361 l 421 351 q 451 359 436 356 q 481 365 465 363 l 421 361 m 110 657 q 101 655 106 656 q 90 651 96 654 q 85 644 88 649 q 82 638 83 640 l 101 643 l 110 657 m 200 631 q 214 633 206 631 q 215 642 214 638 q 217 651 215 646 l 203 647 l 200 631 m 163 722 q 173 732 168 728 q 183 740 178 736 l 172 738 q 143 717 156 729 l 163 722 m 74 431 q 83 415 79 419 q 84 413 83 414 q 85 411 85 413 l 93 414 l 85 433 l 74 431 m 201 200 q 221 203 211 201 q 242 208 231 206 q 236 218 239 214 q 219 208 228 213 q 201 200 210 204 m 414 547 q 413 540 414 543 l 475 558 l 414 547 m 154 146 q 149 152 151 149 q 146 158 147 156 l 129 154 q 150 143 139 144 l 154 146 m 69 486 q 68 500 68 492 q 54 497 63 500 l 57 482 l 69 486 m 415 685 q 417 676 417 682 l 444 686 q 442 690 444 688 l 415 685 m 446 167 q 426 165 435 165 q 407 165 417 165 q 406 157 406 163 q 425 162 415 160 q 446 167 435 164 m 386 296 q 385 285 386 290 q 383 272 383 279 l 390 274 q 392 285 392 281 q 392 296 392 290 l 386 296 m 389 681 q 375 678 381 678 q 381 665 378 674 q 392 668 389 668 l 389 681 m 421 611 l 474 629 l 421 617 l 421 611 m 378 154 q 379 163 378 160 l 368 163 l 365 149 q 376 151 371 149 q 378 154 376 151 m 508 400 l 508 408 l 475 397 l 508 400 m 203 18 l 185 31 l 179 29 q 196 15 190 18 l 203 18 m 203 499 q 193 496 194 496 l 193 483 q 203 485 199 483 l 203 499 m 367 731 q 356 729 364 729 l 360 718 l 372 722 q 367 731 369 728 m 218 400 q 208 397 213 397 q 214 385 211 389 q 224 388 219 388 q 218 400 221 392 m 375 217 q 386 219 378 217 q 388 229 386 226 q 383 228 385 229 q 378 228 381 228 l 375 217 m 136 200 q 139 214 136 206 q 124 196 126 204 l 136 200 m 403 83 q 406 87 404 86 q 410 90 407 88 l 390 88 q 389 81 390 83 l 403 83 m 204 449 q 203 457 203 451 l 194 456 q 195 451 194 453 q 196 446 196 449 l 204 449 m 363 85 l 356 85 l 353 74 l 360 75 l 363 85 m 72 604 q 83 606 79 604 q 86 611 86 608 l 68 606 q 67 603 68 604 q 72 604 71 603 m 417 60 q 422 60 419 60 q 428 61 425 61 l 433 68 l 426 67 l 422 65 q 419 63 419 64 q 417 60 418 61 m 354 0 l 374 10 l 343 0 l 354 0 m 210 674 l 221 678 q 222 679 221 679 q 222 681 222 679 l 210 679 l 210 674 m 196 597 q 203 601 199 600 q 210 603 207 601 l 210 606 q 197 603 201 603 q 197 600 197 601 q 196 597 196 599 m 281 15 q 278 19 278 18 l 268 15 q 272 14 269 14 q 276 15 275 14 q 281 15 278 15 m 236 136 l 247 139 l 247 144 l 236 136 m 232 714 q 222 711 228 714 l 221 710 l 231 711 q 232 714 231 713 m 392 344 l 394 344 l 394 358 l 392 344 m 257 76 q 247 73 251 74 q 238 69 242 72 l 257 75 l 257 76 m 53 524 q 67 526 58 524 l 67 528 l 53 524 m 360 115 q 365 116 363 115 q 371 117 368 117 q 372 118 371 118 q 372 119 372 118 l 360 115 m 396 638 l 396 642 q 393 640 394 642 q 394 638 393 640 l 396 638 m 385 31 q 381 30 382 31 q 378 29 379 29 l 376 28 l 385 31 m 76 460 q 74 458 75 458 l 76 458 l 76 460 z "},"O":{"ha":603,"x_min":24,"x_max":582,"o":"m 238 774 q 363 769 313 783 q 444 736 414 754 q 526 647 496 706 q 569 522 557 589 q 576 387 582 454 q 551 271 571 319 l 536 236 q 494 136 521 182 q 429 60 468 90 q 377 22 406 36 q 313 8 349 8 q 303 7 310 7 l 294 7 q 173 27 222 4 q 93 92 124 50 q 47 188 63 133 q 28 303 32 243 q 28 425 24 364 q 40 539 32 486 q 56 597 44 567 q 82 654 67 626 q 92 676 86 668 q 117 710 99 697 q 151 738 135 722 l 154 739 q 238 774 194 768 m 308 736 q 278 737 294 746 q 240 704 263 728 q 225 667 232 688 q 212 625 218 646 q 201 585 206 604 q 193 553 196 565 l 188 525 q 180 378 181 451 q 192 233 179 306 q 207 149 197 197 q 240 65 217 100 q 279 44 257 50 q 329 44 301 38 q 339 50 333 44 q 350 78 346 63 q 356 111 354 94 q 360 143 358 128 q 361 169 361 158 q 363 258 363 211 q 361 352 363 304 q 357 446 360 400 q 350 532 354 492 q 345 581 347 553 q 340 637 343 608 q 329 692 336 665 q 308 736 322 718 m 510 608 l 389 572 q 390 560 389 564 l 518 590 l 510 608 m 463 676 q 419 662 440 669 q 376 646 397 654 q 377 642 376 643 q 378 638 378 640 l 476 661 l 463 676 m 403 285 q 466 301 435 293 q 529 318 497 308 l 529 319 q 466 312 497 315 q 403 301 435 308 l 403 285 m 404 232 q 403 224 404 228 q 403 214 403 219 l 508 246 q 509 248 508 247 q 510 251 510 249 l 404 232 m 538 494 l 399 449 q 399 443 399 446 q 400 438 400 440 q 467 463 429 449 q 538 488 506 478 l 538 494 m 538 439 l 408 393 q 473 406 440 397 q 538 424 506 415 l 538 439 m 158 526 q 161 543 158 532 l 65 506 l 65 499 q 112 513 89 506 q 158 526 135 519 m 71 321 l 149 356 l 149 364 l 68 336 l 71 321 m 192 692 l 119 660 q 115 653 117 657 q 110 646 113 650 q 147 660 129 653 q 185 674 165 667 l 192 692 m 532 347 q 532 356 532 351 q 533 365 532 361 q 494 354 514 360 q 454 342 474 349 l 440 336 l 532 347 m 103 214 q 110 196 104 206 l 160 221 q 159 227 160 224 q 158 233 158 231 q 130 223 143 228 q 103 214 117 218 m 69 535 q 109 552 85 542 q 165 575 133 563 l 165 576 l 74 554 l 69 535 m 403 354 l 536 397 l 536 399 l 403 365 l 403 354 m 535 525 q 466 506 499 517 q 397 485 433 496 l 397 475 q 465 500 429 488 q 535 524 500 513 l 535 525 m 486 193 l 400 168 l 400 157 l 482 186 l 486 193 m 88 256 l 151 283 l 151 292 l 83 267 l 88 256 m 438 697 q 434 700 435 699 q 432 703 433 701 q 397 694 414 699 q 365 685 381 689 q 368 674 368 676 q 403 685 386 681 q 438 697 421 690 m 433 106 l 388 90 l 379 69 l 413 83 q 415 85 414 83 l 433 106 m 393 531 q 394 527 393 528 q 394 525 394 526 l 526 563 l 526 564 l 393 531 m 61 397 l 150 433 l 150 435 l 61 406 l 61 397 m 383 608 q 384 605 385 606 q 385 601 383 604 q 440 618 413 610 q 496 633 468 626 q 494 635 496 635 l 383 608 m 63 471 l 63 463 l 150 499 l 99 483 l 63 471 m 149 326 q 113 313 131 319 q 75 299 94 306 q 76 297 75 297 q 76 294 76 296 l 150 321 q 149 324 150 322 q 149 326 149 325 m 178 139 l 151 126 l 160 115 l 182 124 l 178 139 m 149 399 q 101 380 124 388 q 64 367 79 372 l 64 364 q 106 377 85 371 q 149 390 128 383 l 149 399 m 175 58 q 163 70 168 64 q 150 83 157 76 l 142 79 q 150 69 146 74 q 160 60 154 64 q 165 54 161 56 l 175 58 m 396 132 q 394 124 396 126 l 460 143 l 460 144 l 396 132 m 151 461 l 151 469 l 81 440 l 151 461 m 375 738 l 342 729 l 347 722 l 388 735 l 375 738 m 121 596 q 119 594 119 596 l 169 607 l 169 614 q 121 596 143 606 m 79 204 q 76 203 76 204 q 74 203 75 203 q 81 182 75 196 q 88 185 82 182 l 79 204 m 197 78 q 189 99 190 88 l 179 94 l 197 78 m 133 104 q 126 114 128 110 l 118 110 q 125 100 124 104 l 133 104 m 160 710 l 193 724 l 171 719 l 164 714 l 160 710 m 61 258 q 58 257 60 257 q 61 243 58 251 q 65 244 63 244 l 61 258 m 135 150 l 172 168 l 172 169 l 135 151 l 135 150 m 103 136 l 110 139 l 110 140 l 103 138 l 103 136 m 51 289 q 52 287 51 288 q 53 285 53 286 l 54 286 q 53 288 54 288 q 53 289 53 288 l 51 289 m 93 613 l 97 615 l 93 614 l 93 613 m 201 39 q 199 40 200 39 q 197 40 199 40 l 196 40 q 201 39 197 39 z "}," ":{"ha":218,"x_min":0,"x_max":0,"o":""},"B":{"ha":579,"x_min":-1,"x_max":571,"o":"m 125 578 q 125 625 125 601 q 126 672 125 649 q 113 726 124 704 q 68 754 103 749 q 44 746 51 751 q 34 731 36 740 q 33 712 32 722 q 33 689 33 701 l 38 689 q 48 692 43 692 q 57 696 53 693 l 53 715 q 67 731 56 731 q 81 715 78 731 q 82 699 81 706 q 82 685 83 692 q 75 674 81 679 q 56 665 69 669 q 15 671 29 658 q 0 704 1 683 q 10 746 -1 731 q 39 769 21 761 q 80 781 57 778 q 124 788 103 785 l 131 790 q 135 789 133 790 q 185 794 161 792 q 225 801 210 797 q 233 807 226 804 q 249 801 239 807 q 261 789 258 796 q 264 776 264 781 q 335 779 300 783 q 401 756 371 775 q 421 742 414 747 q 433 733 428 738 q 444 722 439 728 q 458 704 450 715 q 468 685 465 697 q 474 663 471 674 q 480 608 479 636 q 474 555 481 581 q 451 507 467 529 q 410 469 436 485 q 404 466 407 467 q 399 463 401 465 l 425 457 q 505 410 471 446 q 555 327 539 374 q 565 231 571 281 q 526 144 560 182 q 506 120 514 129 q 488 103 497 111 q 468 88 479 96 q 440 71 457 81 q 396 53 426 63 q 382 50 388 50 q 294 39 339 40 q 293 29 294 32 q 294 26 293 28 q 294 24 294 25 q 297 12 299 19 q 286 1 296 4 q 239 1 263 -3 q 190 3 215 4 l 83 3 q 69 11 72 3 q 69 13 69 13 q 68 14 68 13 q 69 22 68 19 q 82 31 71 28 l 85 31 q 126 63 115 33 q 140 136 138 92 q 136 256 136 192 q 134 278 135 267 q 133 301 133 290 q 132 307 132 303 l 131 339 q 109 377 124 363 q 83 390 94 392 q 76 386 78 388 q 74 385 75 385 q 56 390 63 382 q 57 407 49 397 q 63 408 57 407 l 63 410 l 78 415 q 115 458 104 429 q 125 507 125 488 l 125 578 m 350 88 q 381 88 364 85 q 407 101 397 92 q 417 152 413 119 q 421 222 421 185 q 415 298 421 260 q 398 367 410 336 q 367 415 386 397 q 319 432 347 433 q 306 413 310 422 l 303 408 q 294 367 297 389 q 292 338 292 344 q 288 304 289 319 q 286 274 286 289 l 286 267 q 289 203 285 233 q 307 139 293 174 q 326 101 314 118 q 350 88 339 92 m 281 665 q 283 624 283 644 q 282 585 282 604 l 293 526 l 293 535 q 296 522 296 528 q 299 508 296 515 q 316 490 306 497 q 342 489 326 482 q 357 506 354 496 l 371 565 q 372 569 371 568 l 367 633 q 364 660 367 643 q 358 688 361 676 q 354 703 357 693 q 353 707 351 713 q 338 725 346 717 q 321 735 331 733 q 301 724 311 731 l 301 722 q 288 697 293 711 q 281 665 283 683 m 243 633 q 242 641 243 638 q 242 649 242 644 q 196 634 218 642 q 154 618 174 626 l 154 610 q 199 619 176 613 q 243 633 221 626 m 250 381 q 251 390 250 386 q 251 400 251 394 l 165 364 q 165 360 165 361 q 164 357 164 360 q 207 367 186 361 q 250 381 228 374 m 247 281 q 206 264 226 272 q 164 250 185 256 l 164 229 q 206 250 185 240 q 247 271 228 260 l 247 281 m 442 267 q 486 288 464 278 q 531 306 508 297 l 531 307 q 483 298 507 303 q 439 290 460 293 l 442 267 m 164 281 q 206 294 185 286 q 247 308 226 301 q 248 317 247 313 q 249 326 249 322 l 207 307 q 185 296 196 300 q 164 285 175 292 l 164 281 m 242 708 q 241 710 242 710 q 240 713 240 711 l 240 724 l 161 693 l 161 688 q 201 695 181 690 q 242 704 221 700 l 242 708 m 168 167 q 167 163 168 164 q 167 158 167 161 q 208 178 186 169 q 249 197 229 186 l 249 207 q 208 190 228 199 q 167 175 188 182 l 167 171 q 167 169 167 169 q 168 167 168 168 m 160 751 q 161 743 161 750 q 199 750 181 746 q 238 758 218 754 l 239 760 q 238 766 239 763 q 238 772 238 769 q 201 763 222 768 q 160 751 181 758 m 260 81 q 258 89 258 83 l 246 85 q 208 67 226 78 q 169 49 189 57 l 169 36 q 213 61 189 51 q 260 81 236 71 m 453 642 q 397 621 428 631 q 398 615 397 618 q 399 610 399 613 l 456 628 l 453 642 m 513 354 q 481 340 497 347 q 450 325 464 332 l 501 335 q 521 338 507 335 l 513 354 m 531 222 q 488 208 508 215 q 449 192 467 201 q 490 201 469 196 q 525 208 511 207 l 526 208 l 531 222 m 251 154 q 251 160 251 157 q 250 167 250 164 l 167 128 l 251 154 m 513 172 q 513 174 513 174 q 514 176 514 175 q 478 167 496 172 q 443 160 460 163 l 443 150 q 477 161 460 157 q 513 172 494 165 m 253 528 l 242 524 q 203 508 222 517 q 165 490 183 500 q 207 506 185 497 q 253 521 229 514 l 253 528 m 431 528 q 436 536 433 531 l 393 525 q 390 514 393 522 l 431 528 m 204 442 q 217 443 211 443 q 229 446 222 443 l 253 450 l 253 464 l 204 442 m 456 603 l 400 586 l 400 579 l 456 597 l 456 603 m 296 68 q 308 68 303 68 q 321 69 314 68 q 310 79 313 75 q 302 88 306 83 q 296 97 299 93 l 294 97 q 295 82 294 89 q 296 68 296 75 m 414 400 l 451 418 q 450 419 450 418 q 408 413 431 418 l 414 400 m 397 725 q 385 722 390 724 q 374 718 379 719 l 378 706 l 407 718 l 397 725 m 167 396 l 215 417 q 191 413 204 414 q 167 408 178 411 l 167 396 m 438 101 q 486 136 461 113 q 463 124 475 131 q 439 111 451 118 l 440 108 q 439 104 439 106 q 438 101 439 103 m 393 657 q 394 650 393 651 l 444 668 l 444 671 l 393 657 m 296 754 q 283 753 289 754 q 271 751 278 753 l 274 746 l 271 732 q 272 731 271 731 q 272 729 272 731 q 286 746 281 740 l 296 754 m 388 679 q 409 688 399 683 q 428 696 419 693 q 425 700 428 697 l 386 685 q 388 679 386 681 m 128 400 q 127 413 128 407 q 126 426 126 419 l 117 415 l 113 410 q 120 406 117 408 q 128 400 124 403 m 182 556 q 214 565 197 560 q 247 576 231 571 l 247 581 q 214 568 231 574 q 182 556 197 563 m 168 97 l 254 119 l 168 101 l 168 97 m 444 219 l 493 239 l 444 226 l 444 219 m 449 564 q 450 569 450 565 q 399 557 433 564 q 397 554 399 556 l 449 564 m 449 388 l 482 394 q 479 398 481 397 q 475 401 478 399 l 449 388 m 190 331 q 177 328 183 329 q 164 328 171 328 l 164 319 l 190 331 m 157 651 l 186 661 q 172 659 179 660 q 157 658 164 658 l 157 651 m 156 582 q 156 578 156 579 q 157 575 157 578 l 183 585 q 169 583 176 583 q 156 582 163 582 m 429 351 q 431 346 431 350 l 443 351 l 429 351 m 126 761 l 118 761 l 126 753 l 126 761 m 144 39 q 139 31 142 36 l 144 31 l 144 39 m 265 31 l 254 26 l 265 26 l 265 31 m 167 458 l 174 463 l 167 461 l 167 458 m 288 467 q 285 469 288 467 q 285 467 285 468 q 286 465 286 467 l 288 467 m 292 539 q 292 537 292 538 q 293 535 293 536 q 292 539 292 538 z "},"C":{"ha":594,"x_min":28,"x_max":571,"o":"m 485 339 q 496 329 493 336 q 549 296 535 325 l 553 290 q 561 276 556 282 q 567 260 567 269 q 568 225 571 243 q 561 189 565 207 q 485 72 539 111 q 468 58 478 64 q 449 46 458 53 q 386 16 421 29 q 315 -2 351 3 q 244 1 279 -7 q 182 35 210 8 q 128 98 154 61 q 83 175 103 135 q 50 258 64 215 q 32 338 36 300 q 28 398 28 365 q 32 465 28 431 q 43 531 36 499 q 58 590 50 564 q 64 612 63 601 q 67 631 65 622 q 72 649 68 640 q 82 668 75 658 q 130 717 101 697 q 189 753 158 736 q 241 776 217 767 q 292 789 265 786 q 296 792 294 792 q 300 793 297 792 l 322 790 q 396 771 361 789 q 413 768 401 771 q 446 746 431 761 q 474 712 461 731 q 494 672 486 693 q 506 633 501 651 q 510 613 507 625 q 517 590 514 601 q 519 566 519 578 q 515 546 519 554 l 515 544 q 512 516 514 531 q 500 492 510 501 q 469 475 488 476 q 433 475 451 474 q 382 488 401 478 q 352 513 363 499 q 340 542 342 526 q 346 574 339 558 q 345 629 347 601 q 335 685 343 657 q 323 717 331 700 q 297 738 315 735 l 296 738 q 287 731 293 735 q 274 724 281 728 q 260 716 267 719 q 253 710 254 713 q 231 642 233 675 q 232 577 228 610 q 242 510 236 544 q 246 436 247 475 q 242 378 244 408 q 237 317 239 347 q 235 262 235 288 q 238 221 235 236 q 250 152 244 189 q 271 83 256 115 l 282 75 q 303 58 293 65 q 324 49 314 51 q 353 60 339 51 q 379 81 368 69 q 384 92 382 86 q 389 106 386 99 q 395 161 396 122 q 393 242 394 200 q 389 256 390 249 q 388 272 388 264 q 389 289 383 282 q 396 306 390 294 q 413 323 401 317 q 438 332 425 329 q 464 336 451 335 q 485 339 476 338 m 74 535 q 73 528 74 532 q 72 522 72 525 l 181 551 q 182 569 181 563 q 127 553 154 561 q 74 535 100 546 m 90 603 l 189 629 l 193 650 q 144 633 169 642 q 94 614 118 624 l 90 603 m 69 450 q 70 439 69 444 q 72 426 71 433 q 126 451 99 439 q 179 475 153 464 q 119 463 149 469 q 69 450 89 457 m 138 681 l 208 697 q 215 713 211 706 q 224 728 219 721 l 154 700 l 138 681 m 96 324 q 138 333 117 329 q 178 342 158 338 l 178 365 l 146 351 l 96 325 l 96 324 m 179 425 l 179 442 q 126 419 153 431 q 76 397 100 408 l 76 396 q 117 408 97 403 q 151 418 136 414 l 179 425 m 90 349 q 135 371 114 360 q 178 393 157 382 l 82 364 l 90 349 m 368 656 q 369 653 368 654 q 369 650 369 651 q 413 669 390 660 q 458 689 435 679 l 451 701 l 368 656 m 108 182 q 111 176 108 179 q 150 190 131 183 q 189 204 169 197 q 188 210 189 207 q 188 217 188 214 q 148 200 168 208 q 108 182 128 192 m 467 579 q 460 582 461 582 q 419 562 440 572 q 378 542 399 551 l 382 531 q 424 555 401 542 q 467 579 446 568 m 471 103 l 415 85 l 410 74 l 406 67 l 464 93 l 471 103 m 82 572 q 81 567 81 571 q 132 583 106 575 q 185 599 158 590 l 185 600 l 82 576 l 82 572 m 126 149 q 132 140 129 143 l 197 169 q 196 172 197 169 q 159 160 176 165 q 126 149 142 156 m 485 201 q 464 193 474 194 q 446 186 454 190 q 429 179 438 182 l 429 176 l 494 193 l 494 206 l 485 201 m 181 278 q 180 285 181 282 q 179 293 179 289 q 161 281 169 286 q 144 272 153 275 l 125 261 q 153 269 139 264 q 181 278 167 274 m 428 139 l 493 164 l 493 168 l 428 147 l 428 139 m 399 744 l 361 711 l 413 736 l 400 744 l 399 744 m 100 294 l 100 281 l 132 297 l 150 307 l 100 294 m 540 225 l 519 215 l 519 199 l 536 203 l 540 225 m 144 121 l 144 119 q 206 142 178 131 q 204 144 204 143 q 203 149 204 146 l 143 121 l 144 121 m 104 225 q 103 219 104 222 q 103 213 103 215 q 133 226 117 221 q 165 239 150 232 q 133 232 149 235 q 104 225 118 229 m 221 436 q 222 447 221 442 q 221 460 222 453 l 207 453 l 207 432 q 221 435 215 435 l 221 436 m 371 617 q 372 611 371 614 q 372 606 372 608 l 424 638 l 371 617 m 217 385 q 206 379 208 382 l 206 349 q 209 349 208 349 q 213 350 210 350 l 217 385 m 444 615 q 450 615 447 615 q 456 614 453 614 l 481 625 l 478 633 q 463 626 469 629 q 451 619 456 622 l 444 615 m 418 279 l 421 275 l 421 272 q 449 282 435 278 q 476 293 463 286 l 418 279 m 300 36 q 281 44 289 39 q 270 40 275 42 q 260 35 265 38 q 279 34 269 33 q 300 36 289 35 m 163 99 l 168 92 q 188 103 178 97 q 208 113 197 108 l 163 99 m 522 285 q 510 278 515 282 q 497 272 504 275 q 492 269 494 271 q 488 267 490 268 l 526 278 l 522 285 m 239 88 l 236 90 l 192 71 q 194 69 193 69 l 239 88 m 340 738 q 350 744 346 740 q 360 753 354 749 q 356 754 357 753 l 336 743 l 340 738 m 65 339 q 56 356 61 344 l 53 356 l 56 342 q 57 333 56 336 l 65 338 l 65 339 m 208 286 q 209 300 208 293 q 210 314 210 307 l 206 311 q 206 298 206 304 q 207 285 206 292 l 208 286 m 111 511 q 92 503 103 508 q 69 494 82 499 l 69 493 q 90 501 81 497 q 111 511 100 506 m 435 501 q 442 500 436 500 l 451 508 l 435 501 m 214 513 q 207 511 208 513 l 207 508 l 214 510 l 214 513 m 518 149 l 514 147 q 513 142 514 143 l 514 142 l 518 149 m 115 653 q 115 651 115 651 q 114 650 114 651 l 124 653 l 115 653 m 163 500 l 179 503 l 179 504 l 163 500 m 518 174 l 528 178 l 518 175 l 518 174 m 481 133 q 489 136 483 133 l 481 133 m 457 225 l 458 225 l 460 226 l 457 225 z "},"D":{"ha":647,"x_min":-1,"x_max":622,"o":"m 133 635 q 127 672 131 654 q 119 710 124 690 q 92 732 110 726 q 81 733 83 732 l 72 733 q 65 735 67 733 q 40 729 50 735 q 29 700 29 724 q 30 688 29 694 q 33 675 31 681 q 48 672 39 669 q 63 679 57 674 q 67 691 68 685 q 53 699 67 697 q 44 705 46 700 q 42 714 42 710 q 48 721 43 718 q 60 722 53 724 q 90 703 85 718 q 89 672 96 688 q 65 647 82 657 q 31 646 49 638 q 6 672 13 654 q 1 708 -1 689 q 13 742 3 726 q 40 763 24 757 q 60 764 50 765 q 81 761 69 763 l 83 761 q 116 766 100 763 q 150 772 132 769 q 162 785 153 785 q 174 775 171 786 q 309 775 244 782 q 440 740 374 768 q 465 724 460 733 q 485 700 469 715 l 497 686 q 533 656 517 671 q 556 633 550 640 q 584 576 575 599 q 600 524 593 554 q 622 378 621 454 q 608 238 622 303 q 589 174 603 206 q 588 172 589 172 q 580 151 585 161 q 567 131 575 140 q 563 126 564 128 q 560 124 563 125 l 549 110 q 476 56 519 78 q 385 22 433 35 q 286 4 336 8 q 193 6 236 0 l 164 6 q 144 5 154 6 q 124 6 135 4 q 104 8 113 6 q 86 13 96 10 l 81 13 q 65 14 71 13 q 55 26 54 17 q 68 39 56 36 q 81 38 76 39 q 119 53 106 39 q 140 88 133 67 q 147 133 146 108 q 147 179 147 157 l 147 183 q 147 209 147 196 q 146 235 147 222 l 146 236 q 143 273 146 253 q 133 310 140 293 q 113 340 126 328 q 79 351 100 351 q 72 365 72 357 q 78 374 71 372 q 105 382 94 376 q 120 399 115 388 q 127 430 125 411 q 131 478 129 449 q 130 483 131 481 q 129 488 129 485 q 121 499 121 492 q 128 510 121 507 l 128 521 q 129 553 128 540 q 132 578 131 567 q 134 603 133 590 q 133 635 135 615 m 324 150 q 325 124 324 136 q 328 97 326 111 q 340 70 332 82 q 363 57 347 58 l 365 57 q 375 58 368 58 q 402 85 393 64 q 416 133 411 107 q 422 183 421 158 q 428 222 424 208 q 433 300 435 251 q 424 403 431 349 q 410 513 418 458 q 399 608 403 568 q 398 653 396 633 q 393 692 400 672 q 342 732 368 724 l 340 732 q 326 725 332 729 q 315 714 321 721 l 314 713 q 306 678 308 696 l 306 676 q 304 619 307 643 q 303 563 301 594 q 313 512 308 540 q 319 456 318 483 q 317 402 319 428 q 311 350 314 376 q 312 308 311 329 q 313 265 313 288 q 317 208 313 238 q 324 150 322 178 m 281 314 q 280 321 281 317 q 279 329 279 325 q 226 313 256 321 q 171 297 197 306 l 171 283 q 228 297 200 290 q 279 310 257 304 q 280 312 279 311 q 281 314 281 313 m 279 375 q 223 365 251 369 q 171 354 194 360 l 171 332 q 231 351 201 343 q 279 367 260 360 l 279 375 m 547 581 l 469 551 q 470 545 469 549 q 471 539 471 542 q 513 551 492 544 q 554 561 533 557 l 551 572 l 547 581 m 174 221 q 174 217 174 218 q 175 214 175 217 l 279 239 q 278 247 279 243 q 278 256 278 251 q 224 238 250 247 q 174 221 197 229 m 561 200 q 563 210 563 206 q 564 219 564 214 q 528 208 546 214 q 490 194 510 201 q 490 186 490 190 q 489 179 489 182 l 561 200 m 175 710 l 271 740 l 271 746 l 263 746 q 217 736 239 740 q 175 726 196 732 l 175 710 m 475 388 q 536 405 508 397 q 575 417 564 413 l 590 421 l 590 428 q 532 412 561 421 q 475 396 503 403 l 475 388 m 581 346 q 538 336 564 343 q 483 322 511 329 l 483 313 l 590 342 l 590 346 l 581 346 m 281 213 q 227 199 253 206 q 176 186 201 192 l 176 169 l 281 211 l 281 213 m 479 353 q 536 367 507 360 q 593 379 565 375 l 593 392 l 479 358 l 479 353 m 292 110 q 291 116 290 113 q 290 124 292 119 l 179 89 l 179 88 l 292 110 m 278 417 l 171 383 l 171 381 q 223 392 196 386 q 278 403 250 397 l 278 417 m 581 482 q 531 474 557 479 q 478 463 506 469 l 478 451 q 529 465 501 458 q 581 482 557 472 m 196 35 q 247 59 221 47 q 294 81 272 71 l 181 44 l 181 33 l 196 35 m 278 472 l 278 490 l 188 454 l 278 472 m 525 126 q 499 119 513 124 q 474 111 486 115 q 460 86 467 94 l 496 101 l 514 117 l 525 126 m 571 515 l 476 490 l 476 485 q 525 497 500 492 q 575 506 550 503 l 571 515 m 179 115 l 285 164 l 179 128 l 179 115 m 272 661 q 222 645 247 653 q 174 628 197 638 l 174 625 l 272 653 l 272 661 m 174 600 q 173 596 174 597 q 172 592 172 594 q 224 607 199 600 q 274 621 250 614 l 274 624 l 257 621 l 174 600 m 576 276 q 577 280 576 279 q 578 282 578 281 q 533 272 556 278 q 489 260 511 267 l 489 256 l 576 276 m 172 257 l 172 249 l 278 288 l 172 257 m 172 536 q 222 560 192 547 q 271 583 251 574 l 172 544 l 172 536 m 271 689 l 271 690 q 222 676 247 683 q 174 663 197 669 l 174 657 l 271 689 m 201 519 q 238 529 219 524 q 276 540 257 535 l 276 546 q 239 533 257 539 q 201 519 221 526 m 449 182 q 447 165 449 171 l 463 169 q 464 186 464 175 l 449 182 m 171 476 q 194 485 182 481 q 218 496 206 489 q 194 490 206 493 q 171 485 182 488 l 171 476 m 515 628 l 457 611 q 458 610 457 610 q 458 608 458 610 q 488 616 474 611 q 517 626 501 621 l 515 628 m 156 51 q 154 57 154 53 q 138 33 147 43 l 156 33 l 156 51 m 300 53 l 264 40 l 303 43 l 300 53 m 138 354 q 137 367 138 361 q 136 379 136 372 q 135 378 135 379 q 121 368 129 372 q 138 354 132 361 m 442 667 q 443 664 442 665 l 474 669 l 474 671 l 468 675 l 442 667 m 144 719 l 150 710 l 150 735 q 146 734 147 735 q 142 733 144 733 l 144 719 m 535 603 q 533 604 535 603 l 469 582 q 535 603 504 590 m 490 222 q 519 229 506 225 q 546 238 532 233 l 501 228 q 490 225 493 225 l 490 222 m 171 415 l 200 426 l 171 422 l 171 415 m 586 317 l 553 306 l 586 311 l 586 317 m 433 536 q 434 533 433 535 q 435 529 435 532 q 443 532 438 529 q 442 540 443 538 l 433 536 m 453 315 q 453 310 453 313 q 454 304 454 307 q 460 306 456 306 q 458 317 458 310 q 453 315 457 315 m 456 244 l 465 249 l 465 253 q 456 250 457 250 l 456 244 m 428 693 l 433 696 l 426 700 l 424 699 l 428 693 m 446 476 q 448 477 447 476 q 450 478 449 478 q 449 480 450 479 q 449 483 449 481 q 444 482 447 482 q 445 479 444 481 q 446 476 446 478 m 588 453 q 586 456 588 453 q 568 449 576 450 l 588 453 m 436 99 l 432 99 l 428 89 l 436 99 m 450 344 q 454 346 453 344 q 453 348 454 347 q 453 350 453 349 l 450 349 l 450 344 m 436 574 q 434 573 435 574 q 432 572 433 572 l 432 569 q 436 571 433 571 l 436 574 m 449 454 q 450 450 449 450 l 450 454 l 449 454 m 431 601 l 432 601 l 432 604 l 431 604 l 431 601 z "},"E":{"ha":569,"x_min":0,"x_max":569,"o":"m 133 17 q 174 53 167 28 q 181 115 182 79 q 175 191 175 153 q 172 269 175 229 q 159 295 168 285 q 126 304 150 306 l 121 304 q 107 315 108 306 q 117 329 106 325 q 121 330 119 329 q 125 331 122 331 q 157 356 151 336 q 165 390 163 375 l 165 406 q 165 411 165 406 q 160 481 163 446 q 156 550 158 515 q 149 610 153 581 q 142 671 146 640 q 90 721 126 711 q 67 724 79 724 q 42 726 54 724 l 39 726 q 24 694 19 713 q 43 663 29 675 q 72 651 57 651 q 86 675 86 651 q 72 674 78 674 q 60 674 67 674 q 51 676 54 674 q 47 696 40 686 q 67 700 54 706 q 78 699 72 697 q 88 702 83 701 q 99 700 93 703 q 108 688 104 697 q 111 660 117 674 q 93 638 106 647 q 65 626 81 629 q 38 632 50 624 q 8 663 17 646 q 1 697 0 679 q 12 729 1 714 q 39 754 22 744 q 53 764 42 763 l 64 764 l 76 767 q 83 764 81 767 q 110 765 97 765 q 138 765 124 765 q 148 772 142 772 q 158 767 154 772 q 308 777 233 769 q 451 806 382 785 q 474 804 461 815 q 478 787 475 801 q 483 753 481 772 q 489 711 486 733 q 493 669 492 689 q 494 635 497 656 l 494 632 l 493 632 q 478 623 488 622 q 467 635 469 624 q 466 649 467 642 q 464 667 465 657 q 427 714 444 697 q 393 738 410 731 q 358 745 376 746 q 319 740 340 744 q 329 558 322 649 q 343 376 336 468 l 408 383 q 418 384 414 383 q 426 385 422 385 q 464 409 449 394 q 483 444 479 424 q 498 456 489 458 q 510 442 507 453 l 510 440 q 518 383 519 411 q 522 335 517 354 q 533 321 532 331 l 532 315 q 531 305 535 310 q 517 300 526 300 l 514 300 q 503 310 507 301 l 503 315 q 496 331 497 322 q 454 354 486 347 q 409 353 431 351 q 357 350 388 354 q 344 349 353 349 q 356 192 351 269 q 361 35 360 114 q 420 41 393 35 q 467 63 447 47 q 497 107 486 79 q 508 179 508 135 q 519 194 510 192 q 532 186 528 196 q 543 172 540 183 q 546 151 543 167 q 553 119 549 136 q 560 85 557 101 q 567 60 564 68 q 567 45 569 51 q 554 39 564 39 q 474 33 515 44 q 396 15 433 21 q 278 3 338 6 q 158 -7 218 0 q 132 -16 147 -12 q 97 -19 117 -19 q 83 -9 85 -19 q 92 7 81 1 l 133 17 m 236 71 q 235 56 235 65 l 326 88 l 324 96 q 276 83 299 89 q 236 71 253 76 m 332 46 q 331 54 332 50 q 331 61 331 58 q 281 44 308 54 q 229 25 253 35 l 253 25 l 332 46 m 239 214 q 240 201 239 207 q 240 190 240 196 l 294 214 l 292 224 l 239 214 m 221 647 l 290 665 q 290 672 290 668 q 289 681 289 676 q 255 667 272 674 q 221 654 238 661 l 221 647 m 283 411 q 258 401 271 406 q 232 390 246 397 l 232 379 q 256 387 243 383 q 283 394 268 390 l 283 411 m 300 183 l 240 160 l 240 153 l 304 169 l 300 183 m 229 433 q 230 426 229 431 q 231 419 231 422 q 285 440 260 432 l 285 451 l 229 433 m 279 732 q 247 718 263 725 q 215 704 231 711 l 215 701 l 289 722 q 290 728 289 725 q 290 735 290 732 l 279 732 m 236 304 l 283 311 l 283 329 l 236 306 l 236 304 m 221 600 l 292 608 l 292 615 l 221 603 l 221 600 m 289 576 q 254 567 271 572 q 222 557 238 563 l 222 549 l 289 576 m 308 314 q 319 315 317 314 q 319 330 319 322 q 318 344 318 338 q 315 344 317 344 q 313 343 314 343 l 310 343 l 308 342 l 308 314 m 201 206 q 201 190 201 199 q 203 174 201 182 l 211 178 l 211 208 l 201 206 m 286 488 l 226 468 l 226 465 l 286 481 l 286 488 m 538 76 l 503 68 l 490 57 q 512 64 501 61 q 538 67 522 67 l 538 76 m 488 388 q 489 387 489 388 q 490 386 489 386 q 490 397 490 392 q 489 407 489 401 q 460 388 474 394 l 488 388 m 224 514 l 289 536 q 290 539 289 538 q 290 542 290 540 l 224 517 l 224 514 m 239 114 l 313 138 l 239 121 l 239 114 m 289 251 q 288 261 288 254 l 240 242 l 289 251 m 314 256 q 324 257 319 256 q 323 267 322 263 q 322 278 324 272 l 311 272 l 314 256 m 204 424 q 197 421 200 422 q 190 418 193 419 l 190 404 q 197 406 193 406 q 204 410 201 407 l 204 424 m 447 756 l 433 749 l 451 732 l 447 756 m 183 533 q 182 532 183 532 l 196 538 l 196 549 l 183 544 l 183 533 m 206 379 q 199 377 203 378 q 192 374 194 376 l 192 365 l 206 369 l 206 379 m 422 757 l 438 769 q 422 765 431 767 q 406 764 414 764 l 422 757 m 136 725 q 135 733 136 729 q 135 740 135 736 q 126 740 131 740 q 117 739 122 739 q 127 733 122 736 q 136 725 132 729 m 210 272 l 200 269 l 200 257 l 210 261 l 210 272 m 201 28 q 196 42 199 33 q 189 22 194 32 q 204 24 193 24 q 201 28 201 26 m 522 99 l 532 101 l 528 118 l 522 99 m 238 271 l 261 281 l 238 278 l 238 271 m 310 421 q 309 412 310 417 q 308 403 308 407 q 313 404 311 403 l 311 422 l 310 421 m 317 228 q 317 226 317 226 q 318 224 318 225 l 325 226 l 325 229 q 321 228 322 228 q 317 228 319 229 m 204 144 l 204 142 l 211 144 l 211 149 l 204 144 m 328 179 q 327 187 328 183 q 326 194 326 190 q 324 193 325 194 l 328 179 m 208 15 q 213 16 211 15 q 217 17 214 17 l 217 19 l 208 15 m 164 318 l 169 314 l 169 318 l 164 318 m 210 114 l 208 113 q 210 104 208 107 l 210 114 m 185 501 l 199 506 l 199 507 l 185 501 m 308 374 q 311 375 310 374 q 314 376 313 376 l 314 378 l 308 375 l 308 374 m 193 596 l 193 597 l 182 594 l 193 596 m 193 457 l 201 458 l 201 460 l 193 457 m 190 640 q 188 640 189 640 q 186 639 188 639 q 190 640 189 639 z "},"F":{"ha":542,"x_min":-1,"x_max":542,"o":"m 540 328 q 538 318 542 322 q 530 312 535 314 q 519 311 525 310 q 513 317 514 313 q 481 362 504 349 q 426 378 457 375 q 383 372 406 374 q 342 369 361 371 q 336 368 339 368 l 319 364 q 332 231 326 297 q 340 103 338 165 q 365 67 347 82 q 408 49 382 53 q 414 35 418 46 q 399 25 410 25 l 379 25 q 358 20 368 22 q 338 15 349 18 l 335 13 q 329 11 333 11 l 324 11 q 321 13 322 13 l 319 14 q 276 10 297 11 q 232 8 254 10 q 224 7 229 7 q 208 6 214 7 q 196 4 203 1 q 189 3 193 4 q 182 3 185 3 q 152 3 168 1 q 121 0 136 4 q 102 10 107 -3 q 110 26 97 24 q 156 43 138 29 q 179 94 175 57 q 176 183 176 139 q 169 276 175 228 l 165 331 q 151 341 153 331 q 160 357 149 351 l 161 357 q 149 453 154 406 q 139 550 143 501 q 130 616 133 585 q 120 670 126 647 q 103 706 114 693 q 71 718 92 719 q 67 717 69 717 q 32 697 39 710 q 31 672 25 683 q 51 657 36 661 q 79 665 65 653 q 63 669 71 668 q 49 676 56 669 q 51 697 42 689 q 71 693 60 704 q 86 690 75 688 q 101 682 97 693 q 100 650 111 664 q 53 628 76 625 q 16 647 31 631 q 0 687 1 664 q 19 725 -1 710 q 38 735 29 732 q 56 743 46 739 q 88 749 71 750 q 119 751 104 749 q 122 750 121 751 q 184 755 156 751 q 240 762 213 758 q 299 770 268 765 q 367 781 329 775 q 424 793 396 785 q 481 801 451 801 q 492 796 488 801 q 496 784 496 789 q 493 772 496 779 q 501 664 493 715 q 506 647 504 656 q 508 626 507 638 q 493 620 501 619 q 482 629 485 621 q 481 631 482 631 q 481 633 481 632 q 480 635 481 635 q 479 638 479 636 l 475 656 l 475 660 q 420 736 460 721 q 308 743 381 751 q 306 640 307 692 q 306 538 304 589 q 306 515 306 526 q 307 493 306 504 q 308 488 307 490 q 308 483 308 486 l 317 393 l 328 393 q 388 406 358 400 q 449 415 417 411 q 478 437 467 424 q 490 472 489 450 q 503 488 493 488 q 515 472 513 488 q 519 436 517 451 q 524 406 521 421 q 530 374 526 392 q 538 332 533 357 l 540 328 m 201 631 q 203 622 203 626 q 203 613 203 617 l 268 628 l 268 642 l 201 631 m 314 53 q 313 58 314 56 q 313 65 313 61 q 278 58 294 61 q 246 50 261 54 q 244 40 244 46 l 253 40 l 314 53 m 307 188 q 306 201 307 197 l 242 185 l 242 174 l 307 188 m 224 438 q 225 422 224 428 l 285 440 q 284 445 285 443 q 283 450 283 447 l 224 438 m 201 722 q 200 708 201 714 q 232 714 215 711 q 264 719 249 717 l 264 729 l 201 722 m 233 306 l 296 314 q 294 325 294 318 l 233 314 l 233 306 m 303 244 q 302 249 303 247 q 301 254 301 251 l 239 242 l 239 235 l 303 244 m 293 350 q 292 354 293 353 q 292 358 292 356 l 232 346 l 232 339 l 293 349 l 293 350 m 265 681 q 233 671 250 675 q 200 661 217 667 l 200 657 q 201 658 200 657 l 265 669 l 265 681 m 271 600 l 206 586 l 206 579 l 271 593 l 271 600 m 213 519 q 245 527 229 524 q 276 533 261 531 q 276 538 276 536 q 275 542 275 539 l 213 525 l 213 519 m 467 774 q 439 769 453 772 q 411 764 425 767 l 428 756 l 465 771 q 467 774 465 771 m 310 122 q 308 131 308 125 l 246 117 l 246 113 l 310 122 m 236 271 l 296 286 l 236 281 l 236 271 m 179 428 l 182 410 l 199 415 q 196 432 196 426 q 185 429 188 429 l 179 428 m 175 606 q 174 615 175 611 q 174 625 174 619 l 160 621 q 161 603 161 614 q 175 606 167 603 m 172 719 l 156 717 l 156 703 q 172 704 161 704 l 172 719 m 247 75 l 311 92 l 311 93 l 247 81 l 247 75 m 288 411 l 236 397 l 288 403 l 288 411 m 217 490 l 217 488 q 247 494 232 490 q 278 501 263 497 l 278 503 l 244 497 l 217 490 m 497 394 l 471 392 q 500 379 485 388 l 497 394 m 197 276 q 199 261 197 267 l 208 264 l 208 278 l 197 276 m 221 458 q 251 465 236 461 q 281 472 265 468 l 281 475 l 221 460 l 221 458 m 243 149 l 243 146 l 310 163 l 243 149 m 194 301 l 208 303 l 208 310 l 194 307 l 194 301 m 188 513 q 187 516 188 515 q 186 518 186 517 l 169 514 q 170 512 169 513 q 171 510 171 511 l 188 513 m 190 332 l 206 335 l 206 340 l 190 336 l 190 332 m 179 572 l 179 578 l 164 574 l 164 569 l 179 572 m 214 168 q 213 173 214 171 q 213 178 213 175 l 206 175 l 206 167 l 214 168 m 456 739 q 460 734 458 736 q 465 729 463 732 l 465 743 l 454 739 l 456 739 m 207 136 l 215 138 l 215 143 l 207 142 l 207 136 m 210 236 l 201 233 l 201 229 l 210 231 l 210 236 m 213 67 q 213 70 213 69 q 214 74 214 71 l 208 74 l 210 65 l 213 67 m 174 478 l 174 476 l 190 481 l 190 482 l 174 478 m 157 675 l 167 679 l 157 678 l 157 675 m 346 49 l 342 54 l 342 49 l 346 49 m 210 107 l 217 108 l 217 110 l 210 108 l 210 107 z "},"G":{"ha":610,"x_min":15,"x_max":596,"o":"m 357 399 q 345 396 350 397 q 336 393 340 394 q 322 393 328 392 l 306 385 q 310 360 303 369 q 333 346 318 351 l 339 349 l 343 367 q 358 376 349 379 q 369 364 367 374 q 348 325 361 335 q 320 319 335 315 q 294 338 306 324 q 278 368 282 351 q 281 400 275 385 q 311 424 288 415 q 339 428 325 428 q 365 429 353 429 q 413 434 383 429 q 454 440 442 439 q 527 444 492 443 q 582 442 563 444 q 595 430 594 440 q 583 417 596 419 q 555 398 561 411 q 550 367 549 385 q 551 356 550 361 q 551 346 551 351 q 552 335 551 340 q 553 325 553 331 q 551 321 551 324 q 549 301 550 311 q 546 281 549 292 q 533 200 542 239 q 518 143 525 161 q 444 36 492 68 q 335 7 397 4 l 318 7 q 210 24 257 6 q 128 77 163 43 q 72 159 93 111 q 43 264 51 207 q 29 481 15 375 q 97 663 43 588 q 113 692 104 678 q 138 715 122 706 q 183 740 158 729 q 215 757 197 751 q 247 767 233 763 q 311 778 279 774 q 374 776 343 783 q 431 753 401 769 q 481 715 460 738 q 511 663 503 692 q 507 600 519 633 q 490 567 507 583 q 451 551 475 551 q 405 560 428 550 q 366 589 382 571 q 351 628 350 607 q 354 640 349 635 l 357 646 q 365 657 360 653 q 365 688 369 674 q 351 715 360 703 q 328 733 342 726 q 301 738 315 739 q 265 696 282 726 q 243 628 247 665 q 238 488 236 557 q 242 346 239 418 q 254 238 246 293 q 268 163 261 204 q 285 89 275 122 l 285 88 q 286 83 286 85 q 288 81 286 82 l 288 83 q 310 52 299 58 q 351 56 321 46 q 386 99 374 71 q 392 143 389 121 q 396 183 396 165 q 390 288 397 239 q 372 390 383 338 l 368 396 l 360 399 l 357 399 m 218 315 l 101 294 l 104 276 l 208 306 l 218 307 l 218 315 m 108 249 q 110 240 108 243 q 165 253 138 247 q 219 265 192 260 l 219 278 l 196 274 l 108 249 m 136 608 q 133 599 133 604 q 131 590 132 594 l 208 610 l 208 624 l 136 608 m 211 386 q 155 377 183 382 q 99 365 126 372 l 99 353 l 211 381 l 211 386 m 225 225 l 119 189 q 120 187 119 188 q 121 185 121 186 q 175 198 149 192 q 229 210 201 204 l 225 225 m 249 86 l 186 68 l 206 56 q 231 62 218 58 q 256 68 243 65 l 249 86 m 422 161 q 422 151 422 156 q 421 140 421 146 q 457 156 439 149 q 493 171 475 164 q 496 179 496 176 l 422 161 m 100 326 l 100 322 q 156 334 128 329 q 214 344 185 339 l 214 357 l 138 338 l 100 326 m 99 393 q 155 406 128 400 q 210 418 182 413 l 210 429 l 100 399 q 99 397 100 397 q 99 393 99 396 m 114 525 q 113 519 114 522 q 113 514 113 517 q 161 528 136 521 q 210 542 186 535 l 210 550 q 165 538 189 543 q 114 525 140 532 m 239 133 q 238 144 238 138 l 142 118 l 144 113 l 239 133 m 521 322 q 469 306 496 314 q 418 288 443 297 l 418 286 l 521 310 l 521 322 m 104 461 q 103 457 104 458 q 103 454 103 456 l 210 479 q 210 483 210 482 q 211 488 211 485 q 115 464 156 472 l 104 461 m 460 404 q 433 398 446 401 q 407 392 421 394 q 413 379 410 389 l 413 376 l 486 408 l 460 404 m 418 317 q 465 333 442 325 q 511 353 488 342 l 415 329 l 418 319 l 418 317 m 508 225 l 508 226 l 425 214 l 425 201 l 508 225 m 131 149 q 190 166 163 158 q 233 178 217 174 l 233 182 l 128 156 q 131 149 128 154 m 160 664 l 214 676 l 218 686 l 168 676 l 160 664 m 419 51 q 446 74 433 60 l 447 76 q 424 68 436 72 q 401 58 413 64 q 394 51 399 54 l 419 51 m 469 626 l 399 594 q 403 592 401 592 l 475 621 l 469 626 m 421 256 l 421 247 l 517 272 l 421 256 m 242 114 q 156 93 197 106 l 160 89 q 202 101 182 96 q 242 113 222 106 l 242 114 m 363 735 l 386 746 l 363 750 q 347 744 356 746 l 363 735 m 214 722 q 206 717 210 719 q 199 711 203 714 l 231 717 q 240 731 235 725 l 238 731 l 214 722 m 122 561 q 121 557 121 558 q 119 554 121 556 q 166 569 143 561 q 208 582 189 576 l 208 583 q 168 573 190 579 q 122 561 146 567 m 471 685 q 469 688 469 686 q 465 690 468 689 q 442 681 454 685 q 418 669 431 676 l 426 669 q 449 677 438 674 q 471 685 460 681 m 382 710 q 429 725 403 715 q 422 731 428 728 q 402 721 413 725 q 381 713 392 717 q 382 710 382 713 m 89 585 q 88 581 88 583 l 101 583 q 107 601 104 594 l 94 599 q 92 592 93 596 q 89 585 90 589 m 386 618 l 440 643 l 438 643 l 386 625 l 386 618 m 93 554 l 76 550 l 74 539 q 90 544 85 542 l 93 554 m 67 511 q 65 501 67 504 l 83 507 q 85 517 83 513 l 67 511 m 415 92 l 460 108 l 415 97 l 415 92 m 71 360 q 66 359 68 360 q 61 358 64 358 q 63 344 63 353 q 67 345 65 344 q 71 346 68 346 l 71 360 m 443 578 q 474 590 465 578 l 443 578 m 75 446 l 75 453 l 60 449 l 60 443 l 75 446 m 515 383 q 514 389 515 386 l 488 378 l 515 383 m 263 36 q 268 35 264 35 l 274 39 l 271 42 l 253 38 q 258 37 256 38 q 263 36 260 36 m 75 268 q 74 289 74 275 l 69 289 l 74 268 l 75 268 m 124 656 l 128 656 l 136 671 l 135 671 l 126 660 l 124 656 m 71 390 l 60 388 l 60 385 l 71 388 l 71 390 m 65 315 q 72 317 68 317 l 72 321 q 69 319 71 319 q 65 318 68 319 l 65 315 m 288 83 l 285 88 l 285 90 q 288 83 285 92 z "},"H":{"ha":786,"x_min":-3,"x_max":788,"o":"m 175 125 q 176 128 175 128 q 176 132 176 129 q 179 160 178 147 q 181 182 181 172 q 181 237 181 210 q 179 292 181 264 q 156 312 172 311 q 103 313 139 313 q 90 323 92 313 q 99 339 88 333 l 99 340 l 103 340 q 152 367 135 351 q 172 415 169 383 l 164 561 q 162 569 163 565 q 161 576 161 572 q 152 623 156 600 q 146 669 149 646 q 145 674 146 672 q 144 678 144 675 q 127 710 138 697 q 99 725 117 722 q 71 718 83 724 l 69 718 q 38 694 44 708 q 33 669 31 681 q 44 658 35 661 q 62 656 53 654 q 76 665 71 658 q 75 682 81 671 q 77 702 68 694 q 97 699 86 710 q 100 656 108 672 q 76 634 92 640 q 40 633 60 628 q 10 653 21 638 q 2 693 -3 669 q 44 742 7 717 l 57 747 l 79 756 l 89 760 l 93 760 q 147 772 119 767 q 193 776 174 776 q 215 775 204 776 q 238 771 226 774 q 326 780 282 775 q 415 790 371 785 q 426 776 422 789 q 424 763 431 764 q 399 754 414 760 q 369 737 383 749 q 344 706 354 725 q 333 656 333 686 l 338 599 l 346 525 q 345 463 349 494 q 344 400 342 432 q 345 383 344 392 q 346 368 346 375 q 363 369 354 368 q 378 371 371 369 q 453 384 415 378 q 528 394 490 390 q 528 526 528 461 q 529 658 528 592 q 522 698 528 683 q 504 719 515 713 q 478 728 493 726 q 444 732 463 731 q 435 744 436 735 q 442 760 435 754 q 503 771 463 768 q 588 774 543 774 q 675 774 633 775 q 740 771 717 772 q 754 756 756 768 q 738 744 753 744 q 688 740 711 744 q 661 732 664 736 q 657 720 658 725 q 653 708 656 715 q 651 693 653 701 q 649 678 650 685 q 647 657 647 667 q 646 638 646 647 q 661 476 653 556 q 672 313 669 396 q 674 242 674 276 q 674 172 674 207 q 675 168 675 171 q 676 122 675 143 q 683 86 676 101 q 702 60 689 71 q 739 46 715 50 q 756 47 747 47 q 774 47 764 47 q 785 38 783 46 q 781 24 788 31 q 755 17 769 17 q 728 21 740 18 q 708 20 718 21 q 688 18 699 19 q 669 13 682 8 q 665 17 669 13 q 592 8 629 14 q 525 -4 556 3 q 508 -10 519 -7 q 494 1 497 -10 q 503 18 492 13 q 514 21 511 21 q 538 49 532 31 q 543 86 543 67 q 533 221 538 147 q 528 363 528 294 l 385 325 l 353 317 q 362 245 357 281 q 369 174 367 210 q 374 99 374 132 l 378 68 q 419 35 386 40 q 435 35 426 36 l 439 35 l 439 33 q 448 22 447 31 q 438 10 449 13 l 433 10 q 416 8 425 11 q 396 6 407 6 q 307 1 351 4 q 217 -7 263 -3 l 211 -7 l 211 -10 q 202 -22 208 -18 q 188 -18 196 -25 q 182 -10 185 -15 l 135 -10 q 90 -15 118 -15 q 75 -4 78 -15 q 83 13 72 7 l 117 17 q 151 32 135 22 q 172 53 167 42 q 173 81 172 67 q 175 110 174 96 l 175 125 m 210 213 q 267 234 238 224 q 325 254 297 244 q 324 259 325 257 q 324 264 324 261 q 267 250 296 257 q 210 236 238 243 l 210 213 m 211 393 l 211 369 l 315 408 l 315 418 l 211 393 m 328 204 q 326 225 328 218 q 272 206 294 214 q 247 199 249 199 l 211 182 l 211 175 l 282 196 l 328 204 m 308 618 q 265 608 286 614 q 224 599 243 603 l 188 586 l 189 569 l 308 615 l 308 618 m 614 631 l 558 614 q 559 605 558 610 q 560 596 560 600 l 613 608 q 613 615 613 611 q 614 624 614 619 l 614 631 m 303 118 q 260 103 282 111 q 217 89 239 96 l 217 82 l 339 119 q 338 122 339 121 q 338 125 338 124 l 303 118 m 217 47 q 284 67 250 57 q 346 86 318 78 q 344 93 346 90 q 279 74 313 83 q 217 53 246 64 l 217 47 m 221 482 q 313 503 267 494 l 313 521 q 259 499 285 510 q 207 478 233 489 l 221 482 m 333 153 q 333 156 333 154 q 332 158 332 157 q 278 142 308 151 q 215 122 247 133 l 215 114 q 275 135 246 124 q 333 153 304 146 m 313 571 q 311 583 313 579 l 201 544 l 313 571 m 306 646 q 304 661 306 656 l 214 624 q 218 625 215 624 l 306 646 m 617 669 l 558 657 l 558 644 l 617 661 l 617 669 m 575 60 l 575 53 l 644 67 q 643 72 644 69 q 642 76 642 74 l 575 60 m 606 249 l 607 249 l 607 268 q 589 263 597 265 q 571 257 581 260 l 571 243 l 606 249 m 178 656 q 178 653 178 654 q 179 650 179 651 l 181 643 q 222 663 200 654 q 265 679 243 671 l 206 665 l 178 656 m 210 285 q 248 302 229 293 q 282 318 267 311 q 244 308 263 313 q 210 299 226 304 l 210 285 m 567 449 l 614 461 l 614 474 l 567 460 l 567 449 m 203 507 l 282 540 l 200 519 l 203 507 m 314 481 l 210 449 l 210 439 q 261 460 236 450 q 314 479 286 469 l 314 481 m 165 706 l 171 708 q 210 724 190 715 q 249 740 229 732 q 207 728 228 735 q 165 718 186 722 l 165 706 m 560 569 q 560 563 560 567 q 561 557 561 560 l 613 572 l 613 578 l 560 569 m 614 546 q 563 529 590 540 l 563 524 l 614 535 l 614 546 m 565 490 l 614 501 l 614 510 q 589 505 601 507 q 565 500 576 503 l 565 490 m 221 697 l 301 715 l 301 726 l 221 697 m 608 356 l 569 347 q 570 341 569 344 q 571 335 571 338 q 588 340 579 338 q 608 344 597 342 l 608 356 m 215 21 q 232 22 226 21 l 319 56 l 215 24 l 215 21 m 576 389 q 578 379 578 386 q 594 383 586 382 q 611 385 603 383 l 611 399 q 594 394 603 396 q 576 389 585 392 m 613 433 l 568 424 q 569 419 568 421 q 569 415 569 418 l 613 428 l 613 433 m 268 364 q 298 367 288 367 q 315 371 308 368 l 315 381 l 268 364 m 613 185 q 612 188 613 186 q 611 192 611 189 l 571 179 l 571 175 l 613 183 l 613 185 m 635 253 l 646 254 l 646 278 q 635 275 643 278 l 635 253 m 557 724 l 557 717 l 617 735 l 617 736 l 557 724 m 575 88 q 604 95 590 92 q 633 101 618 99 q 632 104 633 103 l 575 93 l 575 88 m 329 728 q 349 753 335 739 l 328 750 l 328 736 q 328 733 328 735 q 329 731 329 732 l 329 728 m 351 38 l 315 25 q 334 26 325 25 q 353 28 343 26 l 351 38 m 176 335 l 176 353 l 160 339 l 176 335 m 656 38 q 654 42 654 39 l 604 31 l 656 38 m 322 293 l 322 301 q 307 294 315 297 q 290 288 299 290 l 322 293 m 639 189 l 646 190 l 646 201 l 639 199 l 639 189 m 644 361 q 636 360 642 360 l 635 351 q 640 352 638 351 q 644 353 642 353 l 644 361 m 642 407 q 640 406 640 407 q 638 406 639 406 l 638 389 q 640 390 639 389 q 642 390 640 390 l 642 407 m 646 328 l 635 325 l 635 321 l 646 322 l 646 328 m 572 147 l 597 156 l 572 151 l 572 147 m 617 701 l 617 704 l 583 694 l 617 701 m 314 450 l 293 442 l 314 446 l 314 450 m 571 215 l 571 213 l 599 221 l 571 215 m 231 335 q 211 332 217 332 l 211 329 l 231 335 m 529 742 l 529 746 l 524 746 l 529 742 z "},"I":{"ha":453,"x_min":0,"x_max":453,"o":"m 176 426 q 161 520 169 474 q 150 615 153 567 q 150 656 149 636 q 153 697 151 676 q 151 707 151 703 q 150 717 150 711 q 122 732 140 728 q 71 736 103 736 q 56 733 61 735 q 47 729 51 732 q 27 706 35 722 q 39 675 19 690 q 55 671 44 671 q 75 673 65 671 q 91 680 85 675 q 96 690 97 685 q 82 694 93 697 q 69 690 71 690 q 56 702 58 690 q 68 715 53 714 q 83 720 74 719 q 101 719 92 721 q 116 712 110 717 q 124 700 122 707 q 119 680 125 690 q 101 661 113 669 q 74 647 89 653 q 46 644 60 642 q 10 664 21 649 q 1 698 0 679 q 13 734 1 717 q 46 757 25 751 l 49 757 q 155 777 101 775 q 263 778 208 779 q 274 785 267 785 q 286 778 282 785 q 313 778 300 778 q 339 779 325 778 q 365 781 354 779 q 387 785 376 783 q 410 789 397 788 q 440 790 422 790 q 452 778 451 788 q 443 765 453 768 q 436 763 440 763 q 390 751 410 757 q 358 735 371 746 q 339 708 346 725 q 331 664 332 690 q 331 622 331 643 q 331 583 331 600 q 331 554 331 565 q 331 542 331 543 q 342 335 336 438 q 350 131 347 233 q 367 77 357 94 q 388 53 376 60 q 414 49 400 47 q 442 53 428 50 q 451 45 451 56 q 444 31 451 35 q 397 13 421 19 q 350 4 374 7 q 340 -3 347 -3 q 329 1 333 -4 q 245 -1 288 -1 q 160 -4 203 0 q 108 -12 139 -12 q 95 -2 97 -12 q 103 14 93 8 q 107 15 106 14 q 128 19 118 18 q 149 21 138 21 q 179 47 169 29 q 192 85 189 64 q 192 106 192 96 q 192 126 193 115 q 183 293 185 210 q 169 330 179 313 q 143 344 158 347 q 139 343 142 343 q 119 351 125 339 q 128 368 114 363 q 140 371 136 371 q 166 392 156 378 q 176 426 176 406 m 181 714 q 181 712 181 713 q 182 708 182 711 l 260 714 l 260 732 l 181 717 l 181 714 m 268 150 q 247 145 257 147 q 225 140 236 143 l 225 128 l 317 147 l 317 153 l 268 150 m 215 339 q 217 319 217 332 q 250 329 233 325 q 285 338 267 333 q 283 346 283 340 q 249 342 265 343 q 215 339 232 340 m 199 643 q 201 633 199 639 l 254 640 q 254 649 254 644 q 256 660 254 654 l 199 643 m 293 297 q 290 313 293 301 l 219 292 l 219 288 q 257 292 239 290 q 293 297 275 294 m 225 32 l 318 49 q 317 53 318 51 q 317 58 317 56 l 225 35 l 225 32 m 315 88 q 268 78 292 83 q 225 69 244 74 l 225 60 l 315 86 l 315 88 m 314 178 q 313 189 314 185 l 308 189 l 243 169 l 314 178 m 303 571 q 302 581 303 576 q 301 592 301 586 l 285 588 q 279 586 283 586 l 279 569 q 292 570 286 569 q 303 571 297 571 m 188 676 l 190 668 l 251 688 q 219 684 235 685 q 188 682 203 683 l 188 676 m 306 238 q 304 244 304 240 l 297 244 l 224 225 l 224 224 l 306 238 m 224 192 l 310 214 q 286 211 297 213 q 267 208 275 210 l 224 199 l 224 192 m 271 408 q 240 403 256 406 q 210 397 225 400 l 210 388 q 240 396 225 392 q 271 406 256 400 l 271 408 m 283 665 q 283 655 283 660 q 282 643 283 650 q 291 644 286 644 q 300 644 296 644 l 300 669 l 283 665 m 251 567 l 251 579 q 232 574 242 576 q 213 569 222 572 l 213 563 l 251 567 m 211 535 l 211 524 l 253 535 l 253 539 l 211 535 m 178 753 q 178 748 178 750 q 179 743 179 746 l 238 753 l 178 753 m 288 738 l 288 718 l 301 718 l 301 739 l 288 738 m 315 111 l 315 119 q 274 108 294 113 q 235 99 254 103 l 315 111 m 210 460 l 210 454 l 260 468 l 260 469 l 210 460 m 222 253 l 282 265 l 222 258 l 222 253 m 208 603 q 210 596 210 600 l 251 608 l 208 603 m 290 450 q 292 443 292 447 l 306 444 l 306 454 l 290 450 m 306 507 l 306 513 l 283 507 l 283 504 l 306 507 m 183 354 q 183 363 183 358 q 182 372 182 368 q 177 367 179 369 q 172 363 175 365 l 183 354 m 354 47 q 353 40 354 43 q 353 32 353 36 l 365 35 q 354 47 360 38 m 188 590 q 187 594 188 593 q 186 599 186 596 l 178 597 l 178 588 l 188 590 m 265 443 q 247 438 256 440 q 228 433 238 436 l 265 439 l 265 443 m 324 751 q 325 739 325 749 q 335 751 328 744 l 324 751 m 257 375 q 276 376 269 375 l 276 381 l 257 375 m 307 378 l 307 389 l 301 388 l 304 378 l 307 378 m 256 499 l 256 500 l 224 493 l 256 499 m 200 26 l 196 22 l 203 22 l 200 26 m 188 563 q 181 561 185 561 l 181 560 l 188 560 l 188 563 z "},"J":{"ha":446,"x_min":3,"x_max":456,"o":"m 229 71 q 236 167 238 103 q 228 309 235 231 q 211 470 221 388 q 194 622 201 553 q 168 669 186 650 q 113 696 150 689 q 97 698 106 697 q 81 696 88 699 q 61 682 68 690 q 61 658 54 674 q 69 643 64 651 q 80 628 74 635 q 94 619 86 622 q 110 622 101 617 q 125 637 126 632 q 117 644 124 642 q 105 646 111 646 q 104 646 99 646 l 104 643 q 92 632 101 632 q 79 643 83 632 q 98 669 82 665 q 128 667 114 674 q 149 644 143 660 q 139 610 156 628 q 89 592 118 588 q 57 608 71 593 q 38 641 43 622 q 37 680 32 660 q 63 714 42 700 q 86 730 74 725 q 113 738 99 735 q 124 743 117 742 q 150 747 136 743 q 175 754 164 751 q 196 757 182 754 l 201 757 q 275 767 246 764 q 315 774 304 771 q 356 785 331 778 q 396 785 381 792 l 397 785 q 414 778 410 788 q 408 763 418 769 q 372 735 385 747 q 356 701 358 722 q 360 663 360 682 l 369 643 q 394 634 378 636 q 438 621 411 632 q 440 596 456 611 q 422 592 433 592 q 403 588 410 593 q 383 553 386 575 q 381 508 379 531 q 389 440 385 476 q 396 364 393 403 q 401 224 403 293 q 381 107 400 154 q 374 94 378 100 q 367 82 371 89 q 343 49 351 60 q 326 33 335 39 q 303 20 317 26 q 265 1 290 14 q 219 -6 246 -8 q 171 -4 192 -4 q 156 -1 164 -4 q 100 22 121 3 q 15 221 3 101 q 16 235 15 226 q 18 253 17 243 q 19 263 18 258 q 21 272 19 267 q 22 305 17 288 q 39 337 28 322 q 65 360 50 351 q 96 368 79 369 q 128 360 113 368 q 156 340 144 353 q 172 310 168 326 q 169 276 176 293 l 165 268 q 158 249 163 260 q 151 228 154 239 q 143 152 144 194 q 149 78 142 110 l 161 49 q 181 33 168 36 q 203 31 190 32 q 222 40 215 29 q 227 57 226 47 q 229 71 228 67 m 264 307 q 265 297 264 301 q 267 285 265 292 q 318 302 290 293 q 374 322 346 311 q 373 326 374 325 q 372 329 372 326 l 306 317 l 264 307 m 250 424 q 263 429 254 426 q 308 448 286 439 q 354 465 331 457 q 353 472 353 468 q 299 458 325 465 q 247 444 274 450 l 250 424 m 232 599 l 332 624 l 331 643 l 232 604 l 232 599 m 369 356 q 368 371 369 365 q 314 353 340 361 q 261 333 288 344 l 261 332 q 313 342 285 336 q 369 356 342 349 m 236 554 q 286 572 261 564 q 335 589 311 581 l 335 596 q 282 582 307 589 q 236 569 257 575 l 236 554 m 240 511 q 242 497 242 507 q 293 516 267 508 q 343 532 319 524 q 342 534 343 533 q 342 536 342 535 q 291 524 317 531 q 240 511 265 518 m 375 260 q 322 247 347 253 q 269 239 296 242 q 271 221 271 232 q 324 240 297 231 q 375 258 350 250 l 375 260 m 256 381 q 258 363 256 374 l 336 392 l 256 381 m 369 192 q 321 178 346 185 q 272 164 296 171 l 272 157 l 369 186 l 369 192 m 214 718 q 215 713 214 715 q 215 708 215 711 l 317 743 l 317 744 l 214 718 m 51 144 l 110 164 q 110 168 110 167 q 111 172 111 169 q 78 163 94 167 q 47 156 63 158 l 51 144 m 53 292 q 80 299 67 296 q 108 308 93 303 q 85 310 97 308 q 61 313 72 311 q 60 310 61 311 q 60 307 60 308 q 57 301 57 301 l 53 292 m 358 438 l 297 414 q 328 418 313 417 q 358 421 343 419 l 358 422 q 361 425 358 422 l 358 438 m 268 258 q 319 272 288 263 q 375 288 351 281 l 375 294 l 268 260 l 268 258 m 226 646 q 228 636 228 643 q 275 656 251 647 q 325 675 299 665 l 325 676 l 226 646 m 356 122 q 310 112 332 117 q 265 100 288 107 q 264 93 265 96 q 309 106 288 100 q 354 119 331 113 l 356 122 m 272 194 q 324 210 294 201 q 372 222 353 218 q 373 226 372 225 q 374 229 374 228 l 272 196 l 272 194 m 140 281 q 144 288 142 281 l 63 269 q 64 268 63 268 q 104 274 83 271 q 140 281 125 278 m 40 215 l 93 236 l 81 236 l 40 224 l 40 215 m 257 61 l 338 82 l 342 90 l 257 61 m 114 197 q 115 204 115 200 l 43 179 l 43 178 l 114 197 m 258 688 q 289 696 274 692 q 321 703 304 700 q 319 713 321 710 l 258 688 m 242 24 q 268 31 256 26 q 293 43 281 36 q 269 38 282 40 q 246 33 257 36 l 242 24 m 60 118 q 61 115 61 117 l 108 128 l 108 136 l 60 118 m 121 56 q 118 71 118 67 q 108 68 113 69 q 99 64 104 67 l 108 53 l 121 56 m 367 601 q 368 592 367 594 q 385 608 374 601 l 367 615 l 365 614 q 367 601 365 606 m 364 157 q 319 142 340 150 q 275 126 297 133 l 364 153 l 364 157 m 183 699 q 181 710 178 703 q 169 707 174 708 q 160 704 164 706 l 176 696 l 183 699 m 313 557 l 339 561 q 338 564 339 563 q 338 567 338 565 l 313 557 m 347 503 l 347 507 l 318 497 l 347 503 m 90 88 q 88 86 89 88 l 90 88 z "},"K":{"ha":660,"x_min":-1,"x_max":660,"o":"m 353 31 q 313 22 333 28 q 275 15 293 17 q 209 15 243 13 q 142 17 175 18 q 74 7 119 6 q 63 21 63 10 q 76 33 64 32 l 129 40 q 143 67 142 49 q 143 115 144 85 q 144 121 143 118 q 147 126 146 124 q 142 160 144 143 q 140 193 140 176 q 140 231 139 213 q 142 268 140 249 q 133 305 140 289 q 107 324 126 321 q 76 317 96 317 q 63 323 67 317 q 63 338 60 329 q 79 351 68 347 q 103 354 90 356 q 128 397 122 369 q 135 446 133 425 l 135 449 q 132 533 132 486 q 132 629 132 581 q 122 685 131 661 q 76 719 113 710 q 60 722 68 722 q 43 721 51 721 q 27 683 24 706 q 63 656 31 660 q 63 671 65 661 q 58 690 51 681 q 78 694 65 700 q 92 674 90 686 q 89 651 94 661 q 72 634 83 640 q 44 633 60 628 q 13 653 24 640 q 1 682 3 667 q 5 713 -1 697 q 24 740 11 729 q 56 766 36 758 q 99 774 76 774 q 147 772 122 775 q 194 768 172 769 q 230 769 213 768 q 267 769 247 769 q 309 773 288 772 q 338 758 331 774 q 333 739 343 746 q 299 715 308 725 q 286 685 289 704 q 287 569 286 628 q 289 450 288 510 q 333 502 308 469 q 381 571 358 535 q 422 640 404 607 q 444 692 439 672 l 444 719 q 421 726 433 726 q 393 726 408 725 q 381 739 382 729 q 390 754 381 749 q 433 759 408 758 q 485 758 458 760 q 538 753 513 756 q 583 747 564 750 q 597 733 597 744 q 583 719 596 721 l 575 719 q 528 710 551 721 q 495 671 513 692 q 461 626 478 650 q 438 593 451 601 q 373 497 404 544 q 314 408 342 449 l 325 400 q 328 399 325 399 l 356 379 q 412 335 381 360 q 476 291 443 310 q 544 266 510 272 q 610 276 578 260 q 631 297 619 289 q 632 299 631 297 q 646 303 639 306 q 656 299 649 303 q 656 297 656 297 q 657 294 657 296 q 656 276 660 288 q 647 269 653 275 q 624 233 639 253 q 593 194 608 213 q 579 165 579 169 q 561 154 575 150 l 549 163 q 538 172 540 165 q 428 276 482 219 q 315 375 374 332 l 290 392 l 293 261 q 294 244 293 250 l 294 231 q 295 226 294 228 q 296 224 296 225 l 296 218 l 304 144 q 305 143 304 143 q 306 142 306 143 l 306 140 l 308 99 q 354 56 321 61 l 357 56 q 383 56 369 58 l 385 56 l 385 54 l 388 54 q 397 40 399 49 q 381 31 394 31 l 353 31 m 165 614 q 167 603 167 608 q 167 594 167 599 l 249 613 q 248 624 249 619 q 247 636 247 629 l 165 614 m 172 540 q 174 528 172 532 l 251 540 q 250 553 250 547 q 250 564 250 558 l 172 540 m 267 178 q 223 167 244 172 q 179 156 201 163 l 179 140 l 267 164 l 267 178 m 182 63 l 182 47 l 271 72 q 270 78 271 75 q 269 85 269 82 l 250 81 l 182 63 m 178 468 q 178 460 178 464 q 179 453 179 457 l 256 471 q 255 479 256 475 q 254 486 254 483 l 178 468 m 236 732 l 161 725 l 161 704 l 251 729 l 251 732 l 236 732 m 181 93 l 267 117 l 267 131 q 222 117 243 124 q 181 104 200 111 l 181 93 m 261 411 q 254 422 254 414 l 179 403 q 178 397 179 400 q 178 392 178 394 l 261 408 l 261 411 m 268 217 q 225 206 249 211 q 178 193 201 200 l 178 182 l 256 203 l 268 204 l 268 217 m 265 275 l 175 253 l 175 246 l 265 261 l 265 275 m 263 374 l 263 381 l 176 363 l 176 349 q 207 357 192 353 q 238 367 222 361 l 263 374 m 242 660 q 249 661 246 660 l 249 671 q 205 660 226 665 q 163 650 183 654 q 163 646 163 647 q 164 642 164 644 q 208 652 188 649 q 242 660 228 656 m 161 676 l 250 699 l 250 708 q 206 694 228 701 q 161 681 183 688 l 161 676 m 174 317 q 218 327 196 322 q 263 336 240 332 l 263 346 q 218 333 240 339 q 174 322 196 328 l 174 317 m 133 719 q 132 728 132 724 q 132 738 132 733 l 96 738 q 133 714 119 728 l 133 719 m 535 207 l 567 219 l 576 224 l 578 228 l 525 214 l 535 207 m 264 301 l 172 285 q 173 283 172 283 q 174 281 174 282 l 264 300 l 264 301 m 253 513 q 214 504 233 508 q 175 497 194 500 q 176 495 175 496 q 176 492 176 494 q 215 501 196 497 q 253 510 233 506 l 253 513 m 500 238 l 517 242 q 479 258 497 247 l 500 238 m 279 47 l 249 39 q 260 39 256 39 q 272 40 265 39 q 283 42 279 40 l 279 47 m 132 344 q 143 338 138 342 q 143 349 143 343 q 142 360 143 354 l 132 344 m 471 731 q 474 724 474 728 q 475 713 474 719 l 483 731 l 471 731 z "},"L":{"ha":558,"x_min":-3,"x_max":561,"o":"m 82 21 q 140 62 122 28 q 161 154 158 96 l 161 163 q 162 185 163 174 q 161 208 161 196 l 161 211 q 143 254 157 240 q 107 263 129 268 q 100 260 101 260 q 81 268 86 257 q 89 286 76 279 l 103 290 q 141 315 131 301 q 154 349 151 329 q 141 494 150 426 q 125 633 132 561 l 125 640 l 121 690 q 111 717 118 706 q 90 731 104 729 l 85 731 q 58 726 68 728 q 36 718 49 725 q 31 708 33 715 q 27 690 28 700 q 28 672 26 681 q 33 660 29 663 q 51 668 43 661 q 64 685 58 675 q 61 686 63 686 q 50 703 47 692 q 68 711 53 714 l 82 706 q 92 693 92 703 q 88 667 94 678 q 69 647 81 657 q 27 632 44 624 q 3 662 10 640 q 3 710 -3 683 q 35 750 10 738 q 56 756 46 754 q 78 760 65 757 l 133 767 q 161 769 151 768 q 178 772 171 771 q 197 774 186 772 q 226 776 207 775 q 295 780 257 779 q 365 782 333 781 q 376 769 375 779 q 368 754 378 758 q 366 753 367 754 q 364 753 365 753 q 322 726 335 746 q 304 679 308 707 q 301 543 303 611 q 299 406 299 475 q 308 264 303 335 q 315 121 313 193 q 346 65 325 81 q 393 46 367 49 q 414 47 404 46 q 433 47 424 47 q 466 65 453 54 q 483 90 479 75 q 485 124 488 101 q 489 160 483 147 q 513 166 496 165 q 533 160 531 167 q 537 127 536 144 q 538 94 538 110 q 542 65 539 78 q 553 49 544 53 q 557 33 561 39 q 542 26 553 26 q 509 24 524 28 q 475 19 494 19 q 344 11 411 18 q 211 0 278 4 l 199 0 q 183 -1 192 -7 q 145 -3 164 -3 q 107 -4 126 -4 q 94 -7 103 -4 l 74 -11 q 55 -3 60 -14 q 63 14 50 7 q 65 15 63 14 q 72 21 68 18 q 82 21 76 24 m 188 606 q 226 615 207 611 q 264 624 244 619 l 264 642 q 226 628 244 635 q 188 614 207 621 l 188 606 m 206 125 l 281 154 l 282 154 q 281 159 282 157 q 281 164 281 161 l 206 142 l 206 125 m 264 710 q 225 695 244 703 q 186 679 206 688 l 186 672 l 264 693 l 264 710 m 272 350 q 231 338 251 344 q 192 326 211 332 q 192 320 192 324 q 193 314 193 317 l 272 339 l 272 350 m 189 428 l 267 461 l 267 468 l 189 444 l 189 428 m 208 50 l 249 67 l 292 82 q 291 85 292 83 q 290 89 290 86 q 208 64 246 78 l 208 50 m 190 388 l 271 422 l 271 424 l 190 406 l 190 388 m 264 554 l 264 568 l 189 540 l 189 536 l 264 554 m 185 711 l 265 742 l 265 744 l 185 725 l 185 711 m 190 354 l 272 376 l 272 388 l 190 356 l 190 354 m 199 215 l 276 236 q 276 242 276 239 q 275 247 275 244 l 199 217 l 199 215 m 196 250 l 274 278 l 274 279 l 196 261 l 196 250 m 513 89 q 485 50 507 63 l 507 50 q 513 51 510 50 q 519 51 517 51 q 513 70 514 61 q 513 89 513 79 m 272 310 l 272 319 l 193 290 l 272 310 m 188 578 l 188 568 l 261 596 l 188 578 m 203 171 q 241 183 222 176 q 279 193 260 189 q 278 197 279 196 q 278 200 278 199 l 203 172 l 203 171 m 146 715 q 149 697 149 704 l 160 701 l 160 719 l 146 715 m 244 518 q 216 512 229 515 q 189 504 203 508 l 189 497 l 244 518 m 293 39 l 293 47 l 254 35 l 293 39 m 146 285 q 152 280 149 282 q 158 275 156 278 l 158 296 l 146 285 m 149 29 q 168 49 163 33 l 168 54 q 149 29 161 42 m 247 104 l 286 115 l 286 119 l 247 104 m 236 486 l 265 492 l 265 496 l 236 486 m 160 557 l 164 558 q 163 565 164 561 q 163 571 163 568 l 158 569 l 160 557 m 156 597 q 163 599 157 599 l 163 604 q 154 601 157 601 l 156 597 m 151 661 l 161 665 l 161 668 l 151 664 l 151 661 m 304 744 l 310 753 l 303 753 q 303 750 303 751 q 304 747 304 749 l 304 744 m 326 43 l 326 42 l 328 42 l 326 43 z "},"M":{"ha":911,"x_min":-6,"x_max":913,"o":"m 621 792 q 638 789 632 799 l 642 789 q 703 788 674 789 q 764 790 733 788 q 813 796 781 796 q 826 784 825 794 q 815 769 828 774 l 776 765 q 753 751 761 761 q 740 726 744 740 q 736 695 736 713 q 738 660 736 678 q 760 571 749 615 q 779 482 772 526 q 791 364 790 424 q 797 243 792 304 q 804 188 800 214 q 814 135 808 163 q 829 83 821 106 q 849 56 838 60 q 873 57 860 51 q 899 61 886 63 q 910 50 908 58 q 904 35 913 42 q 842 17 874 15 q 779 15 811 18 q 735 8 758 13 q 690 0 711 4 q 678 -3 683 -8 l 660 -8 q 643 -22 654 -15 q 624 -11 629 -26 q 640 10 622 0 l 644 15 q 656 40 653 24 q 657 75 658 56 q 656 81 656 76 q 639 164 649 124 q 622 247 629 204 q 607 432 611 340 q 588 615 603 524 l 583 633 q 583 568 585 601 q 576 504 581 535 q 571 467 574 485 q 564 432 568 450 l 550 247 q 546 163 547 207 q 536 75 544 118 q 543 46 535 58 q 582 33 551 33 q 595 19 594 31 q 583 6 596 8 q 550 0 567 1 q 515 -1 533 -1 q 508 -4 510 -4 q 497 -1 501 -7 q 401 1 449 -1 q 306 -3 353 4 q 292 8 294 -3 q 300 25 289 19 q 331 45 329 32 q 318 93 332 58 q 317 97 317 94 q 258 283 282 185 q 214 474 233 382 q 190 553 201 513 q 169 635 178 594 l 169 624 q 169 433 168 528 q 172 240 169 339 q 178 178 174 214 q 181 106 182 142 q 182 101 182 104 q 189 75 182 89 q 206 51 196 61 q 230 33 217 40 q 257 28 243 26 q 270 16 268 26 q 261 0 272 6 l 260 0 q 184 -4 221 -4 q 108 -6 147 -4 q 99 -6 103 -6 q 89 -7 94 -7 q 83 -6 85 -7 l 47 -8 q 44 -10 46 -10 q 31 1 33 -10 q 38 18 29 13 q 65 22 51 21 q 93 25 78 24 q 138 92 133 40 q 133 181 135 132 q 132 275 132 229 q 131 313 131 294 q 128 348 132 332 q 113 375 124 364 q 76 389 101 386 q 66 403 65 392 q 79 417 67 414 q 105 427 86 417 q 131 456 124 438 q 130 462 131 458 q 129 468 129 465 q 129 481 126 475 q 127 590 128 536 q 126 699 126 644 q 108 722 121 713 q 68 739 96 731 q 26 717 36 736 q 39 657 17 697 q 50 653 43 650 q 63 663 57 656 q 74 678 69 669 q 79 690 79 686 l 67 694 q 61 710 57 701 q 78 717 65 719 q 106 692 104 708 q 95 658 107 675 q 65 632 83 642 q 35 629 47 622 q 15 650 19 638 q 6 682 10 663 q 7 740 -6 722 q 47 764 19 758 l 53 767 q 131 779 90 776 q 139 782 136 782 q 203 783 171 782 q 268 786 236 785 q 282 797 272 797 q 294 786 292 797 l 304 786 q 321 786 313 786 q 339 788 329 786 l 357 788 q 369 776 368 786 q 358 763 369 765 q 350 762 354 763 q 343 761 346 761 q 321 733 325 756 q 319 682 317 710 l 326 635 l 326 631 l 329 622 l 329 624 q 362 528 349 575 q 386 433 375 482 q 412 335 399 385 q 440 236 425 285 q 457 193 446 219 q 482 135 468 167 q 500 216 492 179 q 508 297 508 253 q 520 358 514 328 q 533 419 526 389 q 542 511 538 465 q 551 601 546 557 q 555 649 554 625 q 557 699 556 674 q 556 712 557 706 q 556 725 556 718 q 547 744 553 736 q 528 756 540 753 q 526 756 526 756 q 525 757 526 757 l 507 757 q 493 768 496 757 q 501 783 490 779 q 533 782 521 786 l 574 785 q 590 786 581 792 l 599 789 l 614 789 q 618 790 617 790 q 621 792 619 790 m 664 164 q 666 153 665 158 q 669 140 667 147 q 719 158 694 149 q 768 174 744 167 q 767 181 767 175 q 710 172 736 176 q 664 164 683 167 m 411 233 q 361 228 386 231 q 311 222 336 225 l 317 201 q 365 213 340 208 q 415 224 390 218 l 411 233 m 736 346 q 689 333 713 339 q 640 321 665 326 l 640 313 q 690 318 665 315 q 740 324 714 321 l 736 346 m 301 625 q 256 619 278 622 q 211 611 233 615 l 214 594 q 260 603 238 599 q 306 613 282 607 l 301 625 m 378 333 q 333 321 354 326 q 290 308 313 315 q 292 304 292 307 l 388 310 l 379 333 l 378 333 m 242 475 l 244 461 l 336 481 q 335 488 336 485 l 242 475 m 285 683 q 283 689 283 686 q 252 687 268 688 q 221 683 236 686 l 196 679 l 199 664 q 241 674 219 669 q 285 683 263 679 m 701 689 l 701 694 q 656 692 678 693 q 610 688 633 690 l 610 674 l 701 689 m 346 447 q 343 458 343 456 l 251 440 q 254 432 254 435 l 346 447 m 361 396 l 272 379 q 275 369 275 374 q 319 378 297 374 q 364 385 342 382 l 361 396 m 351 428 q 306 420 328 425 q 261 413 283 415 l 265 403 l 354 419 l 351 428 m 328 515 q 325 526 328 518 q 279 517 301 521 q 235 508 257 513 l 236 501 l 328 515 m 479 32 q 476 40 476 36 q 472 47 475 44 l 381 33 q 382 31 382 32 q 409 32 396 32 q 436 32 422 32 q 439 33 438 32 q 442 33 440 33 q 453 32 447 33 l 479 32 m 728 404 q 726 417 728 413 l 635 404 l 635 401 q 681 402 658 401 q 728 404 704 403 m 679 28 q 692 28 685 29 l 726 35 q 758 44 742 39 q 789 54 774 49 q 735 45 761 50 q 682 35 708 40 q 679 28 679 29 m 742 297 q 692 292 717 294 q 643 286 667 289 q 644 272 643 276 l 742 297 m 679 96 q 682 85 679 93 l 682 83 q 721 95 701 89 q 760 108 740 101 q 679 96 719 104 m 628 507 q 628 501 628 504 q 629 494 629 497 q 672 506 651 501 q 715 517 693 511 l 715 518 q 669 513 692 515 q 628 507 647 510 m 426 189 q 424 197 424 194 l 324 174 l 324 172 l 351 176 q 426 189 386 181 m 732 375 l 732 376 l 636 374 q 637 369 636 371 q 638 364 638 367 l 732 375 m 651 218 q 654 206 651 214 l 732 229 q 693 224 714 226 q 651 218 672 221 m 614 644 q 658 650 636 647 q 704 656 681 653 q 703 660 704 658 q 703 665 703 663 l 692 664 l 614 644 m 297 276 q 300 265 300 268 q 335 272 318 268 q 371 281 353 276 l 297 276 m 311 586 q 265 576 288 581 q 221 568 243 572 l 314 576 l 311 586 m 699 721 q 697 732 699 729 l 624 717 l 699 721 m 783 81 q 783 86 783 83 q 782 92 782 89 l 706 67 q 783 81 740 75 m 285 335 l 346 353 l 361 357 l 282 343 l 285 335 m 463 76 q 462 78 463 78 q 461 82 461 79 l 365 60 l 463 76 m 514 164 q 508 126 511 144 q 501 88 506 107 q 507 72 504 76 l 514 164 m 351 94 q 354 88 351 93 l 426 104 l 351 94 m 622 557 q 624 549 624 554 q 676 564 650 554 l 622 557 m 332 147 q 333 142 332 143 l 422 163 l 332 147 m 749 271 q 709 261 729 265 q 669 253 689 257 l 750 264 q 749 271 750 268 m 651 475 q 685 479 668 478 q 719 482 703 481 q 719 485 719 483 q 718 488 718 486 q 688 482 704 485 q 651 475 671 479 m 768 351 l 761 350 q 764 328 761 342 l 771 328 l 768 351 m 126 742 l 126 757 l 104 754 l 126 742 m 763 406 q 761 422 763 417 q 751 421 758 421 l 754 406 l 763 406 m 172 757 q 174 753 172 754 l 235 761 l 229 761 l 172 757 m 444 135 q 443 140 444 138 l 396 129 l 444 135 m 276 718 q 276 720 275 719 q 275 724 276 721 l 232 713 l 276 718 m 715 201 l 761 208 q 760 210 761 210 q 760 213 760 211 l 715 201 m 293 653 q 292 655 292 654 q 292 657 293 656 l 247 647 l 293 653 m 168 32 q 167 28 167 29 q 165 25 167 26 l 185 25 q 169 38 175 29 q 169 34 169 35 q 168 32 168 33 m 744 493 q 745 488 744 490 q 746 483 746 486 l 753 483 q 752 489 753 486 q 751 494 751 492 q 744 493 747 494 m 154 693 q 155 682 154 686 q 157 671 156 678 l 157 701 q 154 704 154 701 l 154 693 m 131 413 q 121 406 125 407 q 131 399 125 404 l 131 413 m 228 540 l 228 536 l 254 543 l 228 540 m 633 435 l 657 442 l 633 439 l 633 435 m 774 276 l 769 276 q 771 267 771 274 l 774 268 l 774 276 m 692 597 l 707 597 l 707 600 l 692 597 m 326 635 q 328 629 328 633 l 326 631 l 326 635 z "},"N":{"ha":718,"x_min":-1,"x_max":719,"o":"m 568 636 q 569 668 568 653 q 569 699 569 683 q 549 746 567 729 q 488 765 532 763 l 474 765 q 459 774 461 765 q 468 789 457 783 l 468 790 q 489 790 479 790 q 507 788 499 789 q 578 788 543 788 q 647 789 613 788 q 656 790 650 790 q 680 792 667 792 q 708 793 693 793 l 710 793 q 717 779 719 790 q 704 767 715 768 l 703 767 q 629 756 654 767 q 600 700 604 744 l 600 683 q 601 672 600 678 q 601 660 601 667 l 601 647 q 605 482 603 564 q 610 315 607 400 l 610 311 q 616 236 613 274 q 625 163 619 199 q 629 126 626 151 q 632 74 632 101 q 647 41 635 54 q 700 22 660 28 q 713 11 711 19 q 706 -4 714 3 q 679 -11 699 -10 q 636 -11 660 -12 l 635 -11 q 626 -11 631 -14 l 625 -11 q 526 -7 581 -10 q 426 -7 471 -4 q 391 -21 410 -15 q 356 -21 372 -26 q 349 -6 349 -15 q 356 6 350 3 q 369 12 361 10 q 384 14 376 14 q 397 15 392 14 q 401 16 399 15 q 407 17 404 17 q 419 85 429 38 l 407 119 q 389 153 396 138 q 365 209 375 181 q 343 268 354 238 q 259 432 301 350 q 185 601 217 514 l 172 626 q 162 660 167 642 q 150 696 157 679 q 159 434 153 563 q 168 171 165 306 q 169 148 168 160 q 169 125 169 136 q 175 82 172 101 q 187 49 178 63 q 216 32 196 36 q 272 36 236 28 q 288 33 283 39 q 286 17 292 26 q 282 15 285 15 q 283 14 282 14 q 244 8 267 8 q 171 3 206 3 q 104 1 136 4 q 50 -12 79 -12 q 42 1 40 -12 q 50 18 43 15 q 90 24 65 24 q 115 60 106 38 q 126 104 124 83 q 127 143 126 124 q 125 182 128 163 q 122 224 122 203 q 119 267 121 244 q 118 275 117 272 q 115 306 117 289 q 108 335 113 322 q 92 358 103 349 q 63 367 81 367 q 47 376 50 367 q 56 390 44 385 l 58 390 l 58 392 l 60 392 q 89 408 78 400 q 105 428 100 417 q 111 458 110 440 q 113 500 113 475 l 113 501 q 112 599 111 550 q 113 697 113 647 q 90 735 107 724 q 56 745 72 747 q 30 728 39 743 q 33 686 21 713 q 42 691 40 686 q 46 700 44 696 l 39 701 q 35 718 32 708 q 50 725 38 728 q 72 701 72 718 q 61 671 72 683 q 33 658 50 658 q 6 685 17 658 q 0 710 1 696 q 4 738 -1 725 q 13 758 1 743 q 30 770 18 767 q 56 776 42 774 q 82 778 69 778 q 101 778 94 778 l 118 778 q 133 779 125 785 l 139 779 q 149 785 143 785 q 160 779 156 786 q 262 783 208 782 q 358 783 315 783 l 360 783 q 371 782 364 783 q 384 772 381 782 q 376 758 388 761 q 340 741 357 753 q 325 690 322 729 q 332 662 328 676 q 344 629 336 647 q 446 408 393 517 q 554 189 499 300 q 561 174 557 182 q 569 156 565 167 l 588 125 q 583 231 588 178 q 577 317 579 275 q 574 404 575 360 l 574 410 q 569 517 571 460 q 568 629 568 574 l 568 636 m 560 106 l 458 78 l 468 58 q 513 75 488 67 q 564 93 538 83 l 560 106 m 369 272 q 373 264 372 268 q 376 257 374 260 q 379 251 379 251 q 419 269 399 261 q 460 286 439 278 l 456 294 l 403 282 l 369 272 m 529 165 q 478 154 503 161 q 426 142 453 147 q 433 125 428 136 q 476 139 457 133 q 507 150 496 144 l 533 161 l 529 165 m 335 367 l 340 353 q 376 363 358 358 q 414 375 394 368 q 409 384 411 379 q 404 393 407 389 l 346 371 l 335 367 m 206 622 q 208 617 206 619 l 233 625 l 303 646 q 302 650 303 649 q 301 654 301 651 l 203 628 q 206 622 203 625 m 581 56 q 575 68 578 60 l 481 33 q 481 29 481 31 q 482 26 482 28 l 526 42 l 581 56 m 313 424 q 345 432 328 428 q 382 440 363 436 q 378 448 379 444 q 375 456 376 451 l 308 433 l 313 424 m 408 188 q 451 205 431 196 q 494 224 472 214 l 492 226 q 447 214 469 219 q 403 203 425 208 l 408 188 m 272 732 q 265 738 267 735 q 221 722 243 729 q 178 706 199 714 q 179 700 178 703 l 272 728 l 272 732 m 242 560 l 322 585 q 321 589 321 588 q 319 592 321 590 l 235 569 l 242 560 m 299 456 q 331 466 315 461 q 364 478 347 471 q 361 485 364 479 l 315 471 l 294 464 l 299 456 m 188 672 q 233 686 210 679 q 281 700 257 693 q 279 704 281 703 l 185 679 l 188 672 m 311 618 q 310 624 310 621 q 263 610 286 617 q 219 597 240 604 q 221 593 219 594 l 311 618 m 271 510 l 340 535 q 340 538 340 538 q 339 540 339 539 l 267 517 l 271 510 m 508 199 l 446 174 q 481 179 464 176 q 515 186 497 182 l 508 199 m 438 328 q 398 313 418 321 q 360 299 378 306 l 360 297 l 442 319 l 438 328 m 410 232 q 444 241 426 236 q 478 251 461 246 l 474 261 l 410 232 m 590 17 q 589 31 590 25 l 535 17 l 590 17 m 547 136 q 510 123 531 129 q 467 110 490 117 l 550 131 l 547 136 m 290 753 q 299 744 294 750 l 301 740 q 306 749 304 744 q 311 757 308 754 l 285 757 l 290 753 m 115 369 q 115 382 115 376 q 114 394 114 388 q 108 388 111 392 q 99 382 104 385 q 115 369 106 379 m 169 736 q 170 734 169 735 q 171 732 171 733 l 219 751 l 169 736 m 324 397 q 325 393 324 394 q 340 397 332 396 q 357 400 349 397 l 324 397 m 164 21 l 172 21 q 165 29 168 22 q 165 25 165 26 q 164 22 164 24 l 164 21 m 567 765 q 569 762 568 763 q 572 760 571 761 q 573 762 572 761 q 574 765 574 763 l 567 765 m 135 24 q 133 29 135 26 l 129 24 l 135 24 m 350 326 l 350 325 l 358 329 l 350 326 m 454 17 q 453 18 453 17 q 451 17 451 18 l 454 17 z "},"P":{"ha":607,"x_min":-6,"x_max":596,"o":"m 174 128 q 175 132 174 131 q 173 151 174 142 q 172 169 172 160 l 169 193 q 169 210 169 201 q 167 228 168 219 q 156 254 164 243 q 128 265 147 265 q 124 264 126 264 q 108 274 111 264 q 117 290 106 285 q 124 292 121 292 q 132 293 128 293 q 151 310 146 300 q 157 331 156 319 l 154 381 q 149 470 151 425 q 147 560 147 515 q 142 614 144 588 q 138 668 140 640 q 131 698 135 682 q 119 727 128 714 q 98 749 111 740 q 65 757 85 757 q 52 755 58 756 q 39 751 46 754 q 26 732 26 747 q 34 705 26 717 q 53 693 42 693 q 76 719 65 693 q 84 732 76 728 q 100 726 92 736 q 101 713 103 719 q 97 700 100 707 q 79 675 97 682 q 41 673 61 668 q 8 694 21 678 q 4 739 -6 710 q 13 759 7 750 q 26 774 18 768 q 61 783 35 779 q 123 790 88 788 q 198 792 158 792 q 275 792 238 793 q 292 792 285 792 q 306 793 300 793 q 379 786 336 793 q 464 762 422 779 q 539 713 506 744 q 583 633 572 682 q 592 530 596 581 q 570 435 589 479 q 519 354 551 390 q 440 296 486 318 q 360 264 404 275 q 333 232 340 253 q 325 190 326 211 q 330 144 328 165 q 335 100 332 122 q 355 49 342 65 q 401 29 368 33 l 421 29 q 428 12 431 22 q 413 1 426 1 q 389 1 400 -1 q 363 1 375 1 q 338 0 350 0 q 328 -5 335 -3 q 315 0 321 -7 l 314 0 q 213 -3 264 0 q 113 -8 163 -6 q 101 -10 108 -10 q 88 3 89 -10 q 100 18 86 15 q 140 33 124 21 q 165 60 156 44 q 176 94 174 76 q 174 128 178 113 m 368 747 q 357 748 363 749 q 344 746 351 747 q 321 704 329 736 q 308 628 313 672 l 308 606 q 312 558 311 582 q 314 511 313 535 l 326 418 q 334 383 328 403 q 349 345 340 363 q 369 317 358 328 q 392 310 379 307 q 417 344 410 314 q 425 414 424 375 q 424 489 426 453 q 422 540 422 525 q 417 607 421 574 q 406 669 413 640 q 390 719 400 699 q 368 747 381 740 m 306 132 l 303 147 q 206 131 257 142 l 206 107 q 255 119 231 114 q 304 132 279 125 l 306 132 m 269 639 l 207 629 l 171 622 l 171 599 l 269 625 l 269 639 m 310 68 l 310 76 l 307 76 q 257 69 282 72 q 207 60 232 65 l 207 36 l 285 61 l 310 68 m 292 292 q 246 283 268 288 q 200 272 224 278 q 201 253 201 265 q 247 265 225 260 q 293 278 269 271 q 292 292 293 288 m 449 608 q 451 595 450 601 q 451 582 451 589 l 521 611 q 518 622 521 614 l 449 608 m 176 518 l 275 551 q 274 555 275 554 q 274 558 274 556 q 224 547 250 551 q 174 536 199 542 l 176 518 m 297 221 q 251 215 274 218 q 204 206 228 211 l 204 190 l 299 215 q 298 217 299 217 q 297 221 297 218 m 171 676 l 172 676 l 267 704 l 267 708 l 178 694 l 171 693 l 171 676 m 454 536 q 455 529 454 533 q 456 522 456 525 q 492 534 474 529 q 529 546 511 539 q 528 551 529 549 q 528 556 528 553 q 491 547 508 551 q 454 536 474 542 m 194 478 q 182 476 190 476 q 183 460 183 471 l 278 486 l 278 488 l 194 478 m 194 361 l 194 358 q 240 366 217 361 q 286 375 263 371 q 285 380 286 378 q 285 385 285 382 l 194 361 m 453 411 q 451 396 453 400 q 485 409 468 403 q 517 419 501 415 l 519 425 l 453 411 m 172 719 l 267 738 l 267 750 l 172 721 l 172 719 m 281 446 q 280 451 281 449 q 279 456 279 453 l 186 435 q 187 433 186 433 q 188 432 188 433 l 281 446 m 196 338 q 197 333 196 335 q 197 328 197 331 l 288 349 l 288 351 l 196 338 m 190 403 q 192 392 190 396 l 274 411 q 231 407 251 408 q 190 403 210 406 m 206 158 q 250 168 225 163 q 300 178 275 174 l 300 185 q 255 174 279 179 q 206 160 231 168 l 206 158 m 438 669 q 440 657 438 665 q 465 669 451 664 q 490 679 478 674 q 488 683 488 682 l 438 669 m 268 667 l 268 675 l 171 651 l 268 667 m 343 294 q 318 325 328 306 l 318 292 q 331 292 325 292 q 343 294 336 293 m 311 40 l 306 39 l 263 24 l 313 26 l 311 40 m 182 571 q 215 578 192 572 q 271 592 239 585 l 271 596 q 222 583 247 589 q 172 569 197 576 l 172 568 l 182 571 m 526 469 l 456 450 l 456 449 l 526 460 l 526 469 m 432 319 q 468 344 453 331 l 439 338 l 432 319 m 504 657 l 458 638 q 483 643 471 640 q 508 649 496 646 l 504 657 m 547 657 q 540 671 546 663 q 524 664 529 665 l 529 653 l 547 657 m 529 513 l 529 518 l 456 494 l 529 513 m 565 589 q 564 600 565 596 l 549 592 q 550 585 550 589 l 565 589 m 461 367 q 480 370 471 368 q 497 375 489 372 l 501 381 l 461 367 m 554 553 l 567 557 l 567 564 q 554 561 563 564 l 554 553 m 560 626 q 559 628 560 628 q 558 629 558 628 l 540 626 q 541 622 540 624 q 542 619 542 621 q 560 626 550 621 m 167 21 l 179 21 l 179 35 l 167 21 m 294 756 q 295 747 294 751 q 296 739 296 743 q 297 742 296 739 q 304 754 300 750 q 299 755 301 754 q 294 756 297 756 m 565 531 l 556 526 l 556 519 l 565 522 l 565 531 m 422 714 l 440 722 q 438 724 438 722 l 436 724 l 419 719 l 422 714 m 263 244 l 296 249 l 296 253 l 263 244 m 556 476 l 553 476 q 551 464 551 472 l 556 476 m 501 713 q 497 715 499 715 l 489 711 l 490 711 l 501 713 m 524 693 l 522 693 l 508 689 q 510 688 510 689 l 524 693 m 276 517 l 276 519 l 264 515 l 276 517 m 526 582 l 515 578 q 521 578 518 578 q 526 579 524 579 l 526 582 m 182 751 l 192 754 l 182 753 l 182 751 m 290 321 l 285 319 l 290 319 l 290 321 z "},"Q":{"ha":697,"x_min":21,"x_max":699,"o":"m 540 38 q 534 43 538 42 q 528 47 531 44 q 376 -3 463 1 q 314 -10 342 -10 q 216 10 261 -7 q 138 61 171 26 q 65 172 94 106 q 28 314 36 238 q 41 472 21 390 q 115 628 61 553 q 182 705 150 676 q 248 747 214 733 q 320 762 282 760 q 404 760 358 764 q 535 709 479 749 q 627 610 592 669 q 677 479 663 551 q 683 333 692 407 q 652 211 675 267 q 589 113 629 156 q 560 76 578 94 q 566 69 564 72 q 569 64 568 65 q 601 33 590 44 q 622 16 613 21 q 643 15 632 11 q 675 32 654 18 q 692 31 685 35 q 696 15 699 26 q 679 -12 690 3 q 654 -41 668 -26 q 626 -71 640 -56 q 603 -99 613 -86 l 588 -121 q 571 -122 578 -129 q 567 -104 564 -115 q 586 -74 572 -90 q 583 -17 597 -42 q 540 38 569 8 m 399 728 q 357 718 375 731 q 324 684 339 706 q 299 633 310 663 q 281 574 289 604 q 270 495 274 531 q 266 426 267 460 q 267 356 265 392 q 274 276 269 319 q 279 223 275 261 q 292 144 283 185 q 314 73 300 104 q 351 40 328 42 q 379 52 365 39 q 410 113 393 65 q 418 140 414 126 q 425 167 422 153 l 379 222 q 358 245 369 233 q 338 272 347 257 q 328 285 329 275 l 328 296 q 337 307 331 304 q 350 304 343 310 q 367 300 358 308 q 402 261 385 281 q 436 221 419 242 q 450 301 442 253 q 465 406 458 350 q 474 517 472 461 q 470 618 476 572 q 447 694 464 664 q 399 728 431 724 m 488 256 q 488 243 488 249 q 486 232 488 238 q 558 257 522 243 q 631 283 593 271 l 631 285 l 504 260 l 488 256 m 117 486 q 181 503 149 494 q 244 521 213 511 q 246 528 246 524 l 122 508 l 117 486 m 101 407 q 165 431 135 419 q 219 450 196 443 l 231 453 l 231 456 l 106 435 l 101 407 m 497 394 q 497 383 497 389 q 496 372 497 378 q 558 395 528 383 q 619 419 588 407 l 538 406 l 497 394 m 221 389 q 159 381 189 385 q 99 374 129 376 q 97 353 97 367 q 166 372 133 364 q 221 386 199 381 l 221 389 m 176 628 q 222 638 200 633 q 268 650 244 643 q 269 654 268 653 q 269 658 269 656 l 192 649 l 176 628 m 628 344 l 628 350 q 560 331 593 340 q 492 315 526 322 q 491 309 492 313 q 490 303 490 306 l 628 344 m 182 93 l 199 78 l 244 89 q 238 110 239 103 l 182 93 m 522 213 q 569 212 546 213 q 617 214 593 211 l 625 233 l 625 235 l 522 213 m 558 517 q 529 503 543 510 q 500 490 515 497 l 500 488 l 594 513 l 590 526 l 558 517 m 221 197 q 173 186 197 192 q 126 176 149 181 q 132 164 129 168 q 176 177 154 171 q 221 190 199 183 l 221 197 m 603 489 q 547 474 574 482 q 500 460 521 467 l 500 443 q 526 456 513 450 q 553 468 539 463 l 603 488 l 603 489 m 481 183 q 478 168 481 176 l 481 164 q 519 173 500 168 q 556 183 538 178 l 481 183 m 214 294 q 157 278 185 285 q 103 264 129 271 l 103 261 l 215 282 l 215 294 l 214 294 m 256 594 q 201 585 228 589 q 149 576 175 581 l 140 560 q 191 576 165 568 q 242 590 217 583 l 256 594 m 522 351 q 573 363 547 357 q 625 376 599 369 q 624 389 625 385 l 522 351 m 547 542 q 563 547 554 544 q 579 551 571 549 q 578 556 579 554 l 525 544 q 513 541 518 542 q 501 539 507 540 l 501 522 q 524 533 513 528 q 547 542 535 538 m 554 604 l 547 614 l 501 600 l 501 586 l 554 604 m 61 428 l 57 397 l 78 400 l 82 431 l 68 429 l 61 428 m 218 678 q 249 683 233 681 q 282 686 265 685 l 289 700 l 224 685 l 218 678 m 99 300 l 99 293 q 154 306 128 300 q 203 319 181 313 l 107 303 l 99 300 m 551 438 q 614 446 585 443 l 610 461 l 551 438 m 71 472 q 90 478 79 475 q 94 490 93 485 q 96 501 94 496 l 78 497 q 74 485 75 490 q 71 472 72 479 m 74 346 q 75 367 74 360 l 56 358 l 56 340 l 74 346 m 108 235 q 110 228 108 231 q 146 238 128 233 q 183 249 164 242 l 108 235 m 146 338 q 183 343 165 340 q 217 349 200 346 l 217 357 l 146 338 m 269 119 q 260 117 265 119 q 267 93 261 106 q 272 94 269 93 q 276 94 274 94 q 272 107 274 101 q 269 119 271 113 m 111 550 l 119 574 q 116 573 117 574 q 113 572 115 572 l 97 546 l 111 550 m 479 79 q 490 79 485 79 q 503 81 496 79 q 496 88 499 83 q 470 83 483 85 q 444 78 457 81 q 462 78 453 78 q 479 79 471 79 m 253 565 q 228 558 240 563 q 201 550 215 553 l 251 557 l 253 565 m 314 28 q 296 50 304 36 l 289 47 q 294 38 292 42 q 300 31 297 33 q 314 28 311 28 m 238 493 q 213 485 225 489 q 189 478 201 481 l 236 485 l 239 493 l 238 493 m 585 160 l 589 167 l 533 154 l 585 160 m 649 450 q 647 461 649 456 q 644 474 646 467 q 638 471 639 471 l 643 449 q 646 449 644 449 q 649 450 647 450 m 628 538 q 617 535 619 535 l 622 521 l 632 524 l 628 538 m 582 304 l 629 314 l 629 319 l 582 304 m 513 124 l 515 119 l 561 131 l 513 124 m 631 -11 q 636 -24 633 -15 l 649 -10 q 640 -11 644 -11 q 631 -11 635 -11 m 75 288 l 75 294 l 60 290 q 60 287 60 288 q 61 283 61 286 l 75 288 m 471 115 q 461 114 464 115 l 458 107 l 475 110 l 471 115 m 531 639 l 528 644 l 504 631 l 531 639 m 85 221 q 84 225 85 224 q 83 229 83 226 l 74 228 q 76 218 76 222 q 85 221 82 221 m 586 617 l 581 624 q 577 623 578 624 q 574 622 576 622 l 578 614 l 586 617 m 553 660 l 549 657 l 556 647 l 561 650 l 553 660 m 182 147 q 204 152 193 150 q 226 157 215 154 l 226 158 l 182 147 m 225 422 q 215 417 219 419 q 206 414 211 415 l 224 415 q 224 419 224 418 q 225 422 225 419 m 103 154 q 104 155 104 154 q 106 156 104 156 l 99 171 l 96 171 l 103 154 m 606 585 q 603 590 603 590 l 593 586 q 594 583 594 585 l 606 585 m 251 203 q 244 201 247 203 l 244 197 q 249 198 247 197 q 253 199 250 199 q 252 201 253 200 q 251 203 251 201 m 510 667 q 508 667 508 667 q 507 668 508 668 l 497 663 q 498 661 497 661 q 499 660 499 661 l 510 667 m 250 163 q 258 165 256 165 q 258 167 258 167 q 257 169 257 168 q 250 167 251 167 l 250 163 m 650 400 q 651 383 651 394 l 653 383 l 653 400 l 650 400 m 417 49 l 414 46 l 432 49 l 417 49 m 607 558 q 617 561 615 561 l 617 563 l 606 561 q 606 560 606 560 q 607 558 607 560 m 461 224 l 463 224 l 467 249 l 461 224 m 242 232 l 247 233 l 247 236 l 242 235 l 242 232 m 197 222 l 218 226 l 218 228 l 197 222 m 242 286 l 242 297 q 240 286 240 293 l 242 286 m 532 681 l 531 682 q 529 681 529 682 l 532 681 m 79 258 q 76 257 78 257 l 79 257 l 79 258 z "},"R":{"ha":671,"x_min":0,"x_max":671,"o":"m 17 715 q 62 735 35 731 q 113 743 89 740 l 164 760 l 171 764 q 173 763 172 764 q 175 763 174 763 q 213 772 194 768 q 249 779 231 776 q 316 788 289 783 q 379 789 343 792 q 393 789 386 789 q 407 788 400 789 q 522 740 483 781 q 542 640 560 700 l 540 639 q 500 568 529 603 q 456 533 482 546 q 399 510 429 519 l 400 510 q 503 478 465 508 q 563 401 542 449 q 607 194 599 331 q 609 166 607 183 q 614 129 611 149 q 615 127 614 128 q 615 125 615 126 q 615 122 615 124 q 614 119 614 121 q 615 103 615 111 q 615 85 615 94 q 622 47 617 63 q 639 29 626 32 q 648 32 644 31 q 657 33 651 33 q 671 19 671 33 l 671 17 q 664 6 669 8 q 643 1 653 1 q 640 1 642 1 q 638 0 639 0 q 594 -1 617 -3 q 550 0 571 0 q 485 6 518 1 q 422 3 453 10 q 415 1 419 1 q 401 12 403 1 q 410 28 399 22 l 413 28 l 413 29 q 450 81 443 33 l 450 131 q 447 184 447 158 q 447 238 447 210 q 435 364 444 306 q 401 450 425 422 q 373 474 386 467 q 344 481 360 481 q 329 460 335 475 q 320 426 324 446 q 317 385 317 407 q 317 343 317 363 l 324 228 q 326 202 324 219 q 330 163 328 185 q 333 117 332 140 q 335 75 335 94 q 342 48 338 58 q 354 36 346 38 q 356 37 356 36 q 358 38 357 38 q 375 38 369 44 q 374 19 381 31 q 372 18 374 18 l 374 18 q 371 17 372 17 q 358 11 367 11 q 306 2 333 1 q 249 6 278 3 q 190 13 219 10 q 132 10 161 15 q 125 6 129 7 q 118 4 121 6 l 100 -1 q 86 8 89 -1 q 90 24 83 17 q 103 28 97 26 q 115 33 108 31 q 152 61 139 44 q 168 125 165 78 q 169 192 168 160 q 168 265 169 225 q 163 330 167 297 q 154 394 158 363 q 139 426 149 414 q 113 436 129 439 q 96 431 107 433 q 81 440 83 431 q 90 456 79 450 q 103 458 99 458 q 137 500 131 471 q 143 560 143 529 q 142 581 142 567 q 140 606 142 589 q 137 642 138 622 q 136 683 136 661 q 140 721 136 704 q 93 715 119 717 q 49 706 67 713 q 25 683 31 699 q 40 633 19 667 q 68 640 53 631 q 83 661 83 649 l 75 665 q 69 683 65 672 q 86 690 74 693 l 100 685 q 108 669 107 679 q 93 626 108 644 q 59 604 78 607 q 23 619 40 601 q 1 685 6 638 q 5 703 0 693 q 17 715 10 713 m 364 707 q 338 734 353 724 q 303 742 322 744 q 300 701 300 725 q 302 651 300 676 q 308 599 304 625 q 318 551 311 572 q 356 539 336 533 q 378 560 369 543 q 380 633 383 594 q 364 707 376 672 m 294 82 q 294 95 294 89 q 293 108 293 101 q 255 97 275 103 q 213 85 235 92 l 213 69 l 294 82 m 179 483 q 182 482 179 483 q 226 495 204 489 q 272 508 249 501 q 272 514 272 511 q 271 519 271 517 q 222 511 247 515 q 175 501 197 507 l 179 483 m 208 346 q 201 344 204 344 q 196 343 199 344 l 196 335 q 197 327 196 331 q 197 321 197 324 l 278 346 l 278 356 l 208 346 m 479 242 l 571 256 q 570 263 571 260 q 569 271 569 267 q 521 263 543 267 q 479 254 499 260 l 479 242 m 285 228 q 283 249 283 235 l 200 226 q 201 215 201 224 l 226 221 l 285 228 m 264 744 q 231 739 247 742 q 199 735 215 736 l 167 721 l 167 714 l 264 732 l 264 744 m 515 646 q 517 653 517 649 l 414 631 l 414 615 q 465 631 439 624 q 515 646 490 638 m 296 60 q 254 55 275 57 q 214 50 233 53 l 214 42 l 254 36 l 297 53 q 297 56 297 56 q 296 60 296 57 m 579 51 q 578 57 579 54 q 578 63 578 60 q 532 57 554 60 q 486 50 510 54 l 486 42 l 579 51 m 275 400 l 193 375 l 193 371 q 206 374 207 374 q 240 379 224 376 q 276 385 257 382 l 276 388 l 275 400 m 481 196 q 528 209 504 203 q 576 222 553 215 q 576 224 576 224 q 575 228 575 225 l 481 206 l 481 196 m 204 189 q 206 174 206 183 l 286 197 l 286 200 l 229 193 l 204 189 m 581 157 q 531 152 556 154 q 483 147 507 150 q 484 139 483 143 q 485 131 485 135 l 581 157 m 190 401 l 275 424 l 275 425 q 231 421 253 422 q 188 418 210 419 l 190 401 m 210 128 q 210 122 210 125 q 211 114 211 118 l 290 136 l 290 140 l 210 128 m 396 707 l 479 726 l 472 732 q 467 735 469 733 q 463 738 465 736 l 396 708 l 396 707 m 281 303 q 280 309 281 306 q 279 315 279 313 q 238 303 258 308 q 197 293 218 299 l 197 286 q 222 292 208 289 q 251 299 235 296 l 281 303 m 169 631 l 169 614 l 215 629 q 228 634 222 632 q 242 639 235 636 l 169 631 m 407 567 q 406 557 407 560 l 453 571 l 468 583 l 408 571 q 407 567 407 569 m 240 460 l 217 447 q 246 450 232 449 q 274 454 260 451 l 274 469 l 240 460 m 282 281 l 197 260 q 198 256 197 257 q 199 251 199 254 l 282 276 l 282 281 m 406 682 q 408 672 406 678 l 501 686 q 452 685 481 685 q 406 682 424 685 m 482 176 l 579 186 l 579 194 l 482 178 l 482 176 m 467 375 l 467 372 q 496 384 482 379 q 525 394 510 389 q 524 397 525 397 q 496 392 510 394 q 468 386 482 389 l 464 385 l 467 375 m 478 282 q 515 289 493 285 q 563 297 538 293 q 561 304 561 300 q 519 294 540 299 q 478 283 497 290 l 478 282 m 486 79 l 486 74 l 578 89 l 578 92 l 486 79 m 451 438 l 481 451 q 477 456 478 454 q 474 458 476 457 q 460 455 467 457 q 447 451 454 453 l 451 438 m 475 317 q 476 313 475 314 q 476 310 476 313 l 553 331 l 553 332 l 475 317 m 485 101 q 528 111 499 104 q 579 122 558 118 q 580 125 579 124 q 581 128 581 126 q 557 122 571 125 q 530 115 543 118 q 504 108 517 111 q 485 103 492 104 l 485 101 m 542 364 q 508 352 525 357 q 475 342 492 347 l 544 356 l 542 364 m 171 556 l 240 576 l 171 563 l 171 556 m 167 688 l 167 682 q 199 690 182 686 q 232 699 215 693 l 167 688 m 383 729 l 439 749 l 438 750 l 381 733 l 383 729 m 267 618 l 228 604 l 267 610 l 267 618 m 499 433 l 472 419 l 506 425 l 499 433 m 269 547 l 269 553 l 213 533 l 269 547 m 150 449 l 150 471 q 139 456 146 463 l 150 449 m 389 760 q 374 760 382 761 q 358 760 365 760 l 360 756 l 389 760 m 179 43 l 175 51 l 169 43 l 179 43 m 438 476 q 435 478 436 476 l 435 476 l 438 476 z "},"S":{"ha":489,"x_min":14,"x_max":464,"o":"m 14 565 q 40 678 14 629 q 108 756 67 726 q 200 795 150 785 q 297 794 250 806 q 371 769 340 790 q 421 718 401 749 q 449 650 440 688 q 457 575 458 613 q 449 511 464 547 q 411 485 433 492 q 365 482 389 479 q 328 493 346 483 q 297 517 310 503 q 281 547 285 531 q 285 581 276 564 q 297 631 292 603 q 301 687 303 660 q 291 734 300 714 q 261 758 282 754 q 233 752 246 761 q 208 727 219 743 q 189 692 197 711 q 176 656 181 674 q 176 553 172 613 q 192 446 179 494 q 202 428 197 436 q 210 410 207 421 l 218 399 l 224 392 q 269 354 244 368 q 317 328 293 340 q 365 301 342 315 q 404 260 388 286 q 429 219 419 242 q 440 165 439 196 q 439 140 440 153 q 433 113 438 128 q 410 63 426 85 q 369 26 393 42 l 354 18 q 315 1 335 7 q 274 -8 294 -6 q 201 -7 236 -15 q 143 25 165 1 q 116 90 121 49 q 133 189 111 131 q 148 206 138 199 q 171 216 158 213 q 197 220 183 219 q 219 218 210 221 q 248 203 236 214 q 253 169 260 192 q 249 154 257 163 q 233 126 239 143 q 228 90 228 108 q 235 56 229 72 q 254 29 242 39 q 275 26 260 24 q 290 42 282 31 q 306 75 299 54 q 310 213 332 149 q 225 318 289 278 l 219 321 q 146 353 182 335 q 81 398 110 371 q 33 465 51 425 q 14 565 15 506 m 414 164 q 413 167 414 165 q 413 169 413 168 l 349 163 l 349 144 l 414 161 l 414 164 m 315 542 q 366 563 336 551 q 426 585 396 574 l 426 586 l 310 556 l 315 542 m 428 547 l 428 557 l 392 544 l 338 521 q 339 520 339 521 q 340 519 339 519 l 425 542 l 428 547 m 53 496 q 92 509 72 503 q 132 524 111 515 l 47 511 q 49 510 47 510 l 53 496 m 404 690 q 369 676 388 683 q 331 660 350 668 l 331 656 l 367 667 l 411 676 l 404 690 m 203 60 q 201 69 201 64 q 201 78 201 74 l 151 64 q 158 54 153 60 q 181 56 169 56 q 203 60 192 57 m 56 632 l 144 656 l 144 658 q 101 652 122 654 q 61 647 81 650 l 56 632 m 325 592 q 318 583 319 586 q 358 593 338 588 q 399 604 379 599 l 376 608 l 367 608 l 325 592 m 94 708 q 124 717 110 713 q 153 726 138 721 l 157 735 l 119 731 q 112 726 115 728 q 106 721 108 724 l 94 708 m 407 117 q 413 132 410 124 q 381 124 397 128 q 347 115 364 121 q 347 113 347 114 q 346 110 346 113 l 407 117 m 46 533 q 95 542 71 538 q 142 551 119 547 l 142 561 q 94 548 118 554 q 46 535 69 542 l 46 533 m 157 164 l 224 186 l 224 188 l 167 182 q 157 165 157 175 l 157 164 m 150 486 q 149 492 150 489 q 149 497 149 494 l 64 471 l 65 469 l 150 486 m 47 576 q 47 572 47 574 q 46 567 46 569 l 142 592 l 142 593 l 47 576 m 319 731 q 320 728 319 729 q 321 725 321 726 l 369 736 q 356 747 361 744 l 319 731 m 368 636 q 369 637 369 636 q 371 638 369 638 l 418 653 l 418 654 l 328 635 q 327 630 328 632 q 326 625 326 628 q 367 636 349 636 l 368 636 m 113 415 q 117 413 114 415 l 169 424 l 165 433 l 113 415 m 181 146 q 208 156 197 150 q 224 167 218 161 q 194 157 208 161 q 165 147 179 153 q 181 146 171 144 m 336 75 l 392 89 q 393 92 392 89 l 340 85 l 336 75 m 82 446 q 85 443 85 444 q 89 439 86 442 q 122 450 106 446 q 156 460 139 454 l 82 446 m 203 106 l 146 94 q 147 90 146 92 q 147 86 147 89 l 203 106 m 308 753 l 329 763 q 313 767 322 765 q 299 768 304 769 l 308 753 m 150 390 q 161 383 156 388 l 186 392 l 183 397 l 150 390 m 328 699 q 329 690 328 693 l 379 713 l 328 699 m 344 213 q 360 215 347 213 q 393 222 374 218 l 393 224 l 339 217 q 340 211 339 213 l 344 213 m 325 250 q 326 249 325 249 l 371 253 q 363 260 365 258 l 325 250 m 146 688 q 147 692 146 690 q 147 694 147 693 l 99 682 q 122 684 110 683 q 146 688 133 685 m 192 29 l 207 42 l 207 44 l 181 33 l 192 29 m 143 624 l 96 613 l 143 619 l 143 624 m 310 279 q 318 282 314 281 q 328 285 322 283 q 322 288 325 288 l 306 285 l 310 279 m 318 35 q 330 40 325 38 q 342 46 335 43 l 322 42 l 318 35 m 206 367 l 196 364 l 200 361 l 210 363 l 206 367 m 425 622 q 424 629 425 626 l 417 626 l 425 622 m 400 196 l 406 196 l 406 197 l 400 196 z "},"T":{"ha":518,"x_min":11,"x_max":506,"o":"m 179 563 q 178 618 176 586 q 176 678 179 650 q 162 725 174 707 q 122 739 150 743 q 95 728 104 736 q 81 708 86 719 q 74 681 76 696 q 71 650 72 665 q 69 639 74 643 q 56 635 64 635 l 40 635 q 29 643 31 635 q 25 670 26 654 q 21 701 24 686 q 17 740 18 719 q 15 756 11 749 q 26 763 19 763 q 29 765 26 765 q 44 768 36 771 q 83 770 63 771 q 122 767 103 769 l 174 772 q 202 773 188 772 q 232 774 217 774 q 324 780 278 776 q 417 786 369 783 q 442 785 429 788 q 468 783 454 783 l 469 783 q 476 784 472 783 q 482 785 479 785 q 492 785 486 788 l 493 785 q 504 775 503 782 q 499 763 506 768 q 503 708 501 735 q 506 651 506 681 q 494 640 506 643 q 481 639 488 639 q 468 639 475 639 q 457 650 457 639 q 452 686 456 668 q 442 719 449 704 q 424 742 435 733 q 396 749 413 750 q 356 734 371 747 q 335 701 342 721 q 328 655 329 681 q 328 601 328 629 l 328 593 l 326 593 l 326 590 q 328 486 328 538 q 332 382 329 435 l 340 264 l 353 93 q 378 48 360 65 q 428 32 396 31 q 432 33 431 32 q 436 33 433 33 q 448 22 447 33 q 438 8 449 11 q 291 -4 365 1 q 143 -10 217 -10 q 140 -9 140 -10 q 136 -8 139 -8 l 131 -8 q 85 17 94 -7 q 85 63 76 40 q 113 99 93 86 q 151 93 132 111 q 165 74 160 86 q 167 50 169 61 q 156 38 165 40 q 144 39 150 38 q 136 41 140 40 q 129 44 132 42 q 123 62 118 53 q 138 69 128 71 q 121 69 132 78 q 105 49 110 61 q 107 27 100 38 q 144 21 114 17 l 161 22 q 193 49 185 31 q 201 93 201 67 q 193 190 197 140 q 186 290 189 239 q 185 292 186 292 q 185 293 185 292 q 172 325 182 311 q 136 339 161 339 q 122 349 124 339 q 131 365 119 360 q 159 381 149 371 q 174 406 169 392 q 178 436 178 419 q 179 469 179 453 l 179 563 m 300 447 q 261 440 281 444 q 222 431 242 435 l 222 425 q 262 425 242 425 q 303 426 282 425 l 300 447 m 272 81 q 256 78 265 79 q 233 75 247 76 q 234 67 233 71 q 235 61 235 64 q 277 69 256 64 q 321 78 299 74 q 320 81 321 79 q 319 83 319 82 q 293 82 306 82 q 272 81 281 82 m 299 486 q 299 499 299 493 q 297 510 299 504 l 285 508 l 229 490 q 251 488 239 489 q 282 488 263 488 q 299 486 288 486 m 221 533 l 221 514 l 296 535 l 296 539 l 221 533 m 292 644 l 221 626 l 221 621 q 256 624 238 622 q 292 628 274 626 l 292 644 m 310 228 q 269 224 289 226 q 228 219 249 222 q 228 211 228 215 q 229 203 229 207 q 274 216 253 210 q 310 226 294 222 l 310 228 m 313 172 q 312 181 311 176 q 311 192 313 186 l 240 171 q 276 171 258 171 q 313 172 293 171 m 290 692 q 290 701 290 696 q 289 710 289 706 q 255 697 272 703 q 221 686 238 692 l 221 685 l 290 692 m 221 558 l 221 556 l 294 563 l 294 574 l 221 558 m 226 274 l 258 286 q 271 289 264 288 q 285 292 278 290 q 300 296 292 293 q 281 295 289 296 q 271 294 272 294 l 226 288 l 226 274 m 325 42 q 324 47 324 44 q 324 51 325 49 q 279 42 301 46 q 236 36 257 39 l 236 35 l 325 42 m 289 144 q 260 144 274 144 q 231 143 246 143 q 231 138 231 140 q 232 132 232 135 q 289 144 256 136 m 221 729 l 221 717 q 269 733 246 724 l 221 729 m 317 113 q 316 117 317 115 q 315 122 315 119 q 283 114 297 118 q 251 107 268 110 l 317 113 m 308 268 l 244 253 l 308 260 l 308 268 m 254 368 l 304 371 l 304 379 l 254 368 m 225 328 l 279 340 q 251 338 265 338 q 225 336 238 338 l 225 328 m 268 400 q 246 399 257 400 q 224 399 235 399 l 224 390 l 268 400 m 478 706 q 478 719 478 713 q 476 733 478 726 l 463 731 q 472 719 468 725 q 478 706 475 713 m 57 725 q 60 729 57 726 l 44 726 l 47 704 q 57 725 51 718 m 221 590 l 221 586 q 244 591 232 589 q 268 596 256 593 q 255 595 261 596 q 243 594 249 594 l 221 590 m 222 465 l 222 458 l 246 464 l 222 465 m 183 351 q 183 360 183 356 q 182 368 182 364 l 174 358 l 183 351 m 335 747 l 324 747 l 324 735 l 335 747 m 179 746 q 181 744 179 744 l 185 739 l 185 746 l 179 746 m 221 656 q 226 657 224 656 l 221 656 z "},"U":{"ha":738,"x_min":-1,"x_max":739,"o":"m 650 660 q 656 531 654 594 q 653 406 657 468 q 637 281 649 344 q 603 153 625 218 q 553 69 585 101 l 543 53 q 491 15 526 28 q 414 -1 456 1 q 331 3 372 -4 q 264 28 290 11 q 249 37 257 32 q 235 44 242 42 q 206 74 215 54 q 182 110 196 94 q 146 201 156 144 q 135 319 136 257 q 120 357 129 342 q 94 374 111 372 l 93 374 q 78 386 81 374 q 86 401 75 399 q 123 420 111 407 q 138 457 135 433 q 138 463 138 460 q 139 471 139 467 q 136 586 136 529 q 131 703 136 643 q 104 743 126 736 q 50 746 82 750 q 47 744 50 746 q 39 742 44 742 q 31 729 31 736 q 35 717 31 722 q 50 708 40 711 q 72 710 60 706 l 68 718 q 74 735 64 731 q 92 731 83 740 q 98 715 96 721 q 100 700 100 710 q 94 689 100 693 q 40 685 63 678 q 8 708 17 693 q 3 741 -1 724 q 29 767 7 758 q 36 769 31 767 q 39 770 38 769 q 43 771 40 771 q 118 785 76 781 q 202 789 160 789 q 285 788 244 789 q 360 786 326 786 q 369 768 375 782 q 360 758 367 760 q 332 748 339 756 q 324 729 325 740 q 324 703 324 718 q 321 669 325 688 q 319 488 319 575 q 322 300 319 401 q 338 159 325 228 q 375 56 351 90 q 407 44 388 42 q 438 57 422 44 q 451 101 446 75 q 458 158 456 128 q 463 217 461 188 q 465 269 464 246 q 466 290 465 281 q 468 311 467 300 q 467 374 468 344 q 464 432 465 403 q 460 492 463 461 q 456 558 458 522 q 451 634 451 596 q 449 710 451 672 q 447 725 447 717 q 443 740 446 733 q 433 751 442 747 q 419 753 431 753 q 404 765 406 753 q 418 779 403 776 l 421 779 q 423 780 422 779 q 426 781 424 781 q 574 785 500 781 q 719 782 647 789 q 723 781 722 782 q 725 781 724 781 q 738 765 736 778 q 728 751 739 751 q 672 733 688 753 q 651 674 656 714 l 650 660 m 171 654 q 220 669 194 661 q 281 689 246 678 l 281 697 q 225 688 253 692 q 171 679 197 685 l 171 654 m 297 281 q 297 283 297 282 q 296 285 296 283 l 176 257 l 181 239 l 297 278 l 297 281 m 289 388 l 165 356 l 165 349 q 225 360 193 354 q 289 372 257 365 l 289 388 m 299 153 q 298 163 299 158 q 297 174 297 168 l 211 142 l 215 133 l 299 153 m 499 383 l 581 396 l 581 411 l 499 397 l 499 383 m 296 249 q 242 230 268 239 q 188 213 215 221 l 188 211 q 242 219 215 214 q 296 229 268 225 l 296 249 m 496 546 l 581 568 l 581 578 l 496 563 l 496 546 m 286 447 q 285 459 286 454 q 285 469 285 464 l 192 439 l 286 447 m 172 590 q 229 606 201 599 q 281 619 257 613 l 281 625 q 235 616 257 621 q 192 608 213 611 l 172 603 l 172 590 m 285 522 l 285 539 q 227 521 257 531 q 167 500 197 511 l 167 499 l 197 507 l 285 522 m 293 325 q 232 309 263 317 q 171 290 201 301 q 172 288 171 289 q 172 285 172 288 l 293 315 l 293 325 m 496 315 q 576 324 538 318 q 577 330 576 326 q 578 336 578 333 q 536 331 557 333 q 496 326 515 329 l 496 315 m 499 482 q 540 492 518 488 q 582 501 561 496 l 582 510 q 539 503 560 507 q 499 494 518 499 l 499 482 m 288 419 l 164 407 l 164 396 q 192 401 175 397 q 227 407 210 404 q 261 413 244 410 q 288 418 278 415 l 288 419 m 489 726 q 531 731 508 729 q 578 736 554 733 l 578 753 q 541 742 563 749 q 489 729 519 736 l 489 726 m 579 642 l 492 629 q 492 623 492 626 q 493 617 493 619 l 579 638 l 579 642 m 283 726 q 285 742 285 732 l 203 714 l 283 726 m 164 458 l 169 461 q 211 475 190 468 q 253 489 232 482 l 165 472 q 165 466 165 469 q 164 460 164 463 l 164 458 m 499 54 q 508 60 503 57 q 517 67 513 63 l 467 67 q 464 59 465 63 q 460 51 463 56 l 499 54 m 493 179 q 492 165 493 169 l 560 179 l 560 183 l 493 179 m 489 697 l 489 688 l 578 710 l 578 713 l 489 697 m 496 217 l 568 238 l 496 232 l 496 217 m 319 72 l 268 58 l 285 47 l 324 67 l 319 72 m 307 108 q 274 97 290 103 q 242 85 257 92 q 244 82 242 85 q 276 90 260 85 q 310 99 293 94 q 307 108 307 104 m 581 603 l 581 613 l 494 594 l 494 593 l 581 603 m 578 679 q 532 669 554 674 q 490 658 510 664 l 490 657 l 578 671 l 578 679 m 283 589 l 171 564 l 171 563 l 283 582 l 283 589 m 582 544 l 497 521 l 497 519 q 534 526 514 522 q 582 535 554 531 l 582 544 m 261 192 q 196 183 228 186 l 200 169 l 261 192 m 569 440 q 533 439 550 439 q 499 439 515 439 l 499 426 l 569 440 m 579 365 l 497 354 l 497 347 l 579 363 l 579 365 m 549 139 q 551 149 551 147 l 488 135 l 488 133 q 517 135 500 133 q 549 139 533 138 m 164 743 q 165 736 164 740 q 165 729 165 732 l 218 749 q 191 745 204 746 q 164 743 178 744 m 625 401 q 626 411 625 407 q 626 419 626 415 l 610 417 l 610 400 l 625 401 m 626 542 q 626 548 626 544 q 625 556 625 551 l 608 551 l 608 539 l 626 542 m 608 471 q 617 471 613 471 q 626 472 622 471 l 626 485 l 608 481 l 608 471 m 538 107 q 510 108 525 107 q 482 110 494 108 q 481 103 482 106 l 538 106 l 538 107 m 607 607 q 615 608 611 607 q 622 608 619 608 l 622 622 l 607 618 l 607 607 m 563 297 q 496 289 531 292 l 496 282 l 563 297 m 606 760 l 606 740 l 615 740 q 614 760 614 747 l 606 760 m 342 43 l 319 33 l 329 31 l 349 36 l 342 43 m 619 678 q 619 683 619 681 q 618 688 618 685 q 606 685 614 688 l 606 675 l 619 678 m 621 331 q 622 342 622 335 q 616 341 619 342 q 610 340 613 340 l 610 329 q 621 331 614 331 m 626 517 l 608 514 l 608 507 l 626 513 l 626 517 m 281 654 l 281 660 l 244 647 l 281 654 m 607 575 l 624 581 l 624 585 l 607 582 l 607 575 m 549 467 q 565 467 557 467 q 582 468 574 468 l 582 474 l 549 467 m 564 206 l 564 213 l 539 206 l 564 206 m 572 272 q 556 268 563 269 q 540 265 549 267 l 572 267 l 572 272 m 169 535 l 169 531 l 204 543 l 169 535 m 613 268 q 614 279 613 275 q 607 278 611 278 l 607 268 l 613 268 m 135 385 l 135 396 q 132 392 133 393 q 129 390 131 392 l 135 385 m 643 760 l 643 757 l 646 760 l 643 760 m 601 219 q 603 222 601 221 l 601 222 l 601 219 z "},"V":{"ha":613,"x_min":-1,"x_max":617,"o":"m 419 754 q 408 767 408 757 q 417 779 407 776 q 425 782 422 782 l 485 782 q 499 783 490 786 l 501 783 q 521 783 511 796 q 552 785 536 785 q 585 785 568 785 l 599 785 q 601 783 599 785 q 611 776 608 781 q 607 763 617 768 q 597 760 604 760 q 537 742 557 760 q 510 675 517 724 l 510 668 q 510 655 510 661 q 508 642 511 649 l 506 549 q 485 320 497 428 q 471 97 474 213 q 485 59 474 76 q 515 39 496 42 l 525 39 q 536 26 536 36 q 525 14 536 17 l 519 14 q 502 13 517 14 q 464 11 488 13 q 463 10 464 10 q 463 8 463 10 l 461 8 q 460 7 460 8 l 450 7 q 447 10 447 10 q 383 7 417 8 q 317 3 349 6 q 304 1 311 -1 l 260 -1 q 225 -7 247 -7 q 215 3 217 -4 q 219 18 213 11 q 247 24 226 22 q 273 53 269 35 q 268 92 276 72 q 265 103 264 99 l 239 190 q 228 215 233 200 q 216 245 222 231 q 201 272 210 260 q 183 286 193 283 q 158 283 172 282 q 147 295 147 286 q 157 307 147 304 l 158 307 l 158 308 l 160 308 q 175 311 171 311 q 190 361 189 331 q 188 417 192 392 l 188 419 q 181 459 185 439 q 172 500 176 479 q 144 606 163 553 q 115 715 126 660 q 91 740 106 729 q 63 752 76 750 q 38 747 49 754 q 28 719 28 739 q 40 706 31 710 q 56 707 49 701 q 46 723 43 711 q 64 732 49 735 q 87 713 88 728 q 73 687 86 697 q 40 676 60 676 q 6 704 21 676 q 2 731 -1 717 q 13 757 6 746 q 50 779 25 779 q 120 785 74 783 q 216 786 167 786 q 308 785 265 786 q 369 785 351 785 q 381 771 381 782 q 371 760 382 760 q 325 735 346 760 q 315 653 304 711 q 314 638 318 644 q 319 597 317 618 q 326 557 322 576 q 355 437 339 490 q 385 317 371 383 q 396 263 392 289 q 406 211 400 238 q 425 171 415 192 q 442 129 435 150 q 446 258 443 196 q 453 392 449 319 q 465 545 458 469 q 476 699 472 621 q 463 738 474 725 q 419 754 453 751 m 415 76 q 415 79 415 78 q 414 83 414 81 l 313 71 l 318 50 l 349 60 l 415 76 m 272 199 q 275 188 272 196 q 325 201 300 194 q 376 214 350 207 q 375 217 375 215 q 374 221 375 218 l 271 206 q 272 199 271 200 m 401 124 q 349 112 374 117 q 301 103 325 107 l 306 93 l 406 108 l 401 124 m 240 426 l 240 418 l 324 432 l 319 449 l 290 442 l 240 426 m 301 518 q 268 509 286 514 q 231 497 250 504 l 233 489 l 233 488 l 306 503 q 304 508 304 504 q 301 518 301 514 m 265 657 q 265 660 265 658 q 264 663 264 661 l 171 653 l 178 638 l 265 657 m 206 571 q 208 564 208 565 l 285 575 l 282 586 l 206 571 m 313 344 q 276 344 293 344 q 240 342 258 343 l 240 339 q 241 331 240 335 q 242 322 242 326 l 313 344 m 290 139 l 294 125 l 393 151 l 290 139 m 275 299 l 351 308 q 350 315 351 311 q 349 321 349 318 l 272 299 l 275 299 m 356 32 l 429 36 l 424 49 l 356 32 m 253 267 l 256 260 l 357 281 l 276 271 l 253 267 m 251 724 q 202 716 226 719 q 153 710 178 713 l 156 701 l 251 724 m 350 175 q 368 176 360 175 q 386 178 376 176 l 383 188 l 303 168 l 350 175 m 313 474 l 313 476 l 238 464 q 238 460 238 461 q 239 456 239 458 l 279 467 l 313 474 m 218 538 l 222 526 q 256 537 239 532 q 285 546 274 542 l 218 538 m 367 250 q 365 254 365 251 l 263 233 l 367 250 m 265 393 q 296 401 281 397 q 329 408 311 404 l 239 392 l 239 385 l 265 393 m 193 743 q 219 745 206 744 q 244 749 232 746 q 246 758 244 756 l 243 758 q 218 750 231 754 q 193 743 206 746 m 293 735 q 301 747 296 742 q 310 757 306 751 l 286 757 l 293 735 m 335 383 l 292 372 l 338 375 l 335 383 m 260 697 l 213 686 l 260 690 l 260 697 m 210 315 l 204 304 q 209 299 207 301 q 214 294 211 297 l 210 315 m 194 518 q 199 519 196 519 l 193 535 l 190 533 l 194 518 m 214 449 q 213 460 214 456 l 207 458 l 208 447 l 214 449 m 207 490 q 201 489 204 489 l 203 481 q 208 482 207 481 l 208 485 q 207 490 207 486 m 238 601 q 217 598 226 599 q 196 596 207 597 q 197 593 196 593 l 232 600 l 238 601 m 111 758 l 106 758 l 111 756 l 111 758 m 521 758 q 520 757 521 757 q 519 756 519 757 l 522 758 l 521 758 m 215 418 l 215 419 l 214 419 l 215 418 z "},"W":{"ha":1007,"x_min":0,"x_max":1007,"o":"m 893 669 l 893 675 q 894 694 893 685 q 896 713 894 703 l 896 717 q 876 744 890 733 q 832 754 861 754 q 817 765 818 754 q 828 781 815 776 l 831 781 q 905 783 867 785 q 981 781 943 781 l 989 781 q 993 782 992 781 q 1006 769 1004 779 q 996 756 1007 758 l 976 751 q 938 715 946 742 q 924 653 931 688 q 919 636 921 644 q 917 619 918 628 q 912 569 914 594 q 906 518 910 544 l 903 521 q 899 424 900 468 q 896 324 899 379 q 892 255 893 289 q 888 185 890 221 q 881 131 883 156 q 878 82 879 106 q 888 40 879 53 q 910 24 897 28 q 935 23 922 21 q 960 24 949 25 q 964 15 965 22 q 958 4 963 8 q 885 -3 942 0 q 867 -3 875 -3 q 849 -4 858 -3 q 831 -4 840 -15 q 762 -6 796 -6 q 693 -8 728 -6 q 653 -4 671 -8 q 597 -3 632 -11 q 586 10 586 0 q 596 24 586 19 q 619 26 608 26 q 640 25 629 26 q 658 38 657 28 q 656 67 658 47 l 653 79 q 651 83 651 81 q 624 176 635 126 q 603 275 613 225 q 587 322 596 296 q 568 378 578 349 q 549 436 558 407 q 535 493 540 465 q 524 542 528 517 q 515 596 521 568 l 497 646 l 488 581 q 487 550 488 565 q 485 522 486 535 l 478 417 q 473 301 475 358 q 468 182 471 244 q 466 124 465 153 q 467 65 467 96 q 475 42 468 53 q 497 28 482 31 q 501 27 500 28 q 506 26 503 26 l 510 26 q 524 11 525 24 q 510 -1 524 -1 l 506 -1 q 503 -1 504 -1 q 501 0 503 0 l 496 0 q 474 1 485 1 q 451 1 463 1 q 446 0 449 0 q 433 3 438 -3 q 366 1 400 3 q 300 -3 332 0 q 278 -1 289 -3 q 257 0 268 0 l 249 -4 q 232 3 236 -8 q 231 6 232 4 q 236 25 225 18 q 265 26 249 29 q 281 39 274 29 q 285 69 288 49 l 281 88 q 274 96 275 90 q 276 106 272 101 q 271 138 274 124 q 265 160 268 153 q 248 232 256 197 q 233 303 240 267 l 232 304 q 199 330 221 329 q 151 324 176 331 l 150 324 q 138 322 143 319 q 132 331 133 325 q 133 343 131 336 q 139 353 135 350 q 150 356 142 353 q 192 388 176 364 q 204 436 207 411 q 192 491 199 464 q 179 547 186 518 l 164 615 q 153 653 157 635 q 144 692 149 672 q 110 727 131 715 q 65 732 89 739 q 63 731 64 732 q 31 714 42 725 q 28 699 26 710 q 35 682 29 689 q 51 675 42 675 q 71 690 60 675 q 65 695 67 693 q 60 700 63 697 q 62 718 53 711 q 82 714 71 725 q 92 700 88 706 q 97 689 96 694 q 94 677 97 683 q 83 658 92 671 q 49 647 69 642 q 15 668 29 651 q 1 707 1 685 q 26 746 0 729 q 40 753 32 751 q 57 757 47 754 q 60 758 58 758 q 64 760 61 758 l 67 760 l 108 767 q 126 769 115 767 q 138 774 131 774 q 154 774 146 782 l 211 779 q 267 783 239 782 q 324 785 296 783 l 331 782 q 342 783 333 783 q 356 772 354 782 q 344 758 357 761 q 309 747 318 757 q 300 711 300 738 q 303 688 304 693 q 304 675 303 682 l 304 669 q 306 664 304 667 q 321 598 314 628 q 331 563 328 568 q 351 489 343 517 q 364 437 358 461 q 375 385 369 413 q 389 311 381 357 q 413 230 401 271 q 433 149 424 189 l 438 207 l 450 407 q 455 490 453 449 q 460 575 457 532 l 460 588 q 464 664 460 626 q 467 679 464 668 l 467 681 q 456 733 464 715 q 408 754 447 751 q 398 763 400 757 q 399 774 396 768 q 413 786 399 785 l 456 786 q 465 792 458 792 q 478 786 471 793 l 479 786 l 643 790 q 647 790 644 794 q 677 792 663 792 q 707 792 692 792 l 715 792 q 718 790 715 792 l 724 786 q 725 783 725 785 q 726 781 725 782 q 725 775 726 776 q 721 769 725 774 q 711 767 715 767 l 707 767 q 684 750 696 764 q 671 707 672 736 l 671 701 q 672 700 671 701 q 676 671 675 686 q 681 642 678 656 l 681 643 q 710 506 696 574 q 744 368 724 438 q 772 284 757 325 q 797 201 786 243 l 800 189 q 826 119 814 154 q 846 46 838 83 l 850 121 l 850 122 q 851 131 847 129 q 860 240 856 188 q 871 347 865 293 l 871 368 q 872 500 872 436 q 889 633 872 564 l 893 669 m 231 467 q 233 453 232 460 q 236 440 233 447 l 324 465 l 319 482 q 231 467 274 475 m 276 271 l 364 288 l 358 311 l 353 310 l 272 283 l 276 271 m 810 49 q 807 58 807 57 q 701 38 754 50 l 707 19 l 810 49 m 628 301 q 635 269 633 283 q 677 290 656 279 q 722 313 699 301 l 628 301 m 371 264 l 283 249 q 287 237 286 243 q 290 224 288 231 q 331 240 310 232 q 372 257 351 247 l 372 258 l 371 264 m 542 607 q 592 615 564 611 q 650 628 621 619 q 649 632 650 631 q 592 628 621 629 q 536 621 564 626 q 538 615 536 617 l 542 607 m 775 181 q 717 170 746 175 q 658 161 688 165 l 665 142 q 720 160 693 153 q 776 175 747 168 q 775 181 775 176 m 257 346 q 258 343 257 344 q 258 340 258 342 q 303 347 281 343 q 349 356 325 351 l 344 374 q 306 362 326 368 q 257 346 285 356 m 792 115 q 738 101 764 108 q 685 88 711 93 l 689 78 q 741 90 714 85 q 794 103 768 96 l 792 115 m 278 667 q 234 653 256 660 q 190 640 213 647 q 190 637 190 638 q 189 635 189 636 l 189 633 l 282 650 l 278 667 m 640 664 q 635 683 638 672 l 531 649 l 531 647 q 583 656 554 651 q 640 664 611 660 m 224 497 q 225 489 225 494 q 272 499 249 494 q 314 507 294 504 l 310 522 q 266 510 288 515 q 224 497 244 504 m 563 553 q 568 538 565 546 q 667 568 615 556 l 667 574 q 611 563 638 568 q 563 553 585 557 m 625 739 q 624 749 624 744 q 624 758 624 754 l 521 721 l 625 739 m 268 583 q 237 574 251 579 q 207 564 222 569 q 208 561 207 564 l 300 574 l 296 589 l 268 583 m 260 732 l 171 711 q 172 707 171 708 q 183 708 178 707 q 196 710 189 708 q 264 718 228 711 l 260 732 m 196 606 q 197 597 196 600 q 199 592 197 593 q 230 601 214 596 q 263 610 246 606 l 289 615 l 289 621 l 283 621 l 196 606 m 669 539 q 625 526 649 533 q 578 510 601 518 l 578 508 l 669 524 l 669 539 m 676 479 l 594 450 q 595 449 594 449 q 596 447 596 449 q 638 456 617 451 q 681 463 658 460 l 676 479 m 396 126 q 358 119 376 124 q 321 111 340 115 q 322 105 321 108 q 322 99 322 101 q 360 108 342 104 q 396 119 378 113 l 396 126 m 694 410 l 611 382 l 611 381 q 656 388 635 383 q 699 396 676 392 l 694 410 m 644 222 q 647 208 647 214 q 698 227 674 218 q 747 244 722 236 l 644 222 m 376 229 q 338 213 357 221 q 299 197 318 206 q 299 196 299 196 q 300 194 300 196 q 340 206 319 200 q 379 215 360 211 l 376 229 m 404 92 q 365 81 385 85 q 326 71 346 76 l 326 67 q 367 73 347 69 q 407 81 388 76 l 404 92 m 525 674 q 567 690 546 682 q 611 706 589 699 l 521 689 l 525 674 m 739 269 q 732 288 733 279 l 674 261 l 739 269 m 686 439 q 643 431 664 436 q 601 422 622 426 q 604 410 604 414 l 686 439 m 713 354 l 642 329 q 678 334 660 331 q 715 340 696 338 l 713 354 m 242 411 q 285 421 264 415 q 331 431 307 426 l 329 440 l 242 414 l 242 411 m 499 756 q 501 744 499 753 l 501 742 l 561 764 l 522 761 l 499 756 m 250 374 l 276 383 q 307 392 292 388 q 338 401 322 396 l 338 403 q 293 392 315 397 q 247 383 271 388 l 250 374 m 183 667 l 247 688 l 179 676 l 183 667 m 758 218 l 699 197 l 763 208 l 758 218 m 550 583 l 660 594 q 658 600 658 596 l 550 583 m 224 351 q 219 366 221 358 q 217 382 218 374 q 199 358 210 369 q 211 356 206 357 q 224 351 217 354 m 783 149 q 743 138 764 143 q 703 126 722 133 l 783 143 l 783 149 m 390 163 l 332 142 q 362 147 347 144 q 392 153 376 150 l 392 154 l 390 163 m 329 39 q 328 33 329 36 q 328 28 328 31 l 379 46 q 354 42 367 43 q 329 39 342 40 m 215 532 q 216 531 215 531 q 217 529 217 531 q 218 524 217 525 l 260 539 l 215 532 m 586 483 q 587 481 586 482 q 588 476 588 479 l 625 490 l 586 483 m 306 169 q 307 167 306 168 l 361 183 l 306 169 m 421 36 l 399 29 l 424 29 l 421 36 m 161 743 l 186 751 q 161 749 175 751 l 161 743 m 617 358 q 618 353 617 354 l 644 363 l 617 358 m 653 765 q 653 760 653 763 q 654 754 654 757 l 663 767 q 658 766 660 767 q 653 765 656 765 m 133 746 q 131 745 132 746 q 129 744 131 744 l 133 740 l 133 746 m 263 314 q 264 313 263 313 l 272 315 l 263 314 z "},"X":{"ha":719,"x_min":-1,"x_max":721,"o":"m 261 151 l 294 215 l 311 258 l 324 292 l 250 439 q 244 447 246 443 q 218 470 240 469 q 178 465 196 471 l 174 461 q 162 458 168 454 q 153 469 156 461 q 151 474 153 472 q 161 489 153 485 q 163 490 163 489 q 167 490 164 490 q 185 526 182 508 q 182 568 189 544 q 179 572 179 571 q 178 576 179 574 l 178 579 q 181 588 178 585 l 171 614 q 155 648 163 631 q 140 683 147 665 q 103 726 125 707 q 54 746 82 744 l 46 746 q 26 735 29 743 q 28 717 24 726 q 39 699 32 707 q 49 692 46 692 q 51 701 51 696 q 53 713 51 707 q 67 726 56 726 q 81 713 79 726 q 76 688 78 694 q 61 668 75 682 q 49 664 54 664 q 16 685 29 668 q 1 720 3 701 q 8 754 -1 739 q 44 772 18 769 l 46 772 q 117 777 88 774 q 189 781 147 781 q 232 781 217 782 q 275 782 247 781 q 301 782 292 782 q 320 782 311 782 q 340 783 329 782 q 369 786 351 783 q 381 784 376 788 q 385 776 385 781 q 384 767 386 771 q 375 761 382 763 l 361 758 q 313 730 321 750 q 315 686 306 710 q 350 640 332 663 q 379 590 368 617 q 392 542 389 567 q 399 494 396 518 q 444 567 418 533 q 493 636 469 600 l 514 678 q 515 682 515 679 l 542 731 q 492 765 533 757 q 482 776 481 768 q 492 788 483 785 q 506 792 496 792 q 556 785 529 785 q 610 785 582 786 q 650 781 629 792 q 653 765 657 774 q 638 757 649 757 l 626 757 q 594 744 610 754 q 565 718 578 733 q 532 645 551 679 q 490 575 513 611 q 482 556 486 565 q 475 538 478 547 l 425 425 q 487 308 456 365 q 550 192 518 250 l 561 169 q 584 131 571 153 q 613 88 597 108 q 649 53 629 68 q 690 33 668 38 l 708 33 q 719 22 718 31 q 714 7 721 14 q 679 7 696 3 q 524 6 600 6 q 381 -3 449 6 q 367 9 369 -3 q 375 22 364 21 l 379 22 l 379 24 q 396 26 390 26 q 422 61 418 36 q 406 121 425 86 q 404 128 404 124 l 397 140 l 361 217 l 343 253 l 339 244 l 318 210 q 294 151 306 181 q 268 93 282 122 q 258 51 261 68 q 278 32 254 35 q 290 33 283 32 q 307 33 296 33 q 318 21 319 32 q 306 7 317 10 q 286 4 294 4 q 271 4 278 4 q 250 0 260 1 q 229 -3 240 -1 l 157 -3 q 131 -5 146 -6 q 106 -6 117 -4 q 95 6 94 -6 q 107 21 96 18 l 108 21 q 117 22 113 21 q 125 22 121 22 q 203 61 174 29 q 258 146 233 93 l 261 151 m 256 738 q 210 725 232 731 q 163 713 188 719 l 165 701 q 216 706 192 704 q 264 713 240 708 l 256 738 m 264 476 q 307 488 282 482 q 358 500 332 493 l 351 513 q 304 503 328 508 q 257 492 281 497 q 261 484 260 488 q 264 476 263 481 m 415 215 q 447 225 431 221 q 483 236 464 229 l 476 246 l 396 233 l 407 213 q 415 215 410 213 m 285 656 l 288 656 q 281 674 282 665 l 186 646 q 187 643 186 644 q 188 640 188 642 l 285 656 m 325 571 q 274 564 299 568 q 225 556 249 560 l 233 540 q 280 553 257 547 q 326 568 303 560 q 325 571 325 569 m 517 176 l 514 181 l 426 168 l 431 157 q 433 150 431 153 l 517 176 m 379 450 q 329 442 351 446 q 288 435 307 439 l 294 421 l 381 449 l 379 450 m 536 149 q 490 135 513 142 q 444 122 467 129 q 446 121 444 121 l 543 140 l 536 149 m 511 36 q 540 36 526 36 q 567 35 553 36 l 586 42 l 582 50 l 511 36 m 460 96 l 464 88 q 510 101 488 94 q 556 114 533 107 q 554 115 556 115 l 460 96 m 321 372 q 326 362 324 367 q 332 351 329 357 l 347 357 l 354 375 l 321 372 m 381 265 l 460 275 q 456 281 457 278 q 453 286 456 283 l 381 265 m 156 746 l 158 733 l 219 754 l 156 746 m 313 596 l 310 604 q 265 592 286 597 q 217 582 243 588 l 313 596 m 415 353 q 402 348 408 350 q 389 343 396 346 l 385 335 l 421 342 q 415 353 418 350 m 478 58 q 524 69 501 64 q 569 78 546 74 l 567 83 q 522 72 544 76 q 478 60 500 67 l 478 58 m 199 617 l 201 608 l 256 625 l 199 617 m 369 303 l 365 294 l 365 293 l 424 311 l 369 303 m 201 497 q 222 496 215 497 l 211 518 q 207 508 210 513 q 201 497 204 503 m 283 754 q 289 733 286 740 q 300 754 290 744 l 283 754 m 244 515 l 340 536 q 339 539 340 539 l 244 515 m 368 415 q 349 410 357 413 q 332 404 342 407 l 365 407 l 368 415 m 347 600 q 338 614 343 608 q 335 613 338 614 q 340 600 338 608 l 347 600 m 499 207 q 498 209 499 208 q 497 211 497 210 l 469 203 l 499 207 m 454 33 q 451 38 451 36 q 449 43 450 40 q 448 38 449 40 q 447 33 447 36 l 454 33 m 115 750 l 124 743 q 123 747 124 746 q 122 750 122 747 l 115 750 m 206 22 l 206 25 l 203 22 l 206 22 z "},"Y":{"ha":643,"x_min":0,"x_max":643,"o":"m 260 0 q 246 13 247 1 q 260 28 244 25 l 263 28 q 306 53 292 35 q 325 94 319 71 q 324 181 324 138 q 326 268 325 225 q 324 287 325 278 q 324 306 324 296 q 322 308 322 307 q 308 340 319 338 q 271 342 296 342 q 256 350 260 342 q 260 367 253 358 q 279 384 275 375 q 283 403 283 393 q 278 426 282 414 q 272 450 274 438 l 256 478 q 187 608 217 544 q 117 739 157 672 q 90 759 106 753 q 50 758 74 765 q 28 733 31 746 q 33 710 26 719 q 47 700 39 701 q 53 711 54 699 q 57 729 49 722 q 76 725 65 736 q 81 698 86 711 q 65 677 76 685 q 40 671 54 669 q 14 686 25 672 q 1 715 1 700 q 6 745 0 731 q 23 771 11 760 q 47 786 35 782 q 113 794 69 794 q 219 792 157 794 q 230 791 225 790 q 242 792 235 792 q 263 792 250 803 q 276 791 269 792 q 289 790 282 790 l 290 790 q 306 790 297 790 q 329 788 314 789 l 340 788 l 342 788 q 344 788 343 788 q 346 789 344 789 l 351 789 q 365 776 363 790 q 357 761 368 763 q 317 744 332 760 q 304 703 301 728 q 310 685 307 694 q 318 668 314 676 q 347 610 335 640 q 367 578 356 597 q 390 538 378 560 q 416 492 403 515 q 440 446 429 468 l 451 432 q 483 562 461 493 q 521 689 506 631 l 526 717 q 518 756 528 739 q 476 776 508 772 q 469 779 472 776 q 456 790 458 781 q 465 804 454 799 q 547 800 501 801 q 632 799 592 799 q 642 784 643 796 q 628 772 640 772 q 602 764 608 764 q 583 754 596 764 q 565 727 572 744 q 551 689 557 710 q 545 661 549 675 q 538 635 542 647 l 538 632 q 532 624 535 625 q 528 613 529 617 q 524 604 526 608 l 507 551 l 494 494 q 487 433 488 464 q 476 374 486 403 l 476 368 q 484 256 483 311 q 483 144 485 201 q 489 106 488 125 q 495 71 490 86 q 510 45 500 56 q 543 33 521 35 l 554 33 q 565 19 567 31 q 550 7 563 7 l 536 7 q 525 -3 535 1 l 521 -3 q 511 0 514 -3 q 447 6 493 6 q 354 3 401 6 q 339 3 346 -3 q 293 1 314 1 q 261 0 272 0 l 260 0 m 449 249 q 447 260 447 256 q 447 271 447 265 l 356 250 l 356 235 q 402 242 379 238 q 449 249 425 246 m 443 338 l 354 317 l 354 313 l 443 321 l 443 338 m 453 171 q 452 178 453 175 q 451 185 451 182 l 361 169 q 362 166 361 167 q 363 163 363 165 l 453 171 m 364 119 l 453 139 l 453 144 l 364 135 l 364 119 m 239 575 l 321 597 l 318 601 l 232 589 l 239 575 m 303 639 l 217 618 q 217 616 217 617 q 218 614 218 615 q 261 621 238 617 q 308 628 285 625 l 303 639 m 364 64 q 363 58 364 61 q 363 51 363 54 q 408 60 386 56 q 453 71 431 65 l 453 75 q 408 69 429 72 q 364 64 386 67 m 450 218 q 404 212 426 215 q 358 206 382 208 q 359 201 358 203 q 360 197 360 200 l 450 211 l 450 218 m 242 744 l 167 722 l 250 731 l 242 744 m 356 343 q 381 350 364 346 q 429 364 399 354 q 391 361 410 363 q 356 357 372 360 l 356 343 m 268 519 q 272 514 271 517 q 275 508 272 511 l 349 535 l 349 538 l 268 519 m 319 428 q 320 426 319 426 q 321 425 321 426 q 363 435 342 431 q 406 442 385 439 l 399 450 l 318 429 q 319 428 318 429 m 304 454 l 382 472 q 379 476 382 474 l 300 463 l 304 454 m 339 400 q 343 397 342 397 q 346 393 344 396 q 424 414 388 407 q 423 416 424 415 q 422 418 422 417 q 381 410 403 415 q 339 400 360 404 m 182 686 l 267 703 l 264 707 l 178 693 l 182 688 l 182 686 m 367 497 q 361 508 364 506 l 297 486 q 333 492 315 489 q 367 497 350 494 m 203 653 l 288 669 q 282 678 285 672 l 203 653 m 154 743 l 236 761 l 236 763 l 150 750 l 154 743 m 331 572 l 253 550 q 293 558 272 554 q 335 565 314 563 l 331 572 m 453 110 l 378 94 q 415 98 397 96 q 453 103 433 100 l 453 110 m 444 299 l 444 300 l 354 285 l 354 279 l 444 299 m 310 389 q 301 367 307 376 l 319 363 l 319 372 q 318 375 318 374 q 317 379 318 376 l 310 389 m 286 747 l 299 763 q 288 763 293 763 q 278 764 283 764 l 286 747 m 453 39 l 453 43 l 438 39 l 453 39 m 481 43 l 481 38 l 485 38 l 481 43 m 329 40 l 325 35 l 329 35 l 329 40 z "},"Z":{"ha":574,"x_min":13,"x_max":561,"o":"m 75 -8 q 65 -4 69 -8 l 61 -4 q 50 10 50 0 q 61 24 50 21 q 72 60 64 38 q 90 106 81 83 q 108 145 99 128 q 121 167 117 163 l 151 261 q 154 267 153 264 q 157 275 156 271 q 158 283 156 276 q 164 314 160 289 q 146 358 161 342 q 118 376 131 374 l 115 376 q 102 388 104 376 q 111 403 100 400 l 111 404 l 124 404 q 186 441 169 408 q 207 526 203 474 q 222 600 213 569 q 247 667 231 631 q 244 694 249 682 q 226 715 240 707 q 187 728 213 724 q 122 732 161 732 l 117 732 l 97 724 q 97 680 97 704 q 101 636 97 656 q 108 626 106 633 q 140 632 125 629 q 158 639 154 635 q 158 646 160 640 q 151 657 156 651 q 142 665 147 663 q 129 664 136 668 q 113 667 119 663 l 110 669 q 110 688 104 681 q 125 690 115 694 q 151 685 138 692 q 175 669 165 679 q 186 646 185 658 q 178 624 188 633 q 158 611 174 617 q 124 601 143 606 q 86 594 106 597 q 54 592 67 592 q 35 592 46 589 q 19 617 24 593 q 13 669 14 640 q 15 723 13 697 q 21 757 17 749 q 33 764 26 763 q 169 774 100 768 q 310 782 239 779 q 331 788 315 796 l 335 782 q 461 782 397 785 q 504 778 500 788 q 494 754 508 768 q 474 697 482 724 q 457 642 465 671 q 439 580 449 614 q 415 500 429 546 q 369 370 394 433 q 317 243 343 307 l 307 211 q 304 176 307 196 q 297 138 301 157 q 290 101 293 118 q 289 72 288 83 q 303 44 292 53 q 333 33 315 36 q 360 37 342 35 q 397 41 378 39 q 433 46 417 43 q 453 50 449 49 q 479 67 471 54 q 485 108 489 83 q 475 158 481 133 q 471 201 469 182 q 496 225 472 219 q 533 215 521 229 q 551 178 546 200 q 556 134 556 157 q 557 100 556 111 q 560 77 560 89 q 560 53 560 65 q 561 45 561 50 q 561 43 561 40 l 560 43 q 560 39 560 40 q 561 36 561 38 l 561 35 q 550 28 557 28 q 546 25 547 25 q 527 20 539 22 q 503 17 515 18 q 479 15 490 15 q 465 14 468 14 l 300 1 q 192 -8 247 -4 q 96 -8 136 -11 l 75 -8 m 219 372 q 274 376 244 374 q 333 381 304 378 l 336 392 q 280 392 308 393 q 222 390 251 392 l 219 372 m 253 135 q 256 142 256 142 l 256 143 l 157 146 l 149 122 q 206 129 178 126 q 253 135 233 132 m 331 725 q 322 694 329 711 l 432 717 q 412 717 421 717 q 393 719 403 718 q 366 720 382 718 q 331 725 350 722 m 306 644 q 300 629 303 636 q 363 638 332 633 q 425 649 393 642 l 425 651 q 366 649 396 650 q 306 644 336 647 m 189 249 q 240 253 213 251 q 293 257 267 254 l 296 267 q 244 265 271 265 q 193 264 218 264 q 192 258 192 261 l 189 249 m 250 497 q 315 508 282 503 q 381 517 349 513 l 381 518 q 317 515 349 517 q 256 514 285 514 l 251 500 l 250 497 m 206 314 q 257 316 232 315 q 307 319 282 317 l 313 319 l 314 321 q 288 324 301 324 q 263 326 275 325 q 237 326 250 326 q 208 325 224 326 l 206 314 m 265 200 q 221 204 243 203 q 178 207 199 206 l 171 188 l 224 196 q 239 197 228 196 q 265 200 250 199 m 118 54 q 117 53 118 54 l 213 69 q 196 70 204 69 q 179 71 188 71 q 153 72 165 71 q 126 72 140 72 l 118 54 m 236 447 l 232 431 q 285 437 256 433 q 344 443 314 440 l 343 443 l 236 447 m 282 579 q 276 564 278 572 l 389 582 l 282 579 m 192 403 q 161 383 179 390 q 181 356 172 369 l 192 403 m 364 474 q 366 481 365 476 q 369 488 367 485 l 289 476 l 364 474 m 43 619 q 69 639 69 615 l 42 635 q 43 619 43 629 m 264 56 q 250 25 257 38 l 268 26 l 281 26 q 264 56 268 36 m 369 751 l 406 747 q 428 748 417 747 q 450 750 439 749 l 453 756 q 428 753 440 754 q 404 753 415 753 l 369 751 m 242 103 l 243 106 l 183 99 l 239 94 l 242 103 m 508 75 l 528 79 q 526 92 526 83 q 517 92 522 92 q 508 93 513 93 l 508 75 m 506 143 l 522 146 q 521 160 521 151 q 512 161 517 161 q 503 161 507 161 l 506 143 m 38 713 q 50 715 44 714 q 63 718 56 715 q 64 726 64 721 l 38 724 l 38 713 m 217 31 q 218 40 217 38 l 164 32 q 190 31 176 32 q 217 31 203 31 m 319 546 q 356 547 338 547 q 392 547 374 547 q 394 554 394 550 l 319 546 m 253 738 q 268 715 265 729 l 278 733 l 253 738 m 264 643 q 258 624 261 632 l 265 624 l 274 643 l 264 643 m 432 681 q 433 689 433 683 l 401 681 l 432 681 m 414 610 q 415 612 414 611 q 415 614 415 613 l 415 615 l 382 608 q 397 608 389 608 q 414 610 406 608 m 63 690 q 42 685 56 688 l 64 682 q 63 690 64 688 m 285 688 l 290 689 l 297 711 l 285 688 m 499 189 l 499 186 l 519 186 l 519 188 l 499 189 m 242 558 l 243 558 l 249 576 q 246 575 249 576 l 242 558 m 272 228 l 278 226 l 276 228 l 272 228 z "},"":{"ha":551,"x_min":24,"x_max":522,"o":"m 101 725 q 75 757 96 747 q 67 758 71 757 q 60 763 64 760 q 57 764 58 763 q 49 765 51 764 q 46 764 49 765 q 30 769 36 761 q 33 785 24 776 q 52 790 43 792 q 72 786 61 789 l 88 781 q 137 779 107 778 q 198 783 167 781 q 258 787 229 785 q 306 789 288 789 l 318 789 q 360 776 343 786 q 383 751 378 765 q 381 721 389 738 q 349 689 374 704 q 312 678 325 674 q 294 697 299 683 q 294 726 289 711 q 314 747 299 742 q 331 740 326 750 q 325 722 335 729 q 319 715 321 721 q 318 706 318 708 l 321 706 q 325 707 324 706 q 338 713 331 708 q 350 723 344 717 q 358 735 356 729 q 358 749 361 742 q 343 763 354 760 q 318 764 332 765 l 314 764 l 285 758 l 274 754 q 261 741 264 751 q 258 707 258 731 l 256 703 q 256 695 256 699 q 257 689 257 692 q 258 688 257 689 l 258 650 q 260 624 258 636 q 261 597 261 611 q 268 601 268 599 q 283 601 268 603 l 289 601 q 301 596 294 597 q 319 593 308 594 q 329 588 328 590 q 401 558 367 578 q 463 510 436 538 q 506 450 490 483 q 522 381 522 417 q 502 305 521 338 q 453 247 483 272 q 358 190 414 210 q 351 186 356 186 q 347 185 349 186 q 343 185 346 185 l 331 181 q 300 155 311 172 q 283 118 289 138 q 284 94 283 106 q 286 69 285 82 q 303 43 289 54 q 344 26 317 32 q 355 15 354 22 q 347 0 356 7 q 277 -6 313 -11 q 207 0 242 0 q 126 -4 167 0 q 43 -10 86 -8 q 30 -1 33 -10 q 33 14 26 7 q 35 15 33 15 q 38 17 35 15 l 43 19 q 93 29 81 22 q 108 60 106 36 q 107 119 107 88 q 108 178 107 150 q 109 226 108 206 q 110 251 110 246 q 105 452 107 357 q 101 647 103 547 q 99 657 99 653 l 99 658 q 101 667 99 664 l 101 725 m 267 447 q 268 379 267 413 q 272 313 269 346 q 290 265 279 288 q 318 226 301 243 q 340 232 329 226 q 356 263 351 243 q 360 299 358 278 q 363 345 363 321 q 363 395 364 369 q 357 446 361 421 q 356 457 356 451 q 353 468 356 463 q 338 513 347 493 q 314 543 329 532 l 294 536 q 267 447 274 496 m 144 364 l 144 358 q 188 361 167 360 q 232 365 210 363 l 232 389 l 190 376 l 144 364 m 146 40 q 198 53 172 47 q 250 64 224 58 l 250 69 q 196 63 222 67 q 146 57 169 60 l 146 40 m 142 638 l 142 636 l 232 646 l 232 663 l 210 658 l 142 638 m 144 244 l 235 265 l 235 269 l 144 260 l 144 244 m 142 596 q 188 605 165 600 q 232 615 210 610 l 232 619 l 142 610 l 142 596 m 228 418 q 185 414 207 415 q 143 413 164 413 l 143 392 q 164 397 154 394 q 185 404 174 400 q 206 410 196 407 q 228 418 217 414 m 232 331 l 232 336 q 188 332 210 333 q 144 329 167 331 l 144 315 l 232 331 m 232 546 l 232 550 q 187 546 208 547 q 143 542 165 544 l 143 528 l 218 544 l 232 546 m 483 353 l 407 350 l 407 338 l 481 344 l 483 353 m 144 208 q 191 217 168 213 q 238 228 214 222 q 237 233 238 231 q 236 238 236 235 q 190 226 213 231 q 144 215 168 221 l 144 208 m 486 385 q 485 390 486 388 q 485 396 485 393 q 445 388 468 392 q 403 382 422 385 q 403 380 403 381 q 404 378 404 379 q 445 381 422 379 q 486 385 468 382 m 479 431 q 478 436 479 435 q 433 428 454 432 q 396 422 411 425 l 399 413 q 435 421 414 417 q 479 431 456 425 m 143 436 q 187 439 165 438 q 231 443 208 440 l 231 456 q 187 445 208 450 q 143 436 165 440 m 147 118 q 198 126 174 122 q 244 133 222 129 l 244 136 q 196 131 221 133 q 147 125 171 128 l 147 118 m 249 107 q 199 97 224 101 q 147 89 174 93 l 147 86 q 197 92 171 89 q 249 97 222 94 l 249 107 m 460 469 l 386 463 l 389 456 l 464 464 l 460 469 m 400 529 q 381 527 390 528 q 364 524 372 526 l 371 511 q 410 522 388 515 q 406 524 408 524 q 403 528 404 525 q 400 529 400 528 m 242 165 l 242 168 q 240 169 240 168 q 238 169 239 169 q 233 172 236 169 l 146 154 l 146 153 l 242 165 m 457 292 q 458 294 457 293 q 432 291 444 292 q 406 289 419 290 q 405 283 406 286 q 404 276 404 279 q 431 284 418 281 q 457 292 444 288 m 428 504 l 378 490 l 379 489 l 436 496 l 428 504 m 231 746 q 142 738 185 739 l 142 729 l 231 746 m 143 464 q 183 473 163 469 q 222 482 203 476 q 183 476 203 478 q 143 471 163 474 l 143 464 m 263 571 q 264 560 264 565 q 264 549 264 554 q 275 559 269 554 q 288 567 281 564 l 264 571 l 263 571 m 278 233 q 279 219 279 226 q 279 204 279 211 l 297 207 q 278 233 286 215 m 143 499 q 185 506 163 501 q 231 515 207 511 l 231 518 l 143 500 l 143 499 m 232 579 l 232 586 l 178 575 l 232 579 m 174 708 q 231 717 201 711 l 231 719 q 174 708 193 713 m 233 307 l 179 294 l 233 301 l 233 307 m 385 232 q 398 239 392 235 q 411 247 404 243 q 392 242 397 244 l 385 232 m 182 681 q 161 677 171 678 q 142 675 151 676 l 142 669 l 182 681 m 285 25 l 281 25 l 281 19 l 292 19 l 285 25 m 235 26 q 232 25 233 26 q 242 24 238 25 q 251 22 246 24 q 251 24 251 24 q 250 26 250 25 l 235 26 m 353 546 l 358 547 q 350 550 356 547 l 353 547 l 353 546 z "},"":{"ha":554,"x_min":-1,"x_max":528,"o":"m 92 53 q 89 74 89 67 q 85 130 86 94 q 83 204 83 165 q 81 278 82 243 q 79 335 81 314 q 77 446 76 393 q 81 551 78 499 l 81 667 q 68 728 78 699 q 35 757 58 757 l 15 753 q 1 763 3 753 q 10 778 -1 772 l 13 778 q 22 782 17 782 q 151 790 90 785 q 282 794 211 794 q 285 793 283 794 q 325 784 307 796 q 350 743 343 772 q 349 710 356 725 q 331 682 343 696 q 295 670 314 663 q 266 694 276 678 q 260 727 256 710 q 297 746 265 744 l 303 746 q 314 733 311 744 q 311 722 314 728 q 310 721 310 722 l 304 718 l 300 718 q 292 717 296 717 q 286 713 289 717 q 289 704 286 710 q 292 700 290 701 q 313 705 304 699 q 324 722 321 711 q 324 743 326 732 q 311 763 321 754 q 299 767 307 767 q 283 767 292 767 q 252 751 264 756 q 233 739 240 747 q 232 736 232 738 q 226 728 231 732 q 224 717 224 722 q 222 704 224 711 q 224 688 224 696 q 224 674 224 681 q 229 622 225 646 q 249 592 233 597 l 260 589 q 308 588 286 593 l 364 571 q 410 554 386 567 q 419 547 415 549 q 486 485 464 522 q 515 388 508 447 q 526 332 525 356 q 525 292 528 308 q 511 228 521 260 q 482 169 501 197 q 397 93 447 119 q 289 63 347 67 q 252 47 265 54 q 233 28 239 40 l 235 -31 l 235 -32 q 251 -64 240 -50 q 281 -82 261 -78 q 290 -83 285 -82 q 300 -83 294 -83 l 310 -83 q 321 -99 321 -87 q 319 -101 321 -99 q 304 -110 315 -110 q 269 -108 286 -108 q 236 -107 253 -107 q 225 -118 233 -117 l 222 -118 q 208 -107 213 -118 q 115 -112 161 -108 q 19 -117 68 -115 q 6 -109 8 -117 q 13 -94 3 -101 q 15 -93 14 -93 q 19 -92 17 -93 l 22 -92 q 47 -86 35 -89 q 69 -75 60 -83 q 85 -50 79 -67 q 92 -3 92 -33 l 92 53 m 283 544 q 249 475 260 510 q 239 404 239 440 q 238 394 238 401 q 241 299 235 349 q 260 208 247 250 q 289 140 272 167 q 325 117 306 114 q 356 147 347 118 q 367 208 364 176 q 376 324 381 268 q 351 438 371 379 q 325 515 343 476 q 318 528 322 522 q 311 540 314 535 l 283 544 m 399 347 q 399 338 399 343 q 400 329 400 333 q 447 341 424 336 q 494 354 471 346 l 494 363 l 399 347 m 189 499 q 144 490 167 494 q 106 483 122 486 l 106 461 l 190 489 q 190 494 190 492 q 189 499 189 496 m 113 733 q 149 746 132 739 q 185 760 167 753 q 183 765 183 761 l 113 761 l 113 733 m 190 686 q 150 685 169 686 q 111 686 131 685 l 111 682 q 112 672 111 676 q 113 664 113 668 q 151 671 132 667 q 190 679 171 675 l 190 686 m 113 218 q 158 227 135 224 q 201 235 181 231 l 201 243 q 156 240 178 242 q 111 235 135 238 q 112 231 111 232 q 113 226 113 229 l 113 218 m 106 401 l 193 417 l 193 419 l 106 421 l 106 401 m 114 618 q 113 604 114 608 l 186 613 q 187 617 186 615 q 188 622 188 619 l 114 618 m 115 171 q 116 163 115 167 q 117 156 117 160 l 201 168 l 201 172 l 115 171 m 121 21 q 161 28 140 25 q 201 33 182 31 l 201 38 l 121 35 l 121 21 m 493 303 l 493 304 q 447 295 475 301 q 400 286 419 289 l 400 272 l 493 303 m 203 -65 q 201 -50 201 -61 l 119 -68 l 119 -69 l 203 -65 m 200 310 q 153 304 176 307 q 108 299 131 301 l 108 286 q 153 298 131 293 q 200 308 176 303 l 200 310 m 118 100 q 119 94 118 97 q 119 86 119 90 l 197 103 l 118 100 m 119 129 l 201 131 l 201 143 l 119 129 m 110 261 l 201 269 l 201 279 l 110 263 l 110 261 m 393 396 q 394 385 394 392 l 483 400 l 393 396 m 397 215 l 397 208 q 433 215 415 211 q 468 224 450 219 l 469 225 q 472 229 469 226 l 397 215 m 107 349 l 196 375 l 196 376 l 107 357 l 107 349 m 250 151 l 231 147 l 231 132 l 260 132 l 250 151 m 253 547 q 238 547 246 547 q 224 546 231 546 l 224 528 l 242 531 q 253 547 244 536 m 392 485 q 415 487 403 486 q 438 490 426 488 l 429 504 l 392 485 m 143 715 q 166 715 154 715 q 190 715 178 714 q 189 731 190 726 q 143 715 167 722 m 124 -28 l 124 -39 l 185 -24 l 124 -28 m 106 535 l 186 558 l 186 560 l 106 542 l 106 535 m 115 572 q 143 576 118 572 q 186 582 168 579 l 186 590 l 115 572 m 426 247 q 483 256 457 250 l 486 265 l 426 247 m 465 439 q 464 442 464 440 q 463 446 464 443 l 389 422 l 465 439 m 401 526 q 381 521 390 524 q 360 515 371 518 l 364 506 l 404 525 q 401 526 404 526 m 446 465 q 414 460 431 463 q 382 454 397 457 q 383 450 382 451 q 383 446 383 449 q 415 456 399 451 q 446 465 431 460 m 147 447 l 192 450 l 192 458 l 171 454 l 147 447 m 429 167 l 429 168 l 389 163 q 388 154 389 157 l 429 167 m 201 200 l 201 210 l 163 203 l 201 200 m 196 74 q 163 68 178 71 q 129 63 147 65 q 163 65 146 64 q 196 69 179 67 l 196 74 m 199 338 l 199 342 l 126 329 l 199 338 m 200 7 q 181 3 190 4 q 163 0 172 1 l 200 0 l 200 7 m 188 524 l 188 528 l 146 518 l 188 524 m 161 649 q 175 649 168 649 q 189 650 182 650 l 189 656 l 161 649 m 231 506 q 224 504 226 506 l 224 486 l 231 506 m 231 199 l 235 199 l 231 213 l 231 199 m 217 767 q 217 765 217 765 q 218 763 218 764 l 224 768 l 217 767 m 113 -103 l 113 -106 l 111 -106 q 111 -110 111 -111 q 114 -103 111 -110 l 113 -103 m 289 101 q 285 101 286 101 q 282 100 283 100 l 292 100 q 290 101 290 100 q 289 101 290 101 z "},"":{"ha":765,"x_min":0,"x_max":768,"o":"m 7 619 q 34 627 17 626 q 71 628 51 628 q 132 635 99 632 q 197 640 165 638 q 256 644 229 643 q 297 646 282 646 l 299 646 q 319 648 308 647 q 349 649 331 649 q 362 637 360 646 q 353 624 364 628 l 350 624 q 283 604 301 615 q 261 565 265 593 q 263 560 261 563 q 274 465 264 511 q 299 372 283 418 q 312 328 306 349 q 329 286 318 308 q 373 228 347 253 q 424 203 399 204 q 458 219 438 208 q 482 276 474 238 q 494 335 489 301 q 501 404 499 369 q 501 423 501 414 q 500 442 500 432 q 499 461 499 449 q 497 474 497 465 l 497 475 q 474 541 489 510 q 446 592 460 572 l 442 596 l 438 601 q 431 616 431 607 q 444 626 431 625 q 506 631 469 628 q 583 638 542 635 q 664 641 624 640 q 738 638 704 642 l 738 636 q 749 623 749 633 q 739 610 750 613 l 703 610 q 664 585 675 604 q 650 539 653 567 l 650 538 q 651 481 650 517 q 655 401 653 444 q 660 311 657 357 q 666 223 663 265 q 672 147 669 181 q 676 97 674 114 q 750 39 697 58 q 757 36 754 39 q 765 23 768 33 q 750 14 761 13 l 738 13 q 675 3 708 7 q 606 -4 642 -1 q 536 -6 571 -7 q 471 0 501 -6 l 468 0 q 451 9 457 0 q 457 24 446 18 q 469 28 461 28 q 471 27 471 28 q 472 26 471 26 q 502 46 489 32 q 521 83 515 60 q 519 108 519 96 q 518 132 518 121 l 514 167 l 510 219 q 463 189 497 203 q 419 178 443 175 q 357 172 390 169 q 279 192 324 174 q 279 145 279 169 q 281 88 279 121 q 285 13 282 50 q 290 -62 288 -24 q 309 -90 297 -79 q 343 -101 321 -100 q 356 -99 350 -100 q 368 -94 361 -97 q 381 -78 379 -87 q 379 -60 383 -68 q 366 -47 375 -51 q 344 -49 357 -43 q 343 -56 344 -53 l 349 -56 q 362 -71 363 -58 q 346 -83 361 -83 q 321 -72 328 -83 q 318 -44 314 -60 q 340 -22 322 -26 q 376 -24 358 -18 q 403 -47 393 -31 q 404 -83 414 -62 q 390 -107 397 -99 q 367 -122 383 -115 q 349 -125 356 -125 q 347 -126 349 -125 q 344 -127 346 -126 q 340 -128 343 -128 q 285 -126 310 -128 q 240 -124 261 -125 q 197 -122 218 -122 q 154 -122 176 -121 q 143 -132 153 -128 l 140 -132 q 126 -124 129 -132 q 103 -126 115 -125 q 76 -131 90 -128 q 62 -122 65 -131 q 65 -106 58 -112 q 101 -82 89 -93 q 119 -58 114 -71 q 126 -26 125 -44 q 128 18 128 -8 q 129 22 128 21 q 127 97 128 60 q 124 169 126 133 q 122 208 124 196 q 119 228 121 219 q 118 248 118 236 q 118 286 118 260 q 117 340 118 311 q 115 399 117 368 q 110 460 113 429 q 108 518 108 490 q 97 559 106 542 q 63 588 89 576 q 38 592 51 593 q 13 594 25 592 q 2 605 4 597 q 7 619 0 613 m 153 124 l 244 143 q 244 149 244 146 q 243 154 243 151 l 153 146 l 153 124 m 236 567 q 237 569 236 568 q 238 571 238 569 q 239 583 233 576 l 239 588 q 183 574 211 579 q 125 563 154 568 q 126 558 126 560 q 128 556 126 557 l 143 557 l 236 567 m 622 489 l 622 510 l 524 476 l 524 474 l 622 489 m 146 263 l 238 279 l 238 289 l 146 278 l 146 263 m 236 360 q 190 351 213 356 q 144 344 167 347 q 145 335 144 340 q 146 326 146 331 q 186 339 165 332 q 236 353 207 346 l 236 360 m 236 474 q 185 468 211 471 q 136 463 160 465 l 136 447 l 236 471 l 236 474 m 561 39 q 562 35 561 36 q 563 32 563 33 l 593 32 q 621 40 607 36 q 650 50 635 44 l 650 57 l 561 39 m 107 589 q 165 600 136 594 q 224 613 194 606 q 195 610 213 611 q 146 604 178 610 l 96 599 q 107 589 104 593 m 622 333 q 576 326 599 331 q 532 319 553 322 l 535 300 l 593 324 l 622 333 m 576 256 q 557 252 567 253 q 538 250 547 251 q 538 243 538 247 q 539 236 539 239 q 585 247 563 242 q 632 258 608 251 q 599 256 614 257 q 576 256 585 256 m 542 210 l 542 206 q 588 212 565 208 q 635 218 611 215 l 635 229 l 542 210 m 628 356 l 626 372 q 585 359 606 365 q 546 347 565 353 l 628 356 m 647 93 q 647 97 647 96 q 646 101 646 99 l 556 79 q 556 77 556 78 q 557 74 557 76 l 647 93 m 553 135 q 599 140 576 138 q 640 147 621 143 q 639 160 640 156 q 596 147 618 153 q 553 135 574 142 m 149 422 q 191 426 169 424 q 236 432 213 429 l 236 443 q 190 433 213 439 q 149 422 167 426 m 242 193 q 196 184 218 188 q 151 176 174 181 l 151 174 l 242 182 l 242 193 m 156 17 l 250 49 l 250 50 l 156 28 l 156 17 m 228 540 q 180 537 204 539 q 132 532 156 535 l 135 521 l 228 540 m 167 -7 q 192 -5 174 -6 q 253 -1 211 -4 l 253 13 l 167 -7 m 540 413 q 582 419 561 415 q 624 426 603 424 l 624 436 l 606 432 q 572 423 589 428 q 540 413 556 418 m 265 -94 q 264 -83 265 -86 q 230 -90 246 -86 q 196 -96 214 -93 q 222 -97 211 -96 q 249 -99 233 -97 q 260 -94 253 -94 l 265 -94 m 256 -29 l 256 -28 l 156 -39 l 156 -47 l 256 -29 m 238 325 l 146 311 q 189 313 164 313 q 238 315 214 313 l 238 325 m 154 75 q 247 93 194 82 l 247 94 q 201 89 224 92 q 154 83 178 86 l 154 75 m 529 383 l 529 372 l 610 399 l 529 383 m 619 188 q 581 183 600 185 q 543 178 563 181 l 544 165 l 619 188 m 567 279 l 632 288 l 631 300 l 567 279 m 318 246 l 311 257 l 279 253 l 279 242 l 318 246 m 596 590 q 526 578 561 582 q 525 565 525 574 q 560 578 542 572 q 596 590 578 583 m 154 493 q 194 499 174 496 q 236 503 215 501 l 236 514 l 154 493 m 344 214 q 332 212 338 213 q 319 208 326 211 q 363 196 339 200 l 367 197 q 344 214 358 201 m 558 547 l 622 558 q 623 564 622 561 q 624 569 624 567 l 558 547 m 240 239 q 240 242 240 242 q 239 246 239 243 l 146 232 l 240 239 m 525 446 q 526 443 525 444 q 526 440 526 442 l 526 436 l 586 456 l 525 446 m 260 -54 q 259 -53 260 -53 q 258 -51 258 -53 q 215 -58 243 -54 q 156 -64 188 -61 l 156 -67 q 215 -60 188 -64 q 260 -54 243 -57 m 140 393 q 141 390 140 390 q 142 388 142 389 l 210 401 l 140 393 m 703 35 q 679 54 690 43 q 680 44 679 49 q 681 35 681 39 l 703 35 m 492 578 q 493 597 492 590 l 479 597 l 492 578 m 278 286 l 294 289 l 290 296 l 278 294 l 278 286 m 501 246 q 508 247 506 250 l 507 286 q 504 263 506 274 q 501 246 503 253 m 524 513 l 524 507 l 553 518 l 524 513 m 276 318 l 282 318 l 276 332 l 276 318 m 551 110 l 551 108 l 567 113 l 551 110 m 253 614 q 250 613 251 614 l 250 610 q 253 614 250 611 m 128 -97 l 128 -94 q 125 -97 128 -97 l 128 -97 m 649 611 l 649 610 l 650 611 l 649 611 z "},"":{"ha":518,"x_min":-1,"x_max":493,"o":"m 129 425 q 182 451 144 438 q 258 467 219 464 q 229 531 244 499 q 201 588 214 564 l 163 656 q 128 702 146 679 q 99 746 111 725 q 74 756 88 753 q 50 756 61 758 q 31 745 39 754 q 24 719 24 736 q 33 700 25 708 q 49 686 40 692 q 66 678 58 681 q 74 676 74 676 q 87 683 86 679 q 83 692 88 688 q 69 699 78 696 q 53 701 60 701 q 42 707 47 701 l 40 707 q 37 719 35 714 q 46 726 39 724 q 92 715 75 728 q 113 688 108 703 q 107 660 117 672 q 74 649 97 647 q 33 663 50 650 q 7 692 15 675 q 1 728 -1 710 q 19 763 4 747 q 58 786 40 781 q 63 788 60 788 q 104 790 78 793 q 107 790 107 790 q 108 789 107 789 q 222 791 167 789 q 333 788 276 793 l 342 788 l 346 785 q 356 772 356 779 q 344 763 356 764 l 340 763 q 328 753 333 761 q 321 733 324 744 q 318 709 318 722 q 321 686 318 696 q 374 603 347 649 q 422 510 400 558 q 462 413 444 461 q 489 324 479 365 q 492 297 490 318 q 492 250 493 276 q 488 199 492 224 q 476 164 485 175 q 424 78 458 113 q 331 8 388 32 q 204 -4 275 -15 q 120 43 154 4 q 69 133 86 82 q 53 241 51 185 q 75 343 54 297 q 85 367 78 356 q 89 368 88 367 q 129 425 106 401 m 274 49 q 279 50 275 50 q 319 85 306 57 q 337 149 333 113 q 335 227 340 186 q 317 304 329 268 q 289 366 306 340 q 253 397 272 392 q 246 351 246 389 q 249 267 246 313 q 255 176 251 221 q 258 110 258 132 q 258 92 258 99 q 258 83 258 86 q 259 76 258 79 q 263 67 260 72 q 269 53 265 57 q 274 49 274 50 m 196 185 q 149 168 174 176 q 100 150 124 160 q 103 144 103 147 q 151 153 126 149 q 199 164 175 158 l 196 185 m 189 281 q 126 267 156 274 q 82 254 97 261 q 82 243 82 249 q 83 231 82 238 q 128 253 107 242 q 163 269 150 265 l 189 278 l 189 281 m 167 704 q 168 701 168 703 l 267 715 l 251 738 l 167 704 m 139 215 q 166 218 153 217 q 192 222 179 219 q 190 234 190 229 q 190 246 190 239 q 154 235 169 239 q 133 228 139 231 q 116 220 125 224 q 99 211 107 217 l 139 215 m 303 660 q 297 672 297 668 l 296 672 l 197 649 l 201 642 l 303 660 m 458 285 q 409 277 433 281 q 361 268 385 274 l 364 254 q 399 263 382 258 q 435 274 417 268 q 447 276 442 275 q 460 281 453 278 q 459 283 460 282 q 458 285 458 283 m 282 488 q 329 501 306 494 q 376 515 353 508 q 375 518 376 515 q 330 509 356 514 q 276 500 304 504 l 282 488 m 124 107 q 164 120 143 114 q 204 133 185 126 q 203 140 204 138 l 117 117 l 124 107 m 388 232 q 422 231 406 232 q 454 231 439 231 l 458 251 q 446 249 450 249 l 388 232 m 304 446 l 307 433 l 358 446 l 388 457 l 304 446 m 324 381 l 328 369 l 350 376 q 380 385 365 381 q 410 396 394 390 l 324 381 m 367 138 l 365 125 l 429 138 l 432 142 l 367 138 m 214 753 q 177 748 194 750 q 142 743 160 746 q 147 736 144 740 q 151 729 149 732 l 214 753 m 171 58 q 178 54 174 56 q 188 50 183 53 l 221 68 q 219 72 219 69 l 171 58 m 449 185 l 371 169 l 444 174 l 449 185 m 93 318 q 92 314 93 315 q 92 311 92 313 q 91 309 92 310 q 90 307 90 308 q 126 320 108 314 q 161 333 143 326 l 93 318 m 290 725 q 299 756 293 742 l 272 746 l 275 743 l 285 732 l 290 725 m 214 228 q 226 231 218 228 l 224 257 l 211 253 q 213 240 213 246 q 214 228 214 235 m 219 193 l 224 171 q 228 172 226 171 q 233 172 231 172 l 233 181 l 231 197 l 219 193 m 129 293 l 188 306 l 188 314 l 129 293 m 213 99 q 211 103 211 101 q 210 106 211 104 l 151 83 l 213 99 m 193 371 q 194 376 193 374 q 194 382 194 379 l 154 364 l 193 371 m 300 568 q 275 563 288 565 q 251 558 263 561 q 253 556 253 557 q 254 551 253 554 l 300 568 m 386 492 l 343 478 l 390 483 l 386 492 m 390 75 l 392 76 l 356 76 l 351 67 l 390 75 m 235 613 l 275 622 q 246 619 260 619 q 217 615 232 618 q 222 607 219 610 l 235 613 m 414 433 q 383 424 399 428 q 351 417 367 421 l 418 428 l 414 433 m 274 592 l 336 604 q 333 610 333 607 l 274 592 m 415 201 q 394 202 404 201 q 372 204 383 203 l 372 196 q 394 198 383 197 q 415 201 404 199 m 439 376 q 417 369 428 372 q 393 361 406 365 l 440 369 q 439 376 440 375 m 454 313 q 453 318 453 314 l 397 303 q 404 304 401 303 l 454 313 m 310 539 l 363 550 q 360 556 360 553 l 310 539 m 181 413 q 165 404 172 408 q 151 394 158 400 l 194 414 l 183 414 q 181 413 182 413 m 415 111 l 378 104 l 411 104 l 415 111 m 218 324 q 210 321 215 324 l 210 310 l 218 313 l 218 324 m 181 679 q 183 675 183 676 l 218 685 l 181 679 m 108 183 q 99 183 103 182 q 90 182 94 183 q 92 178 92 181 l 108 183 m 233 42 l 226 38 q 238 36 229 36 l 233 42 m 229 142 q 232 143 231 143 q 233 145 232 144 q 233 147 233 146 q 231 147 232 146 q 228 146 229 147 q 228 144 228 144 q 229 142 229 143 m 347 318 l 347 317 q 358 319 350 317 l 347 318 m 221 386 q 218 376 218 378 l 221 386 z "},"`":{"ha":208,"x_min":26,"x_max":183,"o":"m 147 733 q 117 760 132 744 q 90 793 103 776 q 49 842 67 818 q 29 874 31 865 q 40 905 26 893 q 68 924 53 917 q 72 925 69 925 q 76 926 74 925 q 81 928 79 926 q 96 922 90 929 q 141 844 121 888 q 179 761 161 801 q 168 735 183 747 q 153 729 163 728 q 149 732 151 729 q 147 733 147 732 m 61 885 q 64 881 61 883 l 83 888 l 78 900 q 65 893 74 899 q 61 890 63 890 q 58 886 60 889 q 60 885 60 886 q 61 885 60 885 m 100 825 q 106 818 103 819 l 106 817 q 112 819 108 819 q 118 821 115 819 l 114 831 q 107 827 111 828 q 100 825 103 826 m 100 856 l 97 863 l 79 856 l 100 856 m 132 796 l 128 796 l 125 796 l 140 779 l 132 796 z "},"":{"ha":182,"x_min":28,"x_max":156,"o":"m 156 899 q 140 860 156 890 q 106 799 125 831 q 87 766 96 782 q 67 736 78 750 l 63 732 q 61 731 61 732 q 60 731 61 731 q 51 729 56 728 q 44 733 47 731 q 29 757 28 743 q 50 847 39 800 q 81 932 61 893 q 94 940 83 940 l 99 940 q 101 940 100 940 q 104 939 103 939 q 137 926 121 933 q 156 899 153 918 m 92 883 l 115 892 l 121 903 l 119 903 q 96 896 108 899 l 92 883 m 86 851 q 82 850 85 850 l 79 840 l 96 846 l 101 857 l 86 851 m 78 810 q 69 807 75 810 l 63 785 l 78 810 z "},"":{"ha":272,"x_min":28,"x_max":246,"o":"m 117 917 q 113 880 119 910 q 94 817 106 850 q 84 776 90 796 q 69 740 78 756 q 58 731 67 731 q 49 731 53 728 q 34 738 40 733 q 28 750 28 743 q 30 843 31 794 q 38 933 29 892 q 40 940 38 939 q 47 944 43 942 l 51 944 l 60 944 q 94 940 78 944 q 117 917 110 936 m 243 917 q 240 885 246 910 q 225 831 233 860 q 213 783 219 806 q 196 740 206 760 q 186 731 193 731 q 178 731 182 728 q 162 738 169 732 q 154 750 154 743 q 156 843 157 794 q 167 933 156 892 q 174 944 167 940 l 178 944 l 186 944 q 221 940 204 944 q 243 917 238 936 m 60 889 q 69 893 65 892 q 79 896 74 894 q 82 908 79 900 q 68 903 79 908 l 61 903 l 60 889 m 186 882 l 199 888 l 204 888 l 207 901 q 188 894 197 896 l 186 882 m 57 849 q 62 850 60 850 q 67 853 64 850 q 74 854 68 854 l 75 865 l 58 858 l 57 849 m 183 843 q 200 849 194 846 l 201 860 q 185 853 190 854 l 183 843 m 182 814 l 179 781 l 190 817 l 182 814 m 56 818 l 54 803 l 58 806 l 60 807 l 65 822 l 56 818 z "},"":{"ha":251,"x_min":28,"x_max":226,"o":"m 58 733 q 41 731 51 726 q 28 744 31 736 l 28 747 q 31 763 28 754 q 38 783 33 772 q 66 851 49 815 q 94 899 83 886 q 114 904 99 903 q 136 903 129 906 q 158 879 143 899 q 189 835 174 860 q 215 789 204 811 q 226 757 226 767 q 222 751 224 754 q 210 735 221 747 q 192 732 206 729 q 153 772 168 743 q 119 822 139 800 q 88 777 108 803 q 58 733 68 751 m 151 824 q 156 825 154 824 q 160 828 157 826 q 156 834 158 831 q 153 840 154 838 q 146 839 149 839 q 140 838 143 839 l 151 824 m 136 867 q 128 875 129 875 l 107 871 l 136 867 m 172 789 l 178 792 l 172 803 q 167 800 172 803 l 172 789 m 190 768 l 189 767 q 190 766 190 767 q 192 765 190 765 l 193 765 l 190 768 z "},"":{"ha":251,"x_min":28,"x_max":226,"o":"m 193 893 q 210 895 200 899 q 224 885 219 892 l 226 881 q 218 849 226 867 q 204 815 213 833 q 188 779 196 796 q 172 749 179 763 q 160 729 164 735 q 138 722 154 724 q 115 724 122 721 q 94 748 108 728 q 65 792 81 768 q 39 838 50 815 q 28 871 28 860 q 28 873 28 872 q 29 875 29 874 q 32 879 29 876 l 42 893 q 60 896 46 899 q 82 880 72 890 q 99 856 92 869 q 115 829 107 843 q 132 804 122 815 q 162 847 143 822 q 190 890 181 871 l 193 893 m 101 778 q 104 779 101 778 l 115 783 q 103 797 107 790 l 93 792 l 101 778 m 149 768 q 133 761 140 765 q 117 754 125 757 q 124 753 122 751 l 144 757 l 149 768 m 82 829 q 76 826 79 826 l 81 817 l 88 821 q 82 829 85 824 m 156 797 l 160 797 l 163 804 l 156 797 m 67 851 l 60 861 l 58 861 l 67 851 z "},"":{"ha":276,"x_min":25,"x_max":250,"o":"m 58 811 q 61 812 60 811 q 64 813 63 813 q 100 807 78 817 q 115 792 108 803 q 121 769 122 781 q 108 738 119 746 q 81 730 96 729 q 52 739 67 731 q 31 760 38 747 q 30 786 25 772 q 58 811 35 800 m 238 793 q 247 776 244 786 q 240 756 250 767 q 198 733 218 728 q 169 756 178 739 q 167 792 160 774 q 211 811 175 811 q 226 804 217 810 q 238 793 235 799 m 201 764 q 221 771 211 760 q 220 774 222 772 q 215 778 218 776 q 208 777 211 779 q 204 769 206 775 l 201 764 m 79 776 q 90 769 88 774 l 94 774 q 84 781 92 778 q 69 781 76 785 q 69 778 69 778 q 68 778 68 779 l 69 778 q 79 776 72 776 z "},"":{"ha":150,"x_min":25,"x_max":122,"o":"m 58 811 q 61 812 60 811 q 64 813 63 813 q 100 807 78 817 q 115 792 108 803 q 121 769 122 781 q 108 738 119 746 q 81 730 96 729 q 52 739 67 731 q 31 760 38 747 q 30 786 25 772 q 58 811 35 800 m 79 772 q 89 768 88 769 q 92 770 90 769 q 94 774 93 771 q 84 781 92 778 q 69 781 76 785 q 79 772 61 772 z "},"":{"ha":326,"x_min":25,"x_max":306,"o":"m 32 776 q 28 786 28 781 q 35 801 25 796 q 74 813 51 808 q 119 819 96 817 q 163 824 142 822 q 200 828 185 826 q 245 835 228 832 q 275 835 263 839 q 284 827 283 833 q 296 804 285 821 q 294 782 306 792 q 235 769 267 772 q 174 763 203 765 q 161 763 167 760 q 156 762 158 763 q 150 761 153 761 q 125 758 142 761 q 90 751 108 754 q 58 749 72 749 q 38 756 43 749 q 32 776 35 763 m 136 785 q 147 785 142 785 q 160 788 153 786 l 175 800 l 138 794 q 136 785 139 790 m 58 774 q 71 772 63 772 q 78 778 72 775 l 89 786 l 57 781 q 58 774 57 776 m 213 790 q 225 797 218 796 q 228 800 225 799 q 231 803 229 801 q 236 807 233 804 q 225 806 231 807 q 213 806 219 806 q 210 790 215 797 l 213 790 m 271 808 q 269 800 272 806 q 271 801 271 800 q 272 801 271 801 q 274 808 274 807 l 271 808 z "},"":{"ha":276,"x_min":25,"x_max":250,"o":"m 146 764 q 130 784 138 775 q 115 793 122 793 q 101 779 104 794 q 96 754 99 764 q 95 750 96 751 q 94 746 94 749 q 93 742 93 743 q 88 735 90 736 q 79 731 86 733 q 55 735 69 729 q 33 746 40 742 q 28 753 31 747 q 29 764 25 760 q 51 822 33 799 q 97 849 68 846 q 132 842 118 850 q 155 824 146 835 q 169 805 164 814 q 179 794 175 796 q 185 801 182 793 q 186 810 186 806 l 186 815 q 194 832 183 825 q 197 833 194 833 q 200 835 197 833 q 224 833 213 838 q 243 822 236 829 q 249 810 250 817 q 246 799 247 803 q 223 752 235 765 q 200 736 211 739 q 172 740 183 732 q 150 758 160 747 l 146 764 m 60 789 l 57 774 l 68 779 l 72 792 q 65 790 69 790 q 63 789 64 790 l 60 789 m 210 793 q 217 794 213 794 l 222 806 q 213 808 217 808 l 210 793 m 94 826 q 82 821 85 824 q 94 826 90 824 z "},"":{"ha":254,"x_min":28,"x_max":231,"o":"m 78 856 q 81 855 79 856 q 83 854 82 854 q 97 840 94 851 q 97 796 93 819 q 103 767 100 781 q 125 760 106 753 q 163 793 157 768 q 161 849 168 818 q 169 863 163 857 q 188 865 181 865 q 190 866 189 865 q 193 867 190 867 q 201 865 199 867 q 206 864 204 865 q 218 850 215 864 q 226 822 221 836 q 226 792 231 808 q 190 743 218 758 q 128 729 161 728 q 67 748 96 731 q 31 796 39 765 q 29 818 28 807 q 31 840 31 829 q 33 847 31 844 q 41 858 35 856 q 53 856 47 860 l 78 856 m 188 815 l 199 821 q 194 831 196 826 q 192 839 193 835 l 188 839 l 188 815 m 67 796 q 57 793 61 793 q 71 775 60 783 l 67 796 m 54 831 q 53 821 53 828 q 60 825 53 821 q 67 826 63 826 q 67 828 67 828 q 68 831 68 829 l 54 831 m 189 788 q 186 786 188 788 l 183 775 q 194 789 189 779 q 192 788 193 789 q 189 788 190 788 z "},"":{"ha":235,"x_min":22,"x_max":213,"o":"m 75 739 q 32 779 42 751 q 31 834 22 807 q 63 879 39 861 q 118 888 86 897 q 139 886 125 889 q 200 839 188 869 q 200 781 213 808 q 153 738 188 753 q 75 739 119 724 m 136 793 q 143 814 143 804 q 139 831 143 824 q 129 842 135 838 q 121 849 124 846 l 113 849 q 101 828 106 842 q 97 792 97 815 q 97 781 97 790 q 100 769 96 771 q 121 776 111 767 q 136 793 131 785 m 161 788 l 178 793 q 181 799 181 796 q 182 806 181 803 l 165 800 l 161 788 m 64 817 q 54 815 60 815 q 56 799 54 804 q 60 801 58 800 q 64 803 61 803 q 65 810 64 807 q 67 818 65 814 l 64 817 m 85 863 q 63 846 71 858 q 79 853 74 851 q 85 863 81 858 m 164 840 q 171 832 169 835 l 164 840 z "},"":{"ha":218,"x_min":26,"x_max":193,"o":"m 165 90 q 176 91 171 93 q 185 85 182 89 q 189 74 189 81 q 183 64 189 68 q 147 35 167 50 q 111 3 126 21 q 89 -37 96 -14 q 90 -89 82 -60 q 103 -107 93 -99 q 126 -119 114 -115 q 151 -119 139 -122 q 167 -104 163 -117 q 183 -101 174 -97 q 189 -117 193 -106 q 172 -137 182 -129 q 149 -153 163 -146 q 117 -162 136 -160 q 67 -151 88 -165 q 36 -112 46 -136 q 27 -62 26 -89 q 40 -11 28 -35 q 92 43 60 24 q 156 83 124 63 l 165 90 m 54 -47 q 50 -81 50 -64 l 61 -78 q 61 -61 61 -69 q 63 -46 61 -53 l 54 -47 m 79 -125 q 65 -104 69 -115 l 57 -107 q 72 -126 63 -118 l 79 -125 m 71 -11 l 68 -15 l 71 -15 l 71 -11 z "},"":{"ha":224,"x_min":24,"x_max":197,"o":"m 49 -64 q 31 -53 38 -67 q 29 -29 24 -39 q 37 24 32 -6 q 44 78 42 53 q 58 93 47 93 q 72 78 69 93 q 71 65 72 69 l 88 69 q 88 76 88 74 q 89 82 89 79 q 101 96 92 96 q 114 82 111 96 q 112 60 113 74 q 110 31 111 46 q 106 0 108 15 q 101 -25 104 -15 q 116 -25 108 -25 q 131 -26 124 -25 q 183 -42 168 -28 q 195 -76 197 -57 q 178 -117 193 -96 q 140 -155 163 -139 q 90 -178 117 -171 q 38 -176 63 -185 q 33 -158 33 -171 q 36 -151 36 -153 q 49 -144 42 -144 l 96 -121 q 107 -110 103 -117 l 111 -104 q 116 -84 117 -94 q 108 -67 115 -74 q 87 -58 101 -60 q 49 -64 72 -56 m 68 33 q 65 32 67 33 l 61 15 l 81 22 q 83 40 81 29 q 76 38 78 39 q 68 33 75 38 m 75 -24 q 76 -15 75 -19 q 76 -6 76 -11 l 54 -14 l 54 -22 q 75 -24 68 -22 m 142 -86 q 140 -94 140 -89 q 153 -92 147 -93 q 167 -87 160 -90 l 169 -79 l 142 -86 m 140 -60 q 156 -54 149 -58 q 135 -50 147 -50 l 140 -60 m 107 -144 q 123 -135 115 -140 q 138 -122 131 -129 l 125 -126 q 117 -136 122 -132 q 107 -144 113 -140 z "},"":{"ha":164,"x_min":25,"x_max":139,"o":"m 32 406 q 31 434 25 421 q 50 456 38 447 q 77 465 63 464 q 103 457 92 467 l 111 453 q 133 424 129 440 q 126 391 139 403 q 95 377 114 379 q 57 382 76 375 q 32 406 38 389 m 85 419 q 100 428 90 435 q 96 432 97 431 q 90 435 94 433 q 76 427 79 438 q 85 419 74 417 z "},"a":{"ha":563,"x_min":26,"x_max":565,"o":"m 285 500 q 252 567 269 542 q 210 600 235 593 l 208 600 q 201 596 206 596 q 174 547 176 576 q 181 499 171 518 l 185 488 q 194 476 189 485 q 208 444 203 464 q 207 410 214 424 q 173 367 196 382 q 124 351 150 353 q 73 358 97 349 q 36 389 49 368 q 26 419 26 406 q 31 444 26 433 q 38 496 31 468 q 72 572 46 533 q 110 610 88 594 q 161 631 133 625 q 270 644 222 640 q 358 625 318 647 q 422 588 401 614 q 453 504 443 561 q 461 465 460 483 q 461 426 463 446 q 463 407 463 421 q 472 383 465 394 q 492 363 479 371 q 508 353 499 357 q 529 347 518 350 q 554 342 542 343 q 563 324 565 335 q 546 315 560 314 q 501 306 517 319 q 477 272 485 293 q 468 224 469 250 q 465 178 467 199 q 466 137 465 156 q 472 90 467 118 q 474 74 474 83 q 478 57 475 65 q 486 42 481 49 q 503 36 492 36 q 506 35 506 35 q 510 36 507 36 l 515 36 q 520 38 518 38 q 529 39 522 39 q 542 26 542 36 q 532 13 543 15 q 495 11 508 13 q 472 9 482 10 q 450 7 461 8 q 419 4 439 6 q 348 0 389 1 q 269 1 307 -1 q 233 -3 254 -3 q 183 1 213 -4 q 172 14 172 4 q 183 29 172 24 q 194 31 189 31 q 207 31 200 31 q 269 79 251 39 q 261 94 267 90 q 244 99 256 97 q 157 94 200 88 q 89 128 114 100 q 64 182 63 149 q 76 255 67 228 q 105 297 86 282 q 153 318 124 311 q 228 331 183 325 q 260 337 239 332 q 289 356 281 342 q 296 403 297 371 q 292 474 294 435 l 285 500 m 289 235 q 290 249 289 242 q 290 264 290 257 l 289 264 q 278 261 283 261 q 265 263 272 261 q 251 262 258 263 q 238 260 244 261 q 217 256 226 257 q 201 251 208 254 q 178 222 178 235 q 199 210 183 214 q 250 211 218 207 l 265 219 q 275 226 271 222 q 283 233 279 231 q 286 234 285 233 q 289 235 288 235 m 219 286 q 228 289 224 288 q 239 290 233 290 q 267 300 253 296 q 294 308 281 304 l 294 315 q 253 299 279 303 q 199 293 226 296 q 157 277 178 285 q 117 263 136 269 q 103 242 110 256 q 133 251 118 246 q 163 261 147 256 q 219 286 179 276 m 438 203 l 349 172 l 313 158 l 313 147 q 374 167 343 157 q 438 188 406 178 l 438 203 m 311 64 q 310 50 310 58 q 372 72 340 61 q 435 93 403 82 l 435 106 l 424 103 q 380 88 413 100 q 311 64 347 75 m 435 68 q 376 49 407 60 q 315 26 344 38 l 360 26 l 435 56 l 435 68 m 432 358 q 377 344 404 351 q 322 331 350 338 l 322 314 l 432 349 l 432 358 m 317 263 q 316 254 317 258 q 315 246 315 250 q 376 268 346 258 q 433 286 406 278 l 433 293 q 372 278 399 286 q 331 268 346 271 l 317 263 m 324 386 l 357 399 l 431 422 q 431 426 431 425 q 432 431 432 428 q 374 417 401 424 q 326 403 346 410 l 324 386 m 164 133 q 224 153 194 143 q 286 174 254 164 l 286 188 l 139 131 q 144 128 144 128 l 164 133 m 318 494 q 319 491 319 492 q 319 488 318 490 l 418 511 l 414 522 l 413 524 q 364 509 389 517 q 318 494 339 501 m 325 426 l 344 432 l 429 456 q 428 467 429 463 q 376 449 403 458 q 325 429 350 440 l 325 426 m 151 218 q 149 225 149 224 l 101 213 q 97 211 99 213 l 97 197 l 119 206 l 151 218 m 147 571 q 151 581 149 576 q 157 590 154 585 q 146 589 153 589 l 138 585 q 104 560 118 576 q 124 565 115 563 q 143 571 133 568 l 147 571 m 75 517 q 108 525 92 521 q 142 532 124 529 l 142 540 q 108 533 122 536 q 81 526 93 529 l 75 517 m 213 182 q 201 183 206 182 l 113 151 l 115 147 l 213 182 m 90 388 q 129 386 111 381 q 158 403 147 392 l 90 388 m 354 369 l 432 385 l 432 396 l 354 369 m 378 579 q 338 565 358 572 q 299 549 318 557 q 341 560 319 554 q 385 574 363 567 l 378 579 m 401 488 q 358 477 378 482 q 321 467 338 472 q 322 463 321 464 q 322 458 322 461 l 401 488 m 160 461 l 76 440 q 75 439 76 439 q 120 447 99 442 q 165 457 142 451 l 160 461 m 465 347 q 466 331 465 339 q 467 315 467 322 q 488 333 476 328 q 465 347 481 335 m 313 188 q 354 204 333 196 q 396 219 375 213 l 313 194 l 313 188 m 324 593 q 299 589 311 590 q 274 586 286 588 l 282 576 l 324 593 m 310 524 q 311 519 311 522 l 396 549 l 310 524 m 432 326 q 418 321 425 324 q 399 315 411 318 l 432 322 l 432 326 m 283 50 q 269 35 275 39 q 275 36 274 35 q 283 50 278 39 m 463 31 l 461 32 l 461 31 l 463 31 z "}}}
